<?xml version="1.0" standalone="no"?>
<!DOCTYPE svg PUBLIC "-//W3C//DTD SVG 1.1//EN" "http://www.w3.org/Graphics/SVG/1.1/DTD/svg11.dtd" >
<svg>
<metadata>
Created by FontForge 20090622 at Tue Nov 27 16:13:35 2018
 By deploy user
&#194;&#169; 2000, 2004 Adobe Systems Incorporated. All Rights Reserved. U.S. Patent D454,582.
</metadata>
<defs>
<font id="MyriadPro-LightIt" horiz-adv-x="375" >
  <font-face 
    font-family="Myriad Pro Light"
    font-weight="300"
    font-style="italic"
    font-stretch="normal"
    units-per-em="1000"
    panose-1="2 11 4 3 3 4 3 9 2 4"
    ascent="750"
    descent="-250"
    x-height="480"
    cap-height="674"
    bbox="-175 -250 1007 933"
    underline-thickness="50"
    underline-position="-50"
    slope="-11"
    unicode-range="U+0020-U+FB04"
  />
<missing-glyph horiz-adv-x="500" 
d="M0 0v700h500v-700h-500zM250 395l170 255h-340zM280 350l170 -255v510zM80 50h340l-170 255zM50 605v-510l170 255z" />
    <glyph glyph-name="f_f_j" unicode="ffj" horiz-adv-x="693" 
d="M707 697l-18 -38q-38 22 -89 22q-63 0 -99.5 -48.5t-49.5 -127.5l-5 -25h246l-94 -488q-23 -121 -57 -157q-39 -44 -98 -44q-30 0 -46 5l7 38q12 -5 41 -5q38 0 63.5 31t40.5 108l91 475h-201l-84 -443h-45l84 443h-219l-84 -443h-45l85 443h-66l8 37h65l5 26
q18 102 73 158q45 45 109 45q40 0 69 -21l-18 -36q-27 17 -58 17q-45 0 -74 -29q-39 -41 -57 -137l-4 -23h219l5 28q17 100 69.5 156.5t136.5 56.5q28 0 56 -7.5t38 -16.5z" />
    <glyph glyph-name="f_j" unicode="fj" horiz-adv-x="430" 
d="M443 697l-18 -38q-38 22 -89 22q-118 0 -149 -176l-4 -25h245l-93 -488q-23 -119 -58 -157q-38 -44 -97 -44q-30 0 -45 5l6 38q13 -5 41 -5q38 0 63.5 31t40.5 108l90 475h-201l-83 -443h-45l84 443h-65l7 37h66l5 28q17 100 69.5 156.5t135.5 56.5q28 0 56 -7.5
t38 -16.5z" />
    <glyph glyph-name="f_f" unicode="ff" horiz-adv-x="518" 
d="M644 708l-14 -37q-19 10 -50 10q-98 0 -129 -178l-4 -23h115l-8 -37h-115l-85 -443h-44l84 443h-219l-84 -443h-45l85 443h-66l8 37h65l5 24q20 111 73 164q43 41 100 41q30 0 56 -14l-17 -37q-18 11 -44 11q-93 0 -124 -169l-4 -20h219l4 26q21 120 78 175q43 40 99 40
q41 0 61 -13z" />
    <glyph glyph-name="f_i" unicode="fi" horiz-adv-x="460" 
d="M91 0h-44l84 443h-65l7 37h66l5 28q18 100 70 156.5t135 56.5q28 0 56 -7.5t39 -16.5l-19 -38q-36 22 -89 22q-118 0 -149 -176l-4 -25h245l-91 -480h-45l84 443h-201z" />
    <glyph glyph-name="f_l" unicode="fl" horiz-adv-x="460" 
d="M91 0h-44l84 443h-65l7 37h66l4 21q23 123 91 177q54 43 129 43q70 0 106 -25l-132 -696h-45l127 667q-26 14 -70 14q-127 0 -160 -170l-6 -31h114l-8 -37h-114z" />
    <glyph glyph-name="f_f_i" unicode="ffi" horiz-adv-x="723" 
d="M707 697l-18 -38q-38 22 -89 22q-63 0 -99.5 -48.5t-49.5 -127.5l-5 -25h246l-92 -480h-45l84 443h-200l-84 -443h-45l84 443h-219l-84 -443h-45l85 443h-66l8 37h65l5 26q18 102 73 158q45 45 109 45q39 0 70 -21l-19 -36q-27 17 -58 17q-45 0 -74 -29q-39 -41 -57 -137
l-4 -23h219l5 28q17 100 69.5 156.5t136.5 56.5q28 0 56 -7.5t38 -16.5z" />
    <glyph glyph-name="f_f_l" unicode="ffl" horiz-adv-x="723" 
d="M399 689l-20 -36q-26 16 -58 16q-44 0 -75 -31q-40 -40 -59 -135l-4 -23h219l4 21q21 122 91 177q54 43 129 43q70 0 106 -25l-132 -696h-45l127 667q-24 14 -70 14q-127 0 -160 -170l-6 -31h114l-8 -37h-113l-84 -443h-45l84 443h-219l-84 -443h-45l85 443h-66l8 37h65
l5 26q18 102 74 157q46 46 111 46q41 0 71 -20z" />
    <glyph glyph-name=".notdef" horiz-adv-x="500" 
d="M0 0v700h500v-700h-500zM250 395l170 255h-340zM280 350l170 -255v510zM80 50h340l-170 255zM50 605v-510l170 255z" />
    <glyph glyph-name=".null" horiz-adv-x="0" 
 />
    <glyph glyph-name="nonmarkingreturn" horiz-adv-x="333" 
 />
    <glyph glyph-name="space" unicode=" " horiz-adv-x="180" 
 />
    <glyph glyph-name="exclam" unicode="!" horiz-adv-x="215" 
d="M117 177h-39l88 497h56zM68 -11h-1q-17 0 -27.5 13t-10.5 31q0 20 11.5 33t29.5 13t29 -12.5t11 -31.5t-12 -32.5t-30 -13.5z" />
    <glyph glyph-name="quotedbl" unicode="&#x22;" horiz-adv-x="253" 
d="M126 692h57l-55 -221h-32zM249 692h57l-55 -221h-32z" />
    <glyph glyph-name="numbersign" unicode="#" horiz-adv-x="462" 
d="M176 245h92l51 166h-92zM101 0h-41l64 207h-83l7 38h88l51 166h-88l7 37h93l63 202h39l-63 -202h93l63 202h39l-62 -202h83l-7 -37h-88l-51 -166h89l-7 -37h-93l-64 -208h-40l64 208h-92z" />
    <glyph glyph-name="dollar" unicode="$" horiz-adv-x="462" 
d="M186 -85h-39l20 104q-30 1 -63.5 12.5t-53.5 26.5l16 37q58 -39 118 -39q62 0 105.5 38t43.5 98q0 82 -85 128q-119 64 -119 153q0 62 46.5 110t114.5 53l20 103h40l-20 -103q65 -3 96 -32l-17 -34l-11 6q-12 6 -17.5 8.5t-18 6.5t-26 6t-28.5 2q-60 0 -96.5 -34
t-36.5 -86q0 -40 20.5 -65.5t75.5 -56.5q107 -63 107 -152q0 -76 -47.5 -126.5t-124.5 -59.5z" />
    <glyph glyph-name="percent" unicode="%" horiz-adv-x="714" 
d="M244 661h1q53 0 78.5 -38t25.5 -89q0 -111 -47 -191t-121 -80q-52 0 -79.5 38.5t-27.5 100.5q0 61 19.5 119.5t59.5 99t91 40.5zM238 627h-1q-52 0 -87 -71t-35 -155q0 -104 72 -104q51 0 85.5 72t34.5 156q0 41 -15.5 71.5t-53.5 30.5zM148 -13h-44l496 676h44zM574 393
h1q52 0 77.5 -38t25.5 -90q0 -110 -47 -190t-121 -80q-52 0 -79.5 38t-27.5 101q0 61 20 119.5t60 99t91 40.5zM567 359h-1q-51 0 -86 -71t-35 -156q0 -103 72 -103q51 0 85 72t34 156q0 102 -69 102z" />
    <glyph glyph-name="ampersand" unicode="&#x26;" horiz-adv-x="542" 
d="M486 0h-53q-25 30 -53 73q-85 -84 -195 -84q-79 0 -123 47.5t-44 115.5q0 74 50 131t121 91v4q-37 68 -37 128q0 73 45.5 126t112.5 53q58 0 86 -35.5t28 -86.5q0 -122 -176 -202v-3q72 -125 140 -223q60 78 107 221h45q-59 -171 -131 -253l22.5 -31l27.5 -37.5t27 -34.5
zM195 27h1q94 0 163 77l-61.5 95.5t-90.5 145.5q-143 -79 -143 -188q0 -57 35 -93.5t96 -36.5zM305 648h-1q-45 0 -76.5 -39t-31.5 -97q0 -60 33 -122q78 38 114.5 78t36.5 92q0 37 -18 62.5t-57 25.5z" />
    <glyph glyph-name="quotesingle" unicode="'" horiz-adv-x="147" 
d="M134 692h57l-54 -221h-32z" />
    <glyph glyph-name="parenleft" unicode="(" horiz-adv-x="265" 
d="M291 692h48q-222 -239 -222 -535q0 -142 64 -277h-39q-69 130 -69 283q0 87 20.5 170t55.5 150t69 116.5t73 92.5z" />
    <glyph glyph-name="parenright" unicode=")" horiz-adv-x="265" 
d="M-3 -120h-48q222 241 222 537q0 141 -64 275h39q69 -127 69 -282q0 -286 -218 -530z" />
    <glyph glyph-name="asterisk" unicode="*" horiz-adv-x="391" 
d="M332 685l40 -24l-101 -123v-2l145 11l-11 -46l-138 12v-2l74 -119l-45 -26l-53 132h-2l-83 -133l-35 27l100 120l1 2l-142 -13l8 46l137 -10v2l-73 120l46 25l52 -130h2z" />
    <glyph glyph-name="plus" unicode="+" horiz-adv-x="596" 
d="M289 532h40v-246h226v-38h-226v-248h-40v248h-227v38h227v246z" />
    <glyph glyph-name="comma" unicode="," horiz-adv-x="181" 
d="M5 -121l-39 -5q18 34 46.5 101t42.5 111l63 10q-21 -53 -58.5 -123.5t-54.5 -93.5z" />
    <glyph glyph-name="hyphen" unicode="-" horiz-adv-x="298" 
d="M50 296h227l-8 -42h-227z" />
    <glyph glyph-name="period" unicode="." horiz-adv-x="181" 
d="M62 -11h-1q-16 0 -27 13t-11 31q0 20 12 33t30 13t28.5 -12.5t10.5 -31.5t-11.5 -32.5t-30.5 -13.5z" />
    <glyph glyph-name="slash" unicode="/" horiz-adv-x="327" 
d="M-17 -40h-45l435 725h47z" />
    <glyph glyph-name="zero" unicode="0" horiz-adv-x="462" 
d="M317 661q41 0 70.5 -16.5t44.5 -45.5t22 -61t7 -69q0 -83 -19 -167t-52 -154.5t-85.5 -114.5t-112.5 -44q-77 0 -112 59t-35 157q0 112 35 216.5t99 172t138 67.5zM313 623q-60 0 -111.5 -64.5t-80.5 -161.5t-29 -196q0 -173 108 -173q48 0 90.5 45t68.5 112.5t41 141
t15 134.5q0 162 -102 162z" />
    <glyph glyph-name="one" unicode="1" horiz-adv-x="462" 
d="M181 0l114 598h-2l-101 -56l-12 37l127 71h42l-124 -650h-44z" />
    <glyph glyph-name="two" unicode="2" horiz-adv-x="462" 
d="M362 0h-360l6 32l70 63q166 143 240 235t74 180q0 45 -24.5 78t-82.5 33q-67 0 -132 -53l-17 34q31 26 73.5 42.5t81.5 16.5q79 0 114 -44.5t35 -102.5q0 -51 -23 -104t-70 -109t-98 -105.5t-127 -113.5l-49 -41v-2h297z" />
    <glyph glyph-name="three" unicode="3" horiz-adv-x="462" 
d="M21 29l18 35q60 -35 115 -35q89 0 135.5 54t46.5 120t-42 99t-101 33h-37l7 38h39q55 0 113.5 41t58.5 110q0 97 -100 97q-67 0 -116 -39l-17 35q65 44 139 44t108 -39.5t34 -91.5q0 -63 -42.5 -110t-100.5 -64v-2q52 -14 79 -56t27 -94q0 -88 -66 -151.5t-169 -63.5
q-43 0 -78.5 12.5t-50.5 27.5z" />
    <glyph glyph-name="four" unicode="4" horiz-adv-x="462" 
d="M301 0h-43l36 192h-282l7 31l369 427h37l-80 -419h96l-8 -39h-96zM77 231h225l50 263q7 36 20 90l-3 1l-29.5 -44.5t-35.5 -50.5l-227 -257v-2z" />
    <glyph glyph-name="five" unicode="5" horiz-adv-x="462" 
d="M459 650l-8 -41h-218l-64 -204q16 3 34 3q52 0 101 -26q41 -20 61 -59.5t20 -82.5q0 -112 -73.5 -181.5t-172.5 -69.5q-37 0 -71.5 11t-50.5 23l18 36q48 -30 114 -30q79 0 134 59.5t55 138.5q0 141 -155 141q-18 0 -68 -4l88 286h256z" />
    <glyph glyph-name="six" unicode="6" horiz-adv-x="462" 
d="M444 661l-6 -43q-34 0 -63 -7q-89 -20 -163.5 -96.5t-111.5 -191.5h2q30 44 79 72.5t96 28.5q75 0 113.5 -49t38.5 -124q0 -96 -65.5 -179t-160.5 -83q-81 0 -123 55.5t-42 148.5q0 107 49.5 207.5t115.5 157.5q86 78 184 96q26 7 57 7zM208 28h1q70 0 121.5 69t51.5 154
q0 65 -30 99t-87 34q-44 0 -89 -28.5t-76 -78.5q-10 -18 -11 -30q-6 -32 -6 -62q0 -71 32 -114t93 -43z" />
    <glyph glyph-name="seven" unicode="7" horiz-adv-x="462" 
d="M142 650h357l-6 -35l-390 -615h-49l388 608l-2 3h-305z" />
    <glyph glyph-name="eight" unicode="8" horiz-adv-x="462" 
d="M302 661h1q65 0 106 -39.5t41 -100.5q0 -115 -134 -178v-3q100 -54 100 -160q0 -85 -62 -138t-145 -53q-82 0 -131.5 44.5t-49.5 113.5q0 73 45.5 124.5t114.5 78.5v4q-74 52 -74 130q0 73 54.5 125t133.5 52zM208 27h1q70 0 115.5 42t45.5 107q0 55 -31.5 92t-101.5 61
q-67 -17 -114.5 -62.5t-47.5 -115.5q0 -51 34.5 -87.5t98.5 -36.5zM294 623h-1q-57 0 -96 -40t-39 -95q0 -89 108 -126q61 20 99.5 60t38.5 92q0 44 -25 76.5t-85 32.5z" />
    <glyph glyph-name="nine" unicode="9" horiz-adv-x="462" 
d="M62 -11l5 42q29 0 62 6q78 17 144 79q82 74 128 205h-3q-72 -86 -165 -86q-75 0 -111 50t-36 115q0 99 66.5 180t158.5 81q79 0 116.5 -54t37.5 -137q0 -114 -54 -222.5t-116 -164.5q-77 -66 -162 -86q-43 -9 -71 -8zM306 622h-1q-70 0 -121.5 -66t-51.5 -152
q0 -57 28 -93t83 -36q45 0 86 25.5t69 69.5q10 14 13 27q8 38 8 76q0 149 -113 149z" />
    <glyph glyph-name="colon" unicode=":" horiz-adv-x="181" 
d="M133 361h-1q-16 0 -27 13t-11 31q0 20 12 33t30 13t28.5 -13t10.5 -32q0 -18 -11.5 -31.5t-30.5 -13.5zM62 -11h-1q-16 0 -27 13t-11 31q0 20 12 33t30 13t28.5 -12.5t10.5 -31.5t-11.5 -32.5t-30.5 -13.5z" />
    <glyph glyph-name="semicolon" unicode=";" horiz-adv-x="181" 
d="M5 -121l-39 -5q18 34 46.5 101t42.5 111l63 10q-21 -53 -58.5 -123.5t-54.5 -93.5zM139 361h-1q-17 0 -28 13t-11 31q0 20 12 33t30 13t28.5 -13t10.5 -32q0 -18 -11.5 -31.5t-29.5 -13.5z" />
    <glyph glyph-name="less" unicode="&#x3c;" horiz-adv-x="596" 
d="M95 249v34l431 249v-45l-385 -220v-2l385 -220v-45z" />
    <glyph glyph-name="equal" unicode="=" horiz-adv-x="596" 
d="M558 347h-493v38h493v-38zM558 155h-493v38h493v-38z" />
    <glyph glyph-name="greater" unicode="&#x3e;" horiz-adv-x="596" 
d="M534 283v-34l-431 -249v45l385 220v2l-385 220v45z" />
    <glyph glyph-name="question" unicode="?" horiz-adv-x="351" 
d="M169 175h-43q1 9 1 26q7 92 102 193q44 46 67.5 84t23.5 83q0 36 -20 60t-66 24q-50 0 -95 -28l-13 36q57 33 117 33q65 0 95.5 -37t30.5 -81q0 -53 -28 -100t-82 -102q-79 -83 -86 -161q0 -10 -4 -30zM118 -11h-1q-16 0 -27 13t-11 31q0 20 12 33t30 13t28.5 -12.5
t10.5 -31.5t-11.5 -32.5t-30.5 -13.5z" />
    <glyph glyph-name="at" unicode="@" horiz-adv-x="702" 
d="M445 258l25 124q-27 10 -62 10q-76 0 -131 -61t-55 -144q0 -37 20.5 -60.5t57.5 -23.5q49 0 91.5 50.5t53.5 104.5zM488 -28l15 -35q-69 -42 -170 -42q-132 0 -216 85.5t-84 226.5q0 161 99 273.5t259 112.5q128 0 205.5 -81.5t77.5 -207.5q0 -109 -50.5 -173.5
t-118.5 -64.5q-31 0 -52 24t-16 70h-4q-56 -94 -149 -94q-43 0 -74 33.5t-31 88.5q0 96 69.5 168.5t168.5 72.5q54 0 101 -19l-37 -179q-26 -127 33 -127q44 -2 80 53t36 138q0 118 -65.5 189.5t-180.5 71.5q-130 0 -219 -95.5t-89 -250.5q0 -125 72.5 -201t190.5 -76
q87 0 149 39z" />
    <glyph glyph-name="A" unicode="A" horiz-adv-x="537" 
d="M402 237h-257l-124 -237h-47l361 674h44l102 -674h-44zM168 276h227l-34 225q-11 93 -13 119h-3q-39 -85 -56 -117z" />
    <glyph glyph-name="B" unicode="B" horiz-adv-x="480" 
d="M40 4l126 662q67 13 124 13q102 0 149 -53q29 -36 29 -94q0 -61 -44.5 -109.5t-106.5 -63.5v-3q49 -13 82 -52t32 -99q0 -93 -74 -154q-70 -56 -196 -56q-74 0 -121 9zM205 634l-49 -257h70q83 0 139 43t56 114q0 107 -140 107q-56 0 -76 -7zM148 340l-56 -300
q30 -5 76 -5q92 -1 154 41.5t62 132.5q0 62 -44.5 96.5t-109.5 34.5h-82z" />
    <glyph glyph-name="C" unicode="C" horiz-adv-x="538" 
d="M470 62l10 -38q-76 -35 -173 -35q-122 0 -190.5 74.5t-68.5 202.5q0 87 33 172t95 144q109 103 258 103q52 0 92 -11t53 -24l-19 -36q-48 31 -138 31q-125 0 -217 -90q-51 -50 -80.5 -125.5t-29.5 -155.5q0 -51 11 -93t35.5 -77t69 -55t105.5 -20q94 0 154 33z" />
    <glyph glyph-name="D" unicode="D" horiz-adv-x="626" 
d="M40 1l125 665q78 13 156 13q177 0 250 -100q47 -62 47 -166q0 -91 -34.5 -177.5t-98.5 -143.5q-113 -97 -295 -97q-75 0 -150 6zM204 632l-112 -592q38 -5 101 -5q174 0 272 96q51 50 78.5 123.5t27.5 153.5q0 232 -256 232q-71 0 -111 -8z" />
    <glyph glyph-name="E" unicode="E" horiz-adv-x="441" 
d="M404 375l-8 -39h-248l-56 -297h280l-8 -39h-325l128 674h310l-8 -39h-264l-50 -260h249z" />
    <glyph glyph-name="F" unicode="F" horiz-adv-x="437" 
d="M39 0l128 674h310l-8 -39h-264l-52 -270h241l-8 -39h-240l-62 -326h-45z" />
    <glyph glyph-name="G" unicode="G" horiz-adv-x="592" 
d="M554 333l-57 -305q-72 -35 -172 -35q-148 0 -218 91q-58 72 -58 189q0 82 33 165t95 141q112 102 265 102q102 0 147 -32l-17 -38q-55 30 -141 30q-133 0 -232 -99q-48 -48 -75.5 -121t-27.5 -143q0 -113 57.5 -179t183.5 -66q69 0 120 23l45 238h-156l7 39h201z" />
    <glyph glyph-name="H" unicode="H" horiz-adv-x="603" 
d="M167 674h46l-58 -297h351l57 297h45l-129 -674h-45l64 338h-350l-64 -338h-45z" />
    <glyph glyph-name="I" unicode="I" horiz-adv-x="208" 
d="M167 674h46l-129 -674h-45z" />
    <glyph glyph-name="J" unicode="J" horiz-adv-x="342" 
d="M220 203l89 471h45l-90 -475q-21 -111 -68.5 -160.5t-130.5 -49.5q-62 0 -93 18l12 39q32 -16 87 -16q60 0 95.5 39t53.5 134z" />
    <glyph glyph-name="K" unicode="K" horiz-adv-x="469" 
d="M39 0l128 674h46l-66 -344l5 1q9 10 70 74l268 269h57l-290 -289l184 -385h-49l-169 354l-86 -79l-53 -275h-45z" />
    <glyph glyph-name="L" unicode="L" horiz-adv-x="414" 
d="M39 0l128 674h46l-122 -635h280l-8 -39h-324z" />
    <glyph glyph-name="M" unicode="M" horiz-adv-x="754" 
d="M649 0h-45l53 417q15 125 31 206h-3q-60 -124 -99 -194l-239 -429h-33l-66 419q-12 72 -26 204h-2l-22 -95l-26 -111l-107 -417h-45l178 674h52l73 -467q16 -97 19 -141h3q25 55 70 137l261 471h55z" />
    <glyph glyph-name="N" unicode="N" horiz-adv-x="611" 
d="M83 0h-44l128 674h43l195 -458q35 -79 57 -162l2 1q5 77 27 192l81 427h44l-128 -674h-41l-190 450q-43 98 -61 170l-3 -2q-9 -77 -30 -194z" />
    <glyph glyph-name="O" unicode="O" horiz-adv-x="645" 
d="M393 685q66 0 115 -23.5t76.5 -63.5t40 -86.5t12.5 -99.5q0 -90 -32.5 -180.5t-91.5 -149.5q-93 -93 -220 -93q-63 0 -111 23t-76.5 62t-42.5 86t-14 99q0 91 35 184.5t96 153.5q41 41 98 64.5t115 23.5zM386 646q-101 0 -177 -78q-52 -52 -83 -137t-31 -164
q0 -101 49.5 -170t155.5 -69q102 0 179 79q52 51 82 136t30 166q0 34 -4.5 64t-18 63t-35.5 56.5t-59.5 38.5t-87.5 15z" />
    <glyph glyph-name="P" unicode="P" horiz-adv-x="476" 
d="M39 0l127 666q65 13 128 13q109 0 157 -57q34 -43 34 -109q0 -49 -21.5 -93.5t-53.5 -72.5q-73 -66 -197 -66q-44 0 -75 6l-54 -287h-45zM204 632l-58 -304q32 -8 74 -8q98 0 158.5 53.5t60.5 138.5q0 65 -41.5 96.5t-112.5 31.5q-54 0 -81 -8z" />
    <glyph glyph-name="Q" unicode="Q" horiz-adv-x="645" 
d="M562 -36l-19 -42q-172 36 -223 56q-38 11 -46 11q-97 5 -161 77t-64 193q0 90 34 182.5t94 152.5q41 42 99.5 66.5t116.5 24.5q66 0 115 -23.5t76.5 -63.5t40 -86.5t12.5 -99.5q0 -85 -32 -176.5t-89 -149.5q-71 -69 -148 -85v-3q130 -26 194 -34zM386 646
q-99 0 -175 -76q-53 -53 -84.5 -139t-31.5 -165q0 -46 10.5 -86.5t32.5 -75.5t62 -55.5t95 -20.5q106 0 182 76q53 52 83.5 139t30.5 166q0 42 -8 78.5t-28.5 75t-63.5 61t-105 22.5z" />
    <glyph glyph-name="R" unicode="R" horiz-adv-x="486" 
d="M39 0l126 666q63 13 127 13q105 0 151 -55q34 -40 34 -100q0 -69 -49 -124.5t-115 -72.5v-2q73 -22 80 -143q10 -152 18 -182h-47q-7 26 -14 165q-6 146 -115 146h-92l-59 -311h-45zM205 632l-55 -283h84q88 0 142 50.5t54 121.5q0 60 -39.5 90t-107.5 30q-53 0 -78 -9z
" />
    <glyph glyph-name="S" unicode="S" horiz-adv-x="438" 
d="M19 36l19 36q58 -43 133 -43q70 0 120 42.5t50 113.5q0 45 -24 79.5t-79 65.5q-131 72 -131 170q0 81 59.5 133t144.5 52q39 0 74 -11.5t51 -25.5l-19 -35q-53 33 -112 33q-67 0 -110 -41t-43 -94q0 -47 24.5 -78t84.5 -65q64 -35 94.5 -78t30.5 -104q0 -79 -58 -138
t-166 -59q-39 0 -81.5 14t-61.5 33z" />
    <glyph glyph-name="T" unicode="T" horiz-adv-x="441" 
d="M152 0l121 635h-209l8 39h462l-7 -39h-209l-121 -635h-45z" />
    <glyph glyph-name="U" unicode="U" horiz-adv-x="600" 
d="M167 674h46l-78 -407q-8 -40 -8 -87q0 -76 38.5 -113.5t103.5 -37.5q167 0 212 237l78 408h45l-79 -415q-28 -142 -97.5 -206t-166.5 -64q-77 0 -128.5 47t-51.5 142q0 46 9 92z" />
    <glyph glyph-name="V" unicode="V" horiz-adv-x="495" 
d="M214 0h-45l-83 674h45l60 -500q12 -99 11 -119h4q43 97 64 135l254 484h48z" />
    <glyph glyph-name="W" unicode="W" horiz-adv-x="807" 
d="M183 0h-45l-37 674h45l23 -468q2 -45 2 -149h3q21 56 63 143l227 474h46l24 -441q7 -135 6 -176h3q25 72 60 148l222 469h47l-322 -674h-45l-25 449q-7 87 -1 176h-3q-32 -91 -60 -146z" />
    <glyph glyph-name="X" unicode="X" horiz-adv-x="492" 
d="M435 0h-48l-76 187q-26 60 -47 119h-2l-85 -114l-147 -192h-54l270 343l-131 331h48l78 -200q18 -43 36 -96h2l71 95l160 201h55l-269 -330z" />
    <glyph glyph-name="Y" unicode="Y" horiz-adv-x="484" 
d="M212 0h-45l54 283l-129 391h48l79 -247q25 -77 31 -107h2q32 53 74 111l172 243h52l-285 -392z" />
    <glyph glyph-name="Z" unicode="Z" horiz-adv-x="504" 
d="M-16 0l6 32l498 600v3h-350l8 39h410l-6 -32l-498 -600l2 -3h386l-7 -39h-449z" />
    <glyph glyph-name="bracketleft" unicode="[" horiz-adv-x="265" 
d="M191 -111h-159l152 797h159l-7 -36h-117l-138 -725h116z" />
    <glyph glyph-name="backslash" unicode="\" horiz-adv-x="324" 
d="M307 -40h-44l-197 725h44z" />
    <glyph glyph-name="bracketright" unicode="]" horiz-adv-x="265" 
d="M99 686h159l-152 -797h-159l6 36h118l138 725h-117z" />
    <glyph glyph-name="asciicircum" unicode="^" horiz-adv-x="596" 
d="M528 196h-43l-175 408h-2l-175 -408h-43l198 454l42 -1z" />
    <glyph glyph-name="underscore" unicode="_" horiz-adv-x="500" 
d="M-45 -75h500l-10 -50h-500z" />
    <glyph glyph-name="grave" unicode="`" 
d="M160 678h66l61 -138h-33z" />
    <glyph glyph-name="a" unicode="a" horiz-adv-x="503" 
d="M402 0h-43q-1 37 13 142h-2q-76 -153 -201 -153q-61 0 -97 43.5t-36 109.5q0 135 93 242t231 107q60 0 111 -14l-48 -250q-25 -134 -21 -227zM389 277l31 166q-22 9 -69 9q-108 0 -188 -90t-81 -212q0 -122 97 -122q65 0 128 74.5t82 174.5z" />
    <glyph glyph-name="b" unicode="b" horiz-adv-x="503" 
d="M166 710h45l-67 -335l2 -1q70 117 182 117q75 0 110 -51t35 -124q0 -74 -33.5 -147.5t-101.5 -126.5t-152 -53q-57 0 -95.5 27.5t-38.5 89.5q0 20 7 67zM116 234l-12 -59q-7 -30 -7 -65q0 -82 93 -82q71 0 127.5 48t83 112.5t26.5 128.5q0 57 -27 96t-83 39
q-64 0 -122 -61t-79 -157z" />
    <glyph glyph-name="c" unicode="c" horiz-adv-x="416" 
d="M341 60l12 -38q-60 -33 -141 -33q-88 0 -131 52.5t-43 126.5q0 125 81.5 224t201.5 99q32 0 62 -8.5t39 -16.5l-16 -38q-46 22 -92 22q-67 0 -120.5 -42.5t-81 -104.5t-27.5 -128q0 -67 33.5 -106.5t101.5 -39.5q61 0 121 31z" />
    <glyph glyph-name="d" unicode="d" horiz-adv-x="503" 
d="M471 710h45l-111 -579q-15 -83 -19 -131h-41l16 106h-2q-74 -117 -183 -117q-70 0 -105 49.5t-35 121.5q0 132 86.5 231.5t207.5 99.5q61 0 97 -19zM381 237l37 192q-35 23 -93 23q-99 0 -171 -87.5t-72 -200.5q0 -136 106 -136q60 0 118.5 61t74.5 148z" />
    <glyph glyph-name="e" unicode="e" horiz-adv-x="423" 
d="M336 63l13 -35q-59 -39 -145 -39q-85 0 -126 54t-41 134q0 72 32 144t91.5 121t127.5 49q61 0 92.5 -32t31.5 -78q0 -158 -325 -152q-5 -18 -3.5 -56.5t10.5 -61.5q28 -82 116 -82q68 0 126 34zM366 378v1q0 35 -24 54t-62 19q-62 0 -113 -54.5t-73 -130.5
q272 -4 272 111z" />
    <glyph glyph-name="f" unicode="f" horiz-adv-x="255" 
d="M91 0h-45l84 443h-65l8 37h65l5 26q22 121 77 175q43 40 100 40q40 0 60 -13l-14 -37q-17 10 -50 10q-98 0 -129 -178l-4 -23h115l-8 -37h-115z" />
    <glyph glyph-name="g" unicode="g" horiz-adv-x="503" 
d="M8 -173l17 37q54 -35 128 -35q71 0 119.5 45.5t72.5 153.5l20 92h-2q-67 -122 -186 -122q-68 0 -104.5 48.5t-36.5 114.5q0 84 37 159t105.5 123t151.5 48q34 0 75 -10t64 -23l-74 -398q-30 -158 -94 -216q-58 -53 -157 -53q-89 0 -136 36zM384 251l35 180q-42 21 -98 21
q-102 0 -170 -86.5t-69 -194.5q0 -24 4.5 -45t15.5 -42.5t33.5 -34t55.5 -12.5q63 0 120.5 67t72.5 147z" />
    <glyph glyph-name="h" unicode="h" horiz-adv-x="516" 
d="M83 0h-45l135 710h46l-65 -329h2q70 110 184 110q43 0 80.5 -29.5t37.5 -98.5q0 -46 -7 -78l-54 -285h-45l54 287q7 28 7 70t-22.5 68t-68.5 26q-58 0 -117.5 -57.5t-74.5 -139.5z" />
    <glyph glyph-name="i" unicode="i" horiz-adv-x="206" 
d="M83 0h-45l92 480h45zM176 578h-1q-15 0 -24 11.5t-9 28.5q1 17 11.5 28.5t25.5 11.5q17 0 26.5 -11.5t9.5 -28.5q-2 -17 -12 -28.5t-27 -11.5z" />
    <glyph glyph-name="j" unicode="j" horiz-adv-x="197" 
d="M129 480h45l-94 -488q-23 -121 -57 -157q-39 -44 -98 -44q-31 0 -46 5l6 38q13 -5 42 -5q38 0 63.5 31t40.5 108zM171 578h-1q-15 0 -24.5 12t-8.5 28q1 17 11.5 28.5t25.5 11.5q16 0 25.5 -11.5t9.5 -28.5q-1 -17 -11 -28.5t-27 -11.5z" />
    <glyph glyph-name="k" unicode="k" horiz-adv-x="411" 
d="M83 0h-45l136 710h45l-88 -458h2q19 20 46 45l198 183h57l-213 -196l149 -284h-48l-135 257l-66 -56z" />
    <glyph glyph-name="l" unicode="l" horiz-adv-x="206" 
d="M83 0h-45l135 710h46z" />
    <glyph glyph-name="m" unicode="m" horiz-adv-x="794" 
d="M83 0h-45l66 351q11 56 21 129h42l-15 -97h2q71 108 173 108q52 0 80.5 -31t30.5 -86q67 116 183 117q42 0 79 -30t37 -94q0 -40 -7 -81l-55 -286h-45l54 286q7 31 7 65q0 100 -88 100q-54 0 -107 -52.5t-68 -134.5l-49 -264h-45l56 293q7 32 7 61q0 97 -89 97
q-52 0 -107.5 -58t-69.5 -136z" />
    <glyph glyph-name="n" unicode="n" horiz-adv-x="516" 
d="M83 0h-45l66 351q11 56 21 129h42l-15 -103h2q32 53 80.5 83.5t104.5 30.5q19 0 37.5 -5.5t38 -19t32 -42t12.5 -67.5q0 -27 -9 -76l-53 -281h-45l54 285q7 47 7 66q0 100 -92 100q-56 0 -116.5 -58t-76.5 -147z" />
    <glyph glyph-name="o" unicode="o" horiz-adv-x="500" 
d="M292 491q90 0 134 -59t44 -142q0 -68 -29.5 -136t-89.5 -116.5t-135 -48.5q-85 0 -131.5 57.5t-46.5 138.5q0 120 73.5 213t180.5 93zM289 453q-86 0 -145 -80.5t-59 -183.5q0 -70 37.5 -115.5t99.5 -45.5q80 0 140.5 81.5t60.5 181.5q0 26 -6.5 52.5t-21 52t-42 41.5
t-64.5 16z" />
    <glyph glyph-name="p" unicode="p" horiz-adv-x="503" 
d="M37 -198h-46l99 518q18 93 26 160h43l-16 -103h2q35 53 83.5 83.5t100.5 30.5q73 0 108.5 -49.5t35.5 -118.5q0 -130 -84.5 -232t-198.5 -102q-71 0 -113 23h-2zM113 209l-28 -153q39 -28 109 -28q92 0 162 90.5t70 201.5q0 52 -26 92t-84 40q-60 0 -121 -65.5
t-82 -177.5z" />
    <glyph glyph-name="q" unicode="q" horiz-adv-x="503" 
d="M343 -198h-45l57 297h-2q-31 -51 -79.5 -80.5t-98.5 -29.5q-70 0 -104.5 49.5t-34.5 120.5q0 127 86 229.5t206 102.5q87 0 139 -33zM382 242l35 189q-36 21 -95 21q-95 0 -167 -84.5t-72 -203.5q-1 -63 25.5 -99.5t71.5 -36.5q69 0 127.5 65.5t74.5 148.5z" />
    <glyph glyph-name="r" unicode="r" horiz-adv-x="287" 
d="M83 0h-45l62 324q14 81 24 156h41q-15 -104 -16 -108h3q24 53 61 86t82 33q12 0 22 -2l-9 -46q-5 2 -22 2q-47 0 -95 -61.5t-64 -150.5z" />
    <glyph glyph-name="s" unicode="s" horiz-adv-x="346" 
d="M16 20l17 37q40 -28 90 -28q48 0 79 29.5t31 70.5q0 35 -15.5 58.5t-55.5 47.5q-77 46 -77 119q0 57 43 97t108 40q54 0 85 -23l-17 -39q-32 23 -74 23q-43 0 -71.5 -26.5t-28.5 -64.5q0 -32 17 -53.5t53 -43.5q79 -47 79 -123q0 -69 -47 -110.5t-113 -41.5
q-63 0 -103 31z" />
    <glyph glyph-name="t" unicode="t" horiz-adv-x="292" 
d="M164 568l49 18l-20 -106h122l-7 -37h-123l-52 -278q-10 -53 -10 -86q0 -51 48 -51q22 0 39 5l4 -36q-21 -8 -52 -8q-44 0 -65 25.5t-21 61.5q0 39 11 91l53 276h-73l7 37h74z" />
    <glyph glyph-name="u" unicode="u" horiz-adv-x="506" 
d="M428 480h45l-67 -351q-14 -72 -18 -129h-43l15 99h-2q-30 -49 -76.5 -79.5t-95.5 -30.5q-23 0 -43 5.5t-40.5 19.5t-33 44t-12.5 73q0 29 9 76l52 273h45l-52 -274q-9 -45 -9 -75q0 -101 95 -101q54 0 110.5 55t71.5 134z" />
    <glyph glyph-name="v" unicode="v" horiz-adv-x="420" 
d="M55 480h45l54 -313q15 -84 17 -110h2q3 6 10 22t17 36t23 43l178 322h48l-268 -480h-41z" />
    <glyph glyph-name="w" unicode="w" horiz-adv-x="691" 
d="M67 480h43l27 -311q6 -63 6 -115h3q26 61 49 104l173 322h44l42 -318q10 -76 12 -108h2q23 64 41 100l160 326h47l-240 -480h-41l-43 320q-10 70 -9 112h-2l-24 -50t-31 -62l-173 -320h-42z" />
    <glyph glyph-name="x" unicode="x" horiz-adv-x="405" 
d="M72 480h48l58 -125l33 -74h3q29 41 53 70l111 129h53l-203 -234l115 -246h-49l-59 129q-18 37 -37 84h-3q-23 -35 -50 -69l-122 -144h-53l212 247z" />
    <glyph glyph-name="y" unicode="y" horiz-adv-x="406" 
d="M51 480h46l59 -289q18 -88 25 -134h3q22 51 56 121l146 302h48l-186 -377q-82 -168 -153 -240q-65 -67 -131 -83l-13 39q55 20 92 51q60 49 102 128q5 8 3 22z" />
    <glyph glyph-name="z" unicode="z" horiz-adv-x="393" 
d="M-19 0l5 29l282 317q27 31 89 93v4h-272l8 37h326l-7 -32l-279 -314q-43 -48 -88 -93v-3h292l-8 -38h-348z" />
    <glyph glyph-name="braceleft" unicode="{" horiz-adv-x="265" 
d="M34 271l6 34q81 -1 95 79q6 29 8 86.5t7 86.5q24 129 151 129h15l-7 -36h-18q-81 0 -100 -96q-5 -27 -6 -80.5t-6 -80.5q-14 -85 -82 -105v-2q46 -14 46 -68q0 -45 -28 -118q-29 -72 -29 -103q0 -71 67 -72h18l-7 -36h-11q-49 0 -78.5 27t-29.5 73q0 42 28 120
q29 79 29 106q0 9 -1 15t-6.5 17.5t-21 18t-39.5 5.5z" />
    <glyph glyph-name="bar" unicode="|" horiz-adv-x="203" 
d="M100 750h40v-1000h-40v1000z" />
    <glyph glyph-name="braceright" unicode="}" horiz-adv-x="265" 
d="M244 302l-6 -34q-80 2 -94 -78q-6 -30 -8.5 -87t-7.5 -86q-23 -128 -151 -128h-15l7 36h18q81 0 100 95q5 28 6.5 81.5t5.5 79.5q16 86 83 104v2q-46 15 -46 70q0 35 28 115q28 78 28 105q0 70 -67 73h-18l7 36h11q49 0 79 -27t30 -73q0 -48 -29 -123q-28 -71 -28 -104
q0 -9 1 -15.5t6.5 -18t20.5 -17.5t39 -6z" />
    <glyph glyph-name="asciitilde" unicode="~" horiz-adv-x="596" 
d="M111 224h-38q-4 56 27.5 90t78.5 34q52 0 132 -40q86 -43 139 -43q63 0 63 82h37q3 -63 -27.5 -93.5t-76.5 -30.5q-55 0 -136 40q-88 44 -136 44q-27 0 -45 -22t-18 -61z" />
    <glyph glyph-name="uni00A0" unicode="&#xa0;" horiz-adv-x="180" 
 />
    <glyph glyph-name="exclamdown" unicode="&#xa1;" horiz-adv-x="215" 
d="M55 -197h-57l104 493h39zM151 485h1q17 0 28 -13t11 -31q0 -20 -12 -33t-30 -13t-29 12.5t-11 31.5q0 18 12 32t30 14z" />
    <glyph glyph-name="cent" unicode="&#xa2;" horiz-adv-x="462" 
d="M244 -16h-40l21 104q-75 12 -113 68q-32 46 -32 115q0 112 71 200t170 99l19 104h40l-20 -103q25 0 53.5 -9t40.5 -19l-20 -35q-46 26 -103 26q-76 0 -140.5 -77.5t-64.5 -185.5q0 -64 34 -104.5t100 -40.5q55 0 110 25l9 -36q-15 -10 -48.5 -18t-66.5 -8z" />
    <glyph glyph-name="sterling" unicode="&#xa3;" horiz-adv-x="462" 
d="M407 0h-376l6 33q53 27 88.5 76.5t46.5 108.5q4 21 8 95h-88l7 37h84q3 85 11 132q15 85 64 132t126 47q50 0 81 -21l-16 -37q-34 19 -76 19q-56 0 -90.5 -37.5t-45.5 -103.5q-9 -56 -11 -131h156l-7 -37h-150q-4 -61 -10 -92q-20 -108 -109 -178v-3h309z" />
    <glyph glyph-name="currency" unicode="&#xa4;" horiz-adv-x="462" 
d="M252 524h1q73 0 116 -43l66 69l30 -33l-70 -64q36 -46 36 -121q0 -78 -35 -122l69 -67l-31 -32l-65 69q-45 -44 -117 -44q-73 0 -113 40l-62 -65l-32 32l66 63q-38 49 -38 120q0 76 41 127l-69 64l32 33l64 -69q41 43 111 43zM252 487h-1q-62 0 -98 -46.5t-36 -111.5
q0 -78 41.5 -117t93.5 -39q57 0 96.5 38.5t39.5 119.5q0 63 -35 109.5t-101 46.5z" />
    <glyph glyph-name="yen" unicode="&#xa5;" horiz-adv-x="462" 
d="M204 0h-44l35 186h-144l7 35h144l15 79h-144l7 35h127l-101 315h45l72 -234q17 -52 24 -81h4q17 32 53 84l167 231h49l-233 -315h125l-7 -35h-144l-16 -79h145l-7 -35h-144z" />
    <glyph glyph-name="brokenbar" unicode="&#xa6;" horiz-adv-x="203" 
d="M100 174h40v-350h-40v350zM100 674h40v-350h-40v350z" />
    <glyph glyph-name="section" unicode="&#xa7;" horiz-adv-x="468" 
d="M134 359v-1q0 -32 17.5 -55t70.5 -51q56 -29 88 -56q65 43 65 105q0 29 -17 54t-69 53q-49 25 -84 52q-34 -18 -52.5 -45.5t-18.5 -55.5zM439 653l-18 -33q-42 30 -101 30q-45 0 -80 -28t-35 -69q0 -36 23 -57t81 -50q55 -30 81.5 -60t26.5 -74q0 -81 -84 -140
q21 -28 21 -70q0 -73 -51.5 -113t-124.5 -39q-38 0 -73 10.5t-51 24.5l17 36q57 -35 112 -35q56 0 92.5 30t36.5 79q0 32 -21 59t-80 57q-62 31 -91.5 63t-29.5 74q0 77 93 136q-21 27 -21 62q0 60 48 99.5t118 39.5q35 0 65.5 -10t45.5 -22z" />
    <glyph glyph-name="dieresis" unicode="&#xa8;" 
d="M178 580h-1q-15 0 -25 11t-10 27t11 28t27 12t26 -11t10 -27t-10.5 -28t-27.5 -12zM347 580h-1q-16 0 -25 11t-9 27t11 28t26 12q17 0 26.5 -11t9.5 -27t-10.5 -28t-27.5 -12z" />
    <glyph glyph-name="copyright" unicode="&#xa9;" horiz-adv-x="677" 
d="M372 648h1q125 0 210.5 -90t85.5 -218q0 -130 -86 -220t-211 -90q-126 0 -213 90.5t-87 219.5q0 128 87 218t213 90zM372 616h-1q-110 0 -184.5 -80t-74.5 -200q0 -116 74.5 -195t185.5 -79q109 -2 183 78.5t74 199.5q0 117 -74 196.5t-183 79.5zM506 493l-10 -31
q-39 25 -99 25q-74 0 -111.5 -42t-37.5 -108q0 -65 39 -108t112 -43q63 0 103 28l10 -29q-45 -32 -123 -32q-84 0 -133 51t-49 130q0 82 55.5 134t133.5 52t110 -27z" />
    <glyph glyph-name="ordfeminine" unicode="&#xaa;" horiz-adv-x="319" 
d="M299 266h-37q-2 29 5 72l-2 -1q-21 -35 -52.5 -55.5t-65.5 -20.5q-42 0 -66 31.5t-24 81.5q0 87 56.5 152t148.5 65q47 0 82 -13l-38 -210q-7 -43 -7 -102zM280 431l22 118q-21 8 -53 8q-61 0 -106 -50t-46 -128q0 -83 62 -83q39 0 75 40t46 95z" />
    <glyph glyph-name="guillemotleft" unicode="&#xab;" horiz-adv-x="377" 
d="M245 432l-157 -181l105 -179h-46l-108 180l156 180h50zM390 432l-157 -181l106 -179h-46l-108 180l156 180h49z" />
    <glyph glyph-name="logicalnot" unicode="&#xac;" horiz-adv-x="596" 
d="M60 384h493v-255h-41v217h-452v38z" />
    <glyph glyph-name="uni00AD" unicode="&#xad;" horiz-adv-x="298" 
d="M50 296h227l-8 -42h-227z" />
    <glyph glyph-name="registered" unicode="&#xae;" horiz-adv-x="386" 
d="M219 505v-70h-31v167q28 5 58 5q35 0 53 -13q17 -12 17 -35q0 -29 -33 -40v-2q20 -8 28 -40q6 -34 12 -42h-32q-7 8 -13 44q-6 26 -39 26h-20zM219 581v-52h21q43 0 43 27t-40 27q-14 0 -24 -2zM248 682h1q68 0 114.5 -46t46.5 -113q0 -68 -47 -114.5t-115 -46.5
t-115.5 46.5t-47.5 114.5q0 67 47.5 113t115.5 46zM248 654h-1q-54 0 -90.5 -38.5t-36.5 -92.5q0 -56 37 -94t92 -38q53 -1 89 37.5t36 93.5t-36 93.5t-90 38.5z" />
    <glyph glyph-name="macron" unicode="&#xaf;" 
d="M168 636h202l-7 -39h-202z" />
    <glyph glyph-name="degree" unicode="&#xb0;" horiz-adv-x="294" 
d="M219 686h1q52 0 83 -35t31 -81q0 -54 -36.5 -89.5t-82.5 -35.5q-50 0 -82.5 35t-32.5 83q0 51 35.5 87t83.5 36zM217 653h-1q-36 0 -57 -28.5t-21 -60.5q0 -36 22.5 -61t54.5 -25q34 0 57.5 26t23.5 65q0 30 -19.5 57t-59.5 27z" />
    <glyph glyph-name="plusminus" unicode="&#xb1;" horiz-adv-x="596" 
d="M296 567h40v-208h227v-38h-227v-216h-40v216h-227v38h227v208zM69 38h494v-38h-494v38z" />
    <glyph glyph-name="two.superior" unicode="&#xb2;" horiz-adv-x="273" 
d="M287 406h-239l5 28l72 59q90 75 128 119t38 92q0 26 -15.5 44t-51.5 18q-43 0 -82 -32l-15 28q50 39 107 39q50 0 74.5 -28.5t24.5 -68.5q0 -53 -45 -104.5t-134 -122.5l-42 -34v-2h182z" />
    <glyph glyph-name="three.superior" unicode="&#xb3;" horiz-adv-x="263" 
d="M141 739l-11 30q42 32 95 32q49 0 72 -24t23 -59q0 -33 -23.5 -59t-62.5 -40l-1 -2q31 -9 49 -34t18 -57q-1 -55 -41.5 -90t-108.5 -35q-60 0 -93 26l15 31q36 -24 82 -24q50 0 77.5 27t27.5 64q0 38 -28 56.5t-67 18.5h-22l6 32h23q39 0 73.5 23.5t34.5 58.5
q0 53 -63 53q-41 0 -75 -28z" />
    <glyph glyph-name="acute" unicode="&#xb4;" 
d="M317 678h74l-135 -138h-40z" />
    <glyph glyph-name="mu" unicode="&#xb5;" horiz-adv-x="505" 
d="M165 480l-55 -293q-13 -71 10.5 -114t87.5 -43q42 0 82 35t65 82q19 36 27 74l49 259h45l-67 -353q-10 -55 -4 -76t31 -23l-12 -38q-9 -1 -14 -1q-62 0 -48 106h-3q-25 -44 -68 -74.5t-92 -30.5q-39 0 -70 19t-44 56l-14 -78q-25 -135 -20 -185h-41q-9 46 16 179l95 499
h44z" />
    <glyph glyph-name="paragraph" unicode="&#xb6;" horiz-adv-x="468" 
d="M209 -52h-40l61 316h-8q-50 1 -97.5 46.5t-47.5 128.5q0 98 77.5 166.5t216.5 68.5q56 0 89 -7l-138 -719h-40l131 687h-73z" />
    <glyph glyph-name="periodcentered" unicode="&#xb7;" horiz-adv-x="181" 
d="M96 218h-1q-16 0 -27 13t-11 31q0 20 12 33t30 13t28.5 -13t10.5 -32q0 -18 -11.5 -31.5t-30.5 -13.5z" />
    <glyph glyph-name="cedilla" unicode="&#xb8;" 
d="M139 1h38l-43 -56q50 -11 50 -63q0 -35 -27.5 -57.5t-70.5 -22.5q-38 0 -59 15l15 35q22 -14 51 -14q20 0 34 11.5t14 29.5q0 33 -62 41z" />
    <glyph glyph-name="one.superior" unicode="&#xb9;" horiz-adv-x="200" 
d="M172 406h-39l67 350h-2l-68 -33l-5 32l86 41h35z" />
    <glyph glyph-name="ordmasculine" unicode="&#xba;" horiz-adv-x="322" 
d="M220 591h1q65 0 96.5 -38.5t31.5 -94.5q0 -81 -50 -139t-121 -58q-62 0 -94.5 39.5t-32.5 91.5q0 83 51 141t118 58zM216 557h-1q-49 0 -85.5 -47.5t-36.5 -114.5q0 -47 24.5 -73.5t62.5 -26.5q50 0 88 45.5t38 119.5q0 39 -20 68t-70 29z" />
    <glyph glyph-name="guillemotright" unicode="&#xbb;" horiz-adv-x="377" 
d="M166 254l-106 178h46l108 -180l-156 -180h-49zM311 254l-105 178h45l109 -180l-156 -180h-50z" />
    <glyph glyph-name="onequarter" unicode="&#xbc;" horiz-adv-x="705" 
d="M570 0h-40l21 111h-191l4 24l245 260h36l-48 -251h61l-6 -33h-61zM557 144l28 145q4 21 13 56h-2q-34 -45 -39 -51l-140 -149v-1h140zM168 266h-40l67 350h-2l-68 -33l-4 32l86 41h36zM128 -11h-45l486 672h45z" />
    <glyph glyph-name="onehalf" unicode="&#xbd;" horiz-adv-x="705" 
d="M166 266h-40l67 350h-2l-68 -33l-5 32l86 41h36zM111 -11h-45l486 672h45zM613 0h-239l5 28l72 59q89 74 127 118.5t38 92.5q0 26 -15 44t-51 18q-43 0 -82 -32l-15 28q50 39 106 39q50 0 75 -28.5t25 -68.5q0 -53 -45 -104.5t-134 -122.5l-42 -34v-2h182z" />
    <glyph glyph-name="threequarters" unicode="&#xbe;" horiz-adv-x="705" 
d="M163 -11h-45l486 672h45zM131 599l-11 30q42 32 95 32q49 0 72 -24t23 -59q0 -33 -23.5 -59t-62.5 -40v-2q31 -9 48.5 -34t17.5 -57q-2 -55 -41.5 -90t-108.5 -35q-60 0 -92 26l15 31q34 -24 81 -24q50 0 77.5 27t27.5 64q0 38 -28 56.5t-67 18.5h-21l5 32h24
q39 0 73 23.5t34 58.5q0 53 -63 53q-41 0 -75 -28zM581 0h-40l21 111h-191l4 24l245 260h36l-48 -251h61l-6 -33h-61zM568 144l28 145q4 21 13 56h-2q-34 -45 -39 -51l-140 -149v-1h140z" />
    <glyph glyph-name="questiondown" unicode="&#xbf;" horiz-adv-x="351" 
d="M203 299h44q0 -7 -2 -27q-3 -88 -103 -191q-89 -91 -89 -168q0 -36 20.5 -60t66.5 -24q51 0 94 27l14 -38q-57 -31 -114 -31q-69 0 -99 39t-30 87q0 85 108 196q80 83 86 159zM252 485h1q17 0 28 -13t11 -31q0 -20 -12 -33t-30 -13t-29 12.5t-11 31.5q0 18 12 32t30 14z
" />
    <glyph glyph-name="Agrave" unicode="&#xc0;" horiz-adv-x="537" 
d="M402 237h-257l-124 -237h-47l361 674h44l102 -674h-44zM168 276h227l-34 225q-11 93 -13 119h-3q-39 -85 -56 -117zM239 823h70l73 -113h-36z" />
    <glyph glyph-name="Aacute" unicode="&#xc1;" horiz-adv-x="537" 
d="M402 237h-257l-124 -237h-47l361 674h44l102 -674h-44zM168 276h227l-34 225q-11 93 -13 119h-3q-39 -85 -56 -117zM428 823h77l-140 -113h-44z" />
    <glyph glyph-name="Acircumflex" unicode="&#xc2;" horiz-adv-x="537" 
d="M402 237h-257l-124 -237h-47l361 674h44l102 -674h-44zM168 276h227l-34 225q-11 93 -13 119h-3q-39 -85 -56 -117zM354 823h37l80 -113h-47l-55 78h-2l-81 -78h-51z" />
    <glyph glyph-name="Atilde" unicode="&#xc3;" horiz-adv-x="537" 
d="M402 237h-257l-124 -237h-47l361 674h44l102 -674h-44zM168 276h227l-34 225q-11 93 -13 119h-3q-39 -85 -56 -117zM274 716h-32q6 35 25.5 60t45.5 25q28 0 59 -21q28 -17 46 -17q23 0 34 38h32q-16 -80 -72 -80q-24 0 -58 20q-32 19 -44 18q-24 -1 -36 -43z" />
    <glyph glyph-name="Adieresis" unicode="&#xc4;" horiz-adv-x="537" 
d="M402 237h-257l-124 -237h-47l361 674h44l102 -674h-44zM168 276h227l-34 225q-11 93 -13 119h-3q-39 -85 -56 -117zM281 726h-1q-15 0 -25.5 12t-10.5 27t11.5 27.5t27.5 12.5t26 -12t10 -27t-11 -27.5t-27 -12.5zM451 726h-1q-15 0 -25 12t-10 27t11.5 27.5t27.5 12.5
t26 -12t10 -27t-11 -27.5t-28 -12.5z" />
    <glyph glyph-name="Aring" unicode="&#xc5;" horiz-adv-x="537" 
d="M402 237h-257l-124 -237h-47l361 674h44l102 -674h-44zM168 276h227l-34 225q-11 93 -13 119h-3q-39 -85 -56 -117zM367 863h1q38 0 62 -24t24 -60q0 -37 -26.5 -61t-63.5 -24q-38 0 -62.5 23.5t-24.5 57.5q0 37 25.5 62.5t64.5 25.5zM366 836h-1q-21 0 -34.5 -17
t-13.5 -43q0 -22 13 -37.5t34 -15.5q22 0 36 16t14 41q0 24 -13.5 40t-34.5 16z" />
    <glyph glyph-name="AE" unicode="&#xc6;" horiz-adv-x="728" 
d="M-5 0h-48l469 674h317l-8 -39h-248l-31 -261h236l-8 -39h-233l-34 -296h260l-8 -39h-299l30 271h-207zM210 309h186l25 213q8 68 15 117h-4q-29 -48 -71 -111z" />
    <glyph glyph-name="Ccedilla" unicode="&#xc7;" horiz-adv-x="541" 
d="M470 62l10 -38q-68 -31 -151 -34l-35 -44q24 -6 37 -23t13 -39q0 -36 -28.5 -59t-68.5 -23q-36 0 -60 16l15 34q23 -13 48 -13q20 0 34.5 10.5t14.5 28.5q0 35 -61 42l53 70q-115 5 -179 79t-64 197q0 86 33 172t95 145q111 102 259 102q52 0 91.5 -11t52.5 -24l-19 -36
q-48 31 -138 31q-125 0 -217 -90q-51 -49 -80.5 -125t-29.5 -155q0 -51 11 -93.5t35.5 -77.5t68.5 -55t105 -20q95 0 155 33z" />
    <glyph glyph-name="Egrave" unicode="&#xc8;" horiz-adv-x="441" 
d="M404 375l-8 -39h-248l-56 -297h280l-8 -39h-325l128 674h310l-8 -39h-264l-50 -260h249zM226 823h69l74 -113h-37z" />
    <glyph glyph-name="Eacute" unicode="&#xc9;" horiz-adv-x="441" 
d="M404 375l-8 -39h-248l-56 -297h280l-8 -39h-325l128 674h310l-8 -39h-264l-50 -260h249zM399 823h77l-140 -113h-44z" />
    <glyph glyph-name="Ecircumflex" unicode="&#xca;" horiz-adv-x="441" 
d="M404 375l-8 -39h-248l-56 -297h280l-8 -39h-325l128 674h310l-8 -39h-264l-50 -260h249zM326 823h37l80 -113h-47l-55 78h-2l-80 -78h-51z" />
    <glyph glyph-name="Edieresis" unicode="&#xcb;" horiz-adv-x="441" 
d="M404 375l-8 -39h-248l-56 -297h280l-8 -39h-325l128 674h310l-8 -39h-264l-50 -260h249zM253 726h-1q-15 0 -25.5 12t-10.5 27t11.5 27.5t27.5 12.5t26 -12t10 -27t-11 -27.5t-27 -12.5zM423 726h-1q-15 0 -25 12t-10 27t11.5 27.5t27.5 12.5t26 -12t10 -27t-11 -27.5
t-28 -12.5z" />
    <glyph glyph-name="Igrave" unicode="&#xcc;" horiz-adv-x="208" 
d="M167 674h46l-129 -674h-45zM91 823h69l74 -113h-37z" />
    <glyph glyph-name="Iacute" unicode="&#xcd;" horiz-adv-x="208" 
d="M167 674h46l-129 -674h-45zM258 823h77l-140 -113h-44z" />
    <glyph glyph-name="Icircumflex" unicode="&#xce;" horiz-adv-x="208" 
d="M167 674h46l-129 -674h-45zM188 823h37l80 -113h-47l-55 78h-2l-80 -78h-51z" />
    <glyph glyph-name="Idieresis" unicode="&#xcf;" horiz-adv-x="208" 
d="M167 674h46l-129 -674h-45zM121 726h-1q-15 0 -25 12t-10 27t11.5 27.5t26.5 12.5q16 0 26.5 -12t10.5 -27t-11 -27.5t-28 -12.5zM292 726h-1q-15 0 -25.5 12t-10.5 27t11.5 27.5t27.5 12.5t26.5 -12t10.5 -27t-11 -27.5t-28 -12.5z" />
    <glyph glyph-name="Eth" unicode="&#xd0;" horiz-adv-x="629" 
d="M16 336l10 39h87l55 291q88 13 164 13q81 0 144.5 -26.5t97.5 -73.5q47 -62 47 -164q0 -88 -36.5 -176t-102.5 -145q-115 -97 -289 -97q-92 0 -150 7l63 332h-90zM347 375l-8 -39h-188l-56 -294q46 -6 107 -6q159 0 261 97q53 50 82 125t29 154q0 228 -256 228
q-74 0 -110 -6l-49 -259h188z" />
    <glyph glyph-name="Ntilde" unicode="&#xd1;" horiz-adv-x="611" 
d="M83 0h-44l128 674h43l195 -458q35 -79 57 -162l2 1q5 77 27 192l81 427h44l-128 -674h-41l-190 450q-43 98 -61 170l-3 -2q-9 -77 -30 -194zM319 716h-33q6 35 25.5 60t46.5 25q29 0 58 -21q28 -17 46 -17q24 0 35 38h32q-16 -80 -73 -80q-23 0 -57 20q-32 19 -45 18
q-25 -1 -35 -43z" />
    <glyph glyph-name="Ograve" unicode="&#xd2;" horiz-adv-x="645" 
d="M294 -11h-1q-63 0 -111 23t-76.5 62t-42.5 86t-14 99q0 91 35 184.5t96 153.5q41 41 98 64.5t115 23.5q66 0 115 -23.5t76.5 -63.5t40 -86.5t12.5 -99.5q0 -90 -32.5 -180.5t-91.5 -149.5q-93 -93 -219 -93zM299 28h1q102 0 179 79q52 51 82 136t30 166q0 34 -4.5 64
t-18 63t-35.5 56.5t-59.5 38.5t-87.5 15q-101 0 -177 -78q-52 -52 -83 -137t-31 -164q0 -37 6.5 -70.5t21.5 -65t38 -54t58.5 -36t79.5 -13.5zM302 823h70l73 -113h-36z" />
    <glyph glyph-name="Oacute" unicode="&#xd3;" horiz-adv-x="645" 
d="M294 -11h-1q-63 0 -111 23t-76.5 62t-42.5 86t-14 99q0 91 35 184.5t96 153.5q41 41 98 64.5t115 23.5q66 0 115 -23.5t76.5 -63.5t40 -86.5t12.5 -99.5q0 -90 -32.5 -180.5t-91.5 -149.5q-93 -93 -219 -93zM299 28h1q102 0 179 79q52 51 82 136t30 166q0 34 -4.5 64
t-18 63t-35.5 56.5t-59.5 38.5t-87.5 15q-101 0 -177 -78q-52 -52 -83 -137t-31 -164q0 -37 6.5 -70.5t21.5 -65t38 -54t58.5 -36t79.5 -13.5zM481 823h77l-140 -113h-44z" />
    <glyph glyph-name="Ocircumflex" unicode="&#xd4;" horiz-adv-x="645" 
d="M294 -11h-1q-63 0 -111 23t-76.5 62t-42.5 86t-14 99q0 91 35 184.5t96 153.5q41 41 98 64.5t115 23.5q66 0 115 -23.5t76.5 -63.5t40 -86.5t12.5 -99.5q0 -90 -32.5 -180.5t-91.5 -149.5q-93 -93 -219 -93zM299 28h1q102 0 179 79q52 51 82 136t30 166q0 34 -4.5 64
t-18 63t-35.5 56.5t-59.5 38.5t-87.5 15q-101 0 -177 -78q-52 -52 -83 -137t-31 -164q0 -37 6.5 -70.5t21.5 -65t38 -54t58.5 -36t79.5 -13.5zM408 823h37l80 -113h-47l-55 78h-2l-81 -78h-51z" />
    <glyph glyph-name="Otilde" unicode="&#xd5;" horiz-adv-x="645" 
d="M294 -11h-1q-63 0 -111 23t-76.5 62t-42.5 86t-14 99q0 91 35 184.5t96 153.5q41 41 98 64.5t115 23.5q66 0 115 -23.5t76.5 -63.5t40 -86.5t12.5 -99.5q0 -90 -32.5 -180.5t-91.5 -149.5q-93 -93 -219 -93zM299 28h1q102 0 179 79q52 51 82 136t30 166q0 34 -4.5 64
t-18 63t-35.5 56.5t-59.5 38.5t-87.5 15q-101 0 -177 -78q-52 -52 -83 -137t-31 -164q0 -37 6.5 -70.5t21.5 -65t38 -54t58.5 -36t79.5 -13.5zM335 716h-32q6 35 25.5 60t46.5 25t58 -21q28 -17 46 -17q25 0 34 38h32q-14 -80 -72 -80q-25 0 -57 20q-34 19 -45 18
q-24 -1 -36 -43z" />
    <glyph glyph-name="Odieresis" unicode="&#xd6;" horiz-adv-x="645" 
d="M294 -11h-1q-63 0 -111 23t-76.5 62t-42.5 86t-14 99q0 91 35 184.5t96 153.5q41 41 98 64.5t115 23.5q66 0 115 -23.5t76.5 -63.5t40 -86.5t12.5 -99.5q0 -90 -32.5 -180.5t-91.5 -149.5q-93 -93 -219 -93zM299 28h1q102 0 179 79q52 51 82 136t30 166q0 34 -4.5 64
t-18 63t-35.5 56.5t-59.5 38.5t-87.5 15q-101 0 -177 -78q-52 -52 -83 -137t-31 -164q0 -37 6.5 -70.5t21.5 -65t38 -54t58.5 -36t79.5 -13.5zM337 726h-1q-15 0 -25 12t-10 27t11.5 27.5t26.5 12.5q16 0 26.5 -12t10.5 -27t-11 -27.5t-28 -12.5zM508 726h-1q-15 0 -25.5 12
t-10.5 27t11.5 27.5t27.5 12.5t26.5 -12t10.5 -27t-11 -27.5t-28 -12.5z" />
    <glyph glyph-name="multiply" unicode="&#xd7;" horiz-adv-x="596" 
d="M81 496l29 30l212 -236l213 236l30 -29l-216 -234l216 -233l-30 -30l-215 236l-214 -236l-25 31l212 232z" />
    <glyph glyph-name="Oslash" unicode="&#xd8;" horiz-adv-x="645" 
d="M40 -28l-24 24l81 90q-48 72 -48 176q0 88 32 175.5t88 146.5q46 48 105.5 74.5t120.5 26.5q111 0 171 -66l78 83l27 -23l-82 -89q48 -71 48 -173q0 -89 -32 -179.5t-87 -149.5q-44 -47 -103 -73t-120 -26q-111 0 -177 68zM130 123l408 462q-53 61 -151 61
q-93 0 -167.5 -70t-105.5 -179q-44 -156 14 -274h2zM556 549l-407 -460q55 -61 157 -61q83 0 155.5 65.5t105.5 170.5q51 164 -9 285h-2z" />
    <glyph glyph-name="Ugrave" unicode="&#xd9;" horiz-adv-x="600" 
d="M167 674h46l-78 -407q-8 -40 -8 -87q0 -76 38.5 -113.5t103.5 -37.5q167 0 212 237l78 408h45l-79 -415q-28 -142 -97.5 -206t-166.5 -64q-77 0 -128.5 47t-51.5 142q0 46 9 92zM286 823h70l73 -113h-36z" />
    <glyph glyph-name="Uacute" unicode="&#xda;" horiz-adv-x="600" 
d="M167 674h46l-78 -407q-8 -40 -8 -87q0 -76 38.5 -113.5t103.5 -37.5q167 0 212 237l78 408h45l-79 -415q-28 -142 -97.5 -206t-166.5 -64q-77 0 -128.5 47t-51.5 142q0 46 9 92zM442 823h77l-139 -113h-44z" />
    <glyph glyph-name="Ucircumflex" unicode="&#xdb;" horiz-adv-x="600" 
d="M167 674h46l-78 -407q-8 -40 -8 -87q0 -76 38.5 -113.5t103.5 -37.5q167 0 212 237l78 408h45l-79 -415q-28 -142 -97.5 -206t-166.5 -64q-77 0 -128.5 47t-51.5 142q0 46 9 92zM396 823h37l80 -113h-47l-55 78h-2l-80 -78h-51z" />
    <glyph glyph-name="Udieresis" unicode="&#xdc;" horiz-adv-x="600" 
d="M167 674h46l-78 -407q-8 -40 -8 -87q0 -76 38.5 -113.5t103.5 -37.5q167 0 212 237l78 408h45l-79 -415q-28 -142 -97.5 -206t-166.5 -64q-77 0 -128.5 47t-51.5 142q0 46 9 92zM311 726h-1q-15 0 -25 12t-10 27t11.5 27.5t26.5 12.5q16 0 26.5 -12t10.5 -27t-11 -27.5
t-28 -12.5zM482 726h-1q-15 0 -25.5 12t-10.5 27t11.5 27.5t27.5 12.5t26.5 -12t10.5 -27t-11 -27.5t-28 -12.5z" />
    <glyph glyph-name="Yacute" unicode="&#xdd;" horiz-adv-x="484" 
d="M212 0h-45l54 283l-129 391h48l79 -247q25 -77 31 -107h2q32 53 74 111l172 243h52l-285 -392zM392 823h77l-139 -113h-44z" />
    <glyph glyph-name="Thorn" unicode="&#xde;" horiz-adv-x="475" 
d="M39 0l128 674h45l-27 -138q35 9 88 9q103 0 151 -54q35 -41 35 -103q0 -100 -78 -161t-186 -61q-48 0 -79 5l-33 -171h-44zM178 497l-55 -285q34 -7 78 -7q86 0 149 50t63 128q0 63 -40.5 93.5t-109.5 30.5q-55 0 -85 -10z" />
    <glyph glyph-name="germandbls" unicode="&#xdf;" horiz-adv-x="513" 
d="M83 0h-45l89 468q48 253 223 253q65 0 101 -37.5t36 -93.5q0 -31 -12.5 -63t-27.5 -47q-43 -13 -70 -38.5t-27 -61.5q0 -25 9.5 -43.5t32.5 -47.5q55 -68 55 -131q0 -73 -54.5 -121t-132.5 -48q-55 0 -93 23l16 37q38 -21 80 -21q58 0 97.5 35.5t39.5 92.5q0 55 -43 103
q-54 64 -54 110q0 48 31.5 84t81.5 55q25 22 26 81q-1 39 -25 66t-75 27q-63 0 -105.5 -51t-60.5 -147z" />
    <glyph glyph-name="agrave" unicode="&#xe0;" horiz-adv-x="503" 
d="M402 0h-43q-1 37 13 142h-2q-76 -153 -201 -153q-61 0 -97 43.5t-36 109.5q0 135 93 242t231 107q60 0 111 -14l-48 -250q-25 -134 -21 -227zM389 277l31 166q-22 9 -69 9q-108 0 -188 -90t-81 -212q0 -122 97 -122q65 0 128 74.5t82 174.5zM243 678h66l61 -138h-33z" />
    <glyph glyph-name="aacute" unicode="&#xe1;" horiz-adv-x="503" 
d="M402 0h-43q-1 37 13 142h-2q-76 -153 -201 -153q-61 0 -97 43.5t-36 109.5q0 135 93 242t231 107q60 0 111 -14l-48 -250q-25 -134 -21 -227zM389 277l31 166q-22 9 -69 9q-108 0 -188 -90t-81 -212q0 -122 97 -122q65 0 128 74.5t82 174.5zM399 678h74l-135 -138h-40z
" />
    <glyph glyph-name="acircumflex" unicode="&#xe2;" horiz-adv-x="503" 
d="M402 0h-43q-1 37 13 142h-2q-76 -153 -201 -153q-61 0 -97 43.5t-36 109.5q0 135 93 242t231 107q60 0 111 -14l-48 -250q-25 -134 -21 -227zM389 277l31 166q-22 9 -69 9q-108 0 -188 -90t-81 -212q0 -122 97 -122q65 0 128 74.5t82 174.5zM329 678h36l65 -138h-43
l-45 100h-2l-77 -100h-46z" />
    <glyph glyph-name="atilde" unicode="&#xe3;" horiz-adv-x="503" 
d="M402 0h-43q-1 37 13 142h-2q-76 -153 -201 -153q-61 0 -97 43.5t-36 109.5q0 135 93 242t231 107q60 0 111 -14l-48 -250q-25 -134 -21 -227zM389 277l31 166q-22 9 -69 9q-108 0 -188 -90t-81 -212q0 -122 97 -122q65 0 128 74.5t82 174.5zM249 575h-34q4 35 20.5 59
t44.5 24q7 0 13 -1t12.5 -3.5t10.5 -4.5t12.5 -7t12.5 -7q28 -16 41 -16t19 9t9 33h34q-10 -80 -64 -80q-26 0 -57 20q-29 18 -44 18q-23 0 -30 -44z" />
    <glyph glyph-name="adieresis" unicode="&#xe4;" horiz-adv-x="503" 
d="M402 0h-43q-1 37 13 142h-2q-76 -153 -201 -153q-61 0 -97 43.5t-36 109.5q0 135 93 242t231 107q60 0 111 -14l-48 -250q-25 -134 -21 -227zM389 277l31 166q-22 9 -69 9q-108 0 -188 -90t-81 -212q0 -122 97 -122q65 0 128 74.5t82 174.5zM248 580h-1q-16 0 -25.5 11
t-9.5 27t11 28t26 12q16 0 26 -11t10 -27t-10.5 -28t-26.5 -12zM416 580h-1q-15 0 -24.5 11t-9.5 27t11 28t27 12t25.5 -11t9.5 -27t-10 -28t-28 -12z" />
    <glyph glyph-name="aring" unicode="&#xe5;" horiz-adv-x="503" 
d="M402 0h-43q-1 37 13 142h-2q-76 -153 -201 -153q-61 0 -97 43.5t-36 109.5q0 135 93 242t231 107q60 0 111 -14l-48 -250q-25 -134 -21 -227zM389 277l31 166q-22 9 -69 9q-108 0 -188 -90t-81 -212q0 -122 97 -122q65 0 128 74.5t82 174.5zM334 712h1q38 0 62.5 -25.5
t24.5 -64.5q0 -38 -27.5 -64t-63.5 -26q-38 0 -63.5 25t-25.5 62q0 39 26.5 66t65.5 27zM332 682h-1q-22 0 -36.5 -18t-14.5 -44q0 -24 14.5 -41t36.5 -17q23 0 38 18t15 46q0 24 -14.5 40t-37.5 16z" />
    <glyph glyph-name="ae" unicode="&#xe6;" horiz-adv-x="691" 
d="M602 63l14 -34q-58 -40 -146 -40q-61 0 -102 31.5t-53 88.5h-2q-27 -57 -76.5 -88.5t-107.5 -31.5t-89.5 34t-32.5 83q0 90 84 140.5t232 43.5l4 23q9 53 -14.5 96t-86.5 43q-60 0 -119 -37l-14 33q67 43 139 43q60 0 94.5 -30t39.5 -86h2q31 57 83 86.5t107 29.5
q58 0 89.5 -30.5t31.5 -73.5q0 -38 -17.5 -65t-47.5 -41t-70.5 -22t-88 -8.5t-98.5 0.5q-18 -86 3 -144q28 -79 117 -79q65 0 125 35zM304 191l11 60q-43 3 -85 -2t-83.5 -19t-67 -45t-25.5 -75q0 -38 22 -60t60 -22q57 0 105.5 43t62.5 120zM633 385v1q0 27 -21.5 47
t-58.5 20q-68 0 -118 -51.5t-68 -111.5h81t73 5t59 15t39 29t14 46z" />
    <glyph glyph-name="ccedilla" unicode="&#xe7;" horiz-adv-x="416" 
d="M341 60l12 -36q-58 -29 -113 -32l-35 -46q23 -5 36.5 -22t13.5 -41q0 -35 -28 -58t-71 -23q-34 0 -58 16l16 34q20 -13 50 -13q20 0 34.5 11t13.5 30q0 33 -62 40l52 70q-83 3 -123.5 55t-40.5 123q0 125 81 224t202 99q32 0 61.5 -8.5t39.5 -16.5l-16 -38q-46 22 -92 22
q-100 0 -164.5 -86t-64.5 -190q0 -66 33 -105.5t101 -39.5q57 0 122 31z" />
    <glyph glyph-name="egrave" unicode="&#xe8;" horiz-adv-x="423" 
d="M336 63l13 -35q-59 -39 -145 -39q-85 0 -126 54t-41 134q0 72 32 144t91.5 121t127.5 49q61 0 92.5 -32t31.5 -78q0 -158 -325 -152q-5 -18 -3.5 -56.5t10.5 -61.5q28 -82 116 -82q68 0 126 34zM366 378v1q0 35 -24 54t-62 19q-62 0 -113 -54.5t-73 -130.5
q272 -4 272 111zM203 678h66l61 -138h-32z" />
    <glyph glyph-name="eacute" unicode="&#xe9;" horiz-adv-x="423" 
d="M336 63l13 -35q-59 -39 -145 -39q-85 0 -126 54t-41 134q0 72 32 144t91.5 121t127.5 49q61 0 92.5 -32t31.5 -78q0 -158 -325 -152q-5 -18 -3.5 -56.5t10.5 -61.5q28 -82 116 -82q68 0 126 34zM366 378v1q0 35 -24 54t-62 19q-62 0 -113 -54.5t-73 -130.5
q272 -4 272 111zM350 678h73l-134 -138h-41z" />
    <glyph glyph-name="ecircumflex" unicode="&#xea;" horiz-adv-x="423" 
d="M336 63l13 -35q-59 -39 -145 -39q-85 0 -126 54t-41 134q0 72 32 144t91.5 121t127.5 49q61 0 92.5 -32t31.5 -78q0 -158 -325 -152q-5 -18 -3.5 -56.5t10.5 -61.5q28 -82 116 -82q68 0 126 34zM366 378v1q0 35 -24 54t-62 19q-62 0 -113 -54.5t-73 -130.5
q272 -4 272 111zM299 678h36l65 -138h-43l-45 100h-2l-77 -100h-46z" />
    <glyph glyph-name="edieresis" unicode="&#xeb;" horiz-adv-x="423" 
d="M336 63l13 -35q-59 -39 -145 -39q-85 0 -126 54t-41 134q0 72 32 144t91.5 121t127.5 49q61 0 92.5 -32t31.5 -78q0 -158 -325 -152q-5 -18 -3.5 -56.5t10.5 -61.5q28 -82 116 -82q68 0 126 34zM366 378v1q0 35 -24 54t-62 19q-62 0 -113 -54.5t-73 -130.5
q272 -4 272 111zM221 580h-1q-16 0 -25.5 11t-9.5 27t11 28t26 12q16 0 26 -11t10 -27t-10 -28t-27 -12zM389 580h-1q-15 0 -24.5 11t-9.5 27t11 28t27 12t25.5 -11t9.5 -27t-10 -28t-28 -12z" />
    <glyph glyph-name="igrave" unicode="&#xec;" horiz-adv-x="206" 
d="M83 0h-45l92 480h45zM61 678h66l61 -138h-33z" />
    <glyph glyph-name="iacute" unicode="&#xed;" horiz-adv-x="206" 
d="M83 0h-45l92 480h45zM225 678h74l-135 -138h-40z" />
    <glyph glyph-name="icircumflex" unicode="&#xee;" horiz-adv-x="206" 
d="M83 0h-45l92 480h45zM161 678h36l64 -138h-43l-44 100h-2l-77 -100h-46z" />
    <glyph glyph-name="idieresis" unicode="&#xef;" horiz-adv-x="206" 
d="M83 0h-45l92 480h45zM86 580h-1q-16 0 -25.5 11t-9.5 27t11 28t27 12t26 -11t10 -27t-10.5 -28t-27.5 -12zM255 580h-1q-16 0 -25 11t-9 27t11 28t26 12q16 0 25.5 -11t9.5 -27t-10 -28t-27 -12z" />
    <glyph glyph-name="eth" unicode="&#xf0;" horiz-adv-x="491" 
d="M212 28h1q83 0 142 87t60 201q0 51 -20 80q-37 57 -107 57q-88 0 -146 -84t-58 -187q0 -66 33.5 -110t94.5 -44zM173 525l-14 32l131 63q-34 38 -92 69l23 32q46 -25 107 -81l124 59l16 -32l-113 -54q106 -122 106 -273q0 -157 -77.5 -254t-172.5 -97q-46 0 -81 17
t-54.5 45t-28.5 60t-9 67q0 125 74 219t178 94q82 0 121 -63h4q-31 96 -101 166z" />
    <glyph glyph-name="ntilde" unicode="&#xf1;" horiz-adv-x="516" 
d="M83 0h-45l66 351q11 56 21 129h42l-15 -103h2q32 53 80.5 83.5t104.5 30.5q19 0 37.5 -5.5t38 -19t32 -42t12.5 -67.5q0 -27 -9 -76l-53 -281h-45l54 285q7 47 7 66q0 100 -92 100q-56 0 -116.5 -58t-76.5 -147zM242 575h-34q4 35 20.5 59t44.5 24q7 0 13 -1t12.5 -3.5
t10.5 -4.5t12.5 -7t12.5 -7q28 -16 41 -16t19 9t9 33h34q-10 -80 -64 -80q-26 0 -57 20q-29 18 -44 18q-23 0 -30 -44z" />
    <glyph glyph-name="ograve" unicode="&#xf2;" horiz-adv-x="500" 
d="M217 -11h-1q-85 0 -131.5 57.5t-46.5 138.5q0 120 73.5 213t180.5 93q90 0 134 -59t44 -142q0 -68 -29.5 -136t-89.5 -116.5t-134 -48.5zM221 28h1q80 0 140.5 81.5t60.5 181.5q0 26 -6.5 52.5t-21 52t-42 41.5t-64.5 16q-86 0 -145 -80.5t-59 -183.5q0 -70 37.5 -115.5
t98.5 -45.5zM208 678h66l61 -138h-33z" />
    <glyph glyph-name="oacute" unicode="&#xf3;" horiz-adv-x="500" 
d="M217 -11h-1q-85 0 -131.5 57.5t-46.5 138.5q0 120 73.5 213t180.5 93q90 0 134 -59t44 -142q0 -68 -29.5 -136t-89.5 -116.5t-134 -48.5zM221 28h1q80 0 140.5 81.5t60.5 181.5q0 26 -6.5 52.5t-21 52t-42 41.5t-64.5 16q-86 0 -145 -80.5t-59 -183.5q0 -70 37.5 -115.5
t98.5 -45.5zM371 678h73l-135 -138h-40z" />
    <glyph glyph-name="ocircumflex" unicode="&#xf4;" horiz-adv-x="500" 
d="M217 -11h-1q-85 0 -131.5 57.5t-46.5 138.5q0 120 73.5 213t180.5 93q90 0 134 -59t44 -142q0 -68 -29.5 -136t-89.5 -116.5t-134 -48.5zM221 28h1q80 0 140.5 81.5t60.5 181.5q0 26 -6.5 52.5t-21 52t-42 41.5t-64.5 16q-86 0 -145 -80.5t-59 -183.5q0 -70 37.5 -115.5
t98.5 -45.5zM317 678h36l65 -138h-43l-45 100h-2l-77 -100h-46z" />
    <glyph glyph-name="otilde" unicode="&#xf5;" horiz-adv-x="500" 
d="M217 -11h-1q-85 0 -131.5 57.5t-46.5 138.5q0 120 73.5 213t180.5 93q90 0 134 -59t44 -142q0 -68 -29.5 -136t-89.5 -116.5t-134 -48.5zM221 28h1q80 0 140.5 81.5t60.5 181.5q0 26 -6.5 52.5t-21 52t-42 41.5t-64.5 16q-86 0 -145 -80.5t-59 -183.5q0 -70 37.5 -115.5
t98.5 -45.5zM226 575h-33q3 35 20 59t45 24q7 0 12.5 -1t13 -4l10 -4t12.5 -7t12 -7q28 -16 41 -16t19 9t10 33h33q-9 -80 -64 -80q-26 0 -57 20q-29 18 -44 18q-14 0 -20 -10.5t-10 -33.5z" />
    <glyph glyph-name="odieresis" unicode="&#xf6;" horiz-adv-x="500" 
d="M217 -11h-1q-85 0 -131.5 57.5t-46.5 138.5q0 120 73.5 213t180.5 93q90 0 134 -59t44 -142q0 -68 -29.5 -136t-89.5 -116.5t-134 -48.5zM221 28h1q80 0 140.5 81.5t60.5 181.5q0 26 -6.5 52.5t-21 52t-42 41.5t-64.5 16q-86 0 -145 -80.5t-59 -183.5q0 -70 37.5 -115.5
t98.5 -45.5zM241 580h-1q-16 0 -25.5 11t-9.5 27t11 28t27 12t26 -11t10 -27t-10.5 -28t-27.5 -12zM410 580h-1q-16 0 -25 11t-9 27t11 28t26 12q16 0 25.5 -11t9.5 -27t-10 -28t-27 -12z" />
    <glyph glyph-name="divide" unicode="&#xf7;" horiz-adv-x="596" 
d="M310 398h-1q-17 0 -28.5 13t-10.5 31q0 19 11.5 31.5t29.5 12.5t29 -12.5t11 -31.5t-11.5 -31.5t-29.5 -12.5zM557 248h-494v38h494v-38zM310 48h-1q-17 0 -28.5 13t-10.5 31q0 19 11.5 31.5t29.5 12.5t29 -12.5t11 -31.5t-11.5 -31.5t-29.5 -12.5z" />
    <glyph glyph-name="oslash" unicode="&#xf8;" horiz-adv-x="501" 
d="M49 -27l-25 23l54 62q-40 50 -40 135q0 116 73 207t178 91q76 0 119 -40l49 56l27 -22l-53 -60q40 -55 40 -131q0 -119 -75 -212t-173 -93q-76 0 -124 43zM111 95l268 322q-31 36 -94 36q-86 0 -143 -81t-57 -177q0 -61 24 -101zM400 386l-271 -320q35 -38 97 -38
q74 0 136 79.5t62 180.5q0 54 -23 98h-1z" />
    <glyph glyph-name="ugrave" unicode="&#xf9;" horiz-adv-x="506" 
d="M428 480h45l-67 -351q-14 -72 -18 -129h-43l15 99h-2q-30 -49 -76.5 -79.5t-95.5 -30.5q-23 0 -43 5.5t-40.5 19.5t-33 44t-12.5 73q0 29 9 76l52 273h45l-52 -274q-9 -45 -9 -75q0 -101 95 -101q54 0 110.5 55t71.5 134zM205 678h66l61 -138h-32z" />
    <glyph glyph-name="uacute" unicode="&#xfa;" horiz-adv-x="506" 
d="M428 480h45l-67 -351q-14 -72 -18 -129h-43l15 99h-2q-30 -49 -76.5 -79.5t-95.5 -30.5q-23 0 -43 5.5t-40.5 19.5t-33 44t-12.5 73q0 29 9 76l52 273h45l-52 -274q-9 -45 -9 -75q0 -101 95 -101q54 0 110.5 55t71.5 134zM361 678h74l-135 -138h-40z" />
    <glyph glyph-name="ucircumflex" unicode="&#xfb;" horiz-adv-x="506" 
d="M428 480h45l-67 -351q-14 -72 -18 -129h-43l15 99h-2q-30 -49 -76.5 -79.5t-95.5 -30.5q-23 0 -43 5.5t-40.5 19.5t-33 44t-12.5 73q0 29 9 76l52 273h45l-52 -274q-9 -45 -9 -75q0 -101 95 -101q54 0 110.5 55t71.5 134zM318 678h35l65 -138h-43l-44 100h-2l-77 -100
h-46z" />
    <glyph glyph-name="udieresis" unicode="&#xfc;" horiz-adv-x="506" 
d="M428 480h45l-67 -351q-14 -72 -18 -129h-43l15 99h-2q-30 -49 -76.5 -79.5t-95.5 -30.5q-23 0 -43 5.5t-40.5 19.5t-33 44t-12.5 73q0 29 9 76l52 273h45l-52 -274q-9 -45 -9 -75q0 -101 95 -101q54 0 110.5 55t71.5 134zM237 580h-1q-15 0 -25 11t-10 27t11 28t27 12
t26 -11t10 -27t-10.5 -28t-27.5 -12zM406 580h-1q-16 0 -25 11t-9 27t11 28t26 12q17 0 26.5 -11t9.5 -27t-10.5 -28t-27.5 -12z" />
    <glyph glyph-name="yacute" unicode="&#xfd;" horiz-adv-x="406" 
d="M51 480h46l59 -289q18 -88 25 -134h3q22 51 56 121l146 302h48l-186 -377q-82 -168 -153 -240q-65 -67 -131 -83l-13 39q55 20 92 51q60 49 102 128q5 8 3 22zM315 678h73l-134 -138h-41z" />
    <glyph glyph-name="thorn" unicode="&#xfe;" horiz-adv-x="503" 
d="M-9 -198l164 863h46l-57 -288h2q75 114 183 114q72 0 108 -49t36 -120q0 -131 -85.5 -232t-198.5 -101q-71 0 -110 23h-4l-38 -210h-46zM114 213l-30 -157q35 -28 110 -28q92 0 162 90.5t70 199.5q0 54 -25.5 94t-81.5 40q-61 0 -122 -63t-83 -176z" />
    <glyph glyph-name="ydieresis" unicode="&#xff;" horiz-adv-x="406" 
d="M51 480h46l59 -289q18 -88 25 -134h3q22 51 56 121l146 302h48l-186 -377q-82 -168 -153 -240q-65 -67 -131 -83l-13 39q55 20 92 51q60 49 102 128q5 8 3 22zM184 580h-1q-16 0 -25.5 11t-9.5 27t11 28t26 12q17 0 26.5 -11t9.5 -27t-10.5 -28t-26.5 -12zM353 580h-1
q-16 0 -25.5 11t-9.5 27t11 28t27 12t25.5 -11t9.5 -27t-10 -28t-27 -12z" />
    <glyph glyph-name="Amacron" unicode="&#x100;" horiz-adv-x="537" 
d="M402 237h-257l-124 -237h-47l361 674h44l102 -674h-44zM168 276h227l-34 225q-11 93 -13 119h-3q-39 -85 -56 -117zM261 772h217l-7 -39h-217z" />
    <glyph glyph-name="amacron" unicode="&#x101;" horiz-adv-x="503" 
d="M402 0h-43q-1 37 13 142h-2q-76 -153 -201 -153q-61 0 -97 43.5t-36 109.5q0 135 93 242t231 107q60 0 111 -14l-48 -250q-25 -134 -21 -227zM389 277l31 166q-22 9 -69 9q-108 0 -188 -90t-81 -212q0 -122 97 -122q65 0 128 74.5t82 174.5zM232 636h202l-7 -39h-202z
" />
    <glyph glyph-name="Abreve" unicode="&#x102;" horiz-adv-x="537" 
d="M402 237h-257l-124 -237h-47l361 674h44l102 -674h-44zM168 276h227l-34 225q-11 93 -13 119h-3q-39 -85 -56 -117zM269 828h35q0 -56 66 -56t82 56h37q-7 -40 -38 -67.5t-82 -27.5q-56 0 -81 27.5t-19 67.5z" />
    <glyph glyph-name="abreve" unicode="&#x103;" horiz-adv-x="503" 
d="M402 0h-43q-1 37 13 142h-2q-76 -153 -201 -153q-61 0 -97 43.5t-36 109.5q0 135 93 242t231 107q60 0 111 -14l-48 -250q-25 -134 -21 -227zM389 277l31 166q-22 9 -69 9q-108 0 -188 -90t-81 -212q0 -122 97 -122q65 0 128 74.5t82 174.5zM228 678h36
q-3 -31 13.5 -52.5t46.5 -21.5q68 0 89 74h38q-9 -51 -44.5 -82.5t-80.5 -31.5q-60 0 -82.5 34t-15.5 80z" />
    <glyph glyph-name="Aogonek" unicode="&#x104;" horiz-adv-x="537" 
d="M379 674l102 -674h-9q-64 -69 -64 -120q0 -19 10.5 -30t27.5 -11t41 11l9 -28q-22 -20 -65 -20q-32 0 -50.5 19.5t-18.5 50.5q0 10 2.5 20.5t6 20t10 20.5t11.5 18l13 17.5l11.5 15t11.5 13.5l8 9l-34 231h-257l-124 -237h-47l361 674h44zM168 276h227l-34 225
q-11 93 -13 119h-3q-39 -85 -56 -117z" />
    <glyph glyph-name="aogonek" unicode="&#x105;" horiz-adv-x="503" 
d="M471 477l-48 -250q-25 -134 -21 -227h-7q-64 -69 -64 -120q0 -19 10.5 -30t27.5 -11q19 0 41 11l10 -28q-24 -20 -66 -20q-32 0 -50.5 19.5t-18.5 50.5q0 13 4.5 27.5t10.5 26t16 26t16 22l15.5 19t11.5 13.5q0 34 13 136h-2q-76 -153 -201 -153q-61 0 -97 43.5
t-36 109.5q0 135 93 242t231 107q60 0 111 -14zM389 277l31 166q-22 9 -69 9q-108 0 -188 -90t-81 -212q0 -122 97 -122q65 0 128 74.5t82 174.5z" />
    <glyph glyph-name="Cacute" unicode="&#x106;" horiz-adv-x="538" 
d="M470 62l10 -38q-76 -35 -173 -35q-122 0 -190.5 74.5t-68.5 202.5q0 87 33 172t95 144q109 103 258 103q52 0 92 -11t53 -24l-19 -36q-48 31 -138 31q-125 0 -217 -90q-51 -50 -80.5 -125.5t-29.5 -155.5q0 -51 11 -93t35.5 -77t69 -55t105.5 -20q94 0 154 33zM472 827
h77l-140 -112h-44z" />
    <glyph glyph-name="cacute" unicode="&#x107;" horiz-adv-x="416" 
d="M341 60l12 -38q-60 -33 -141 -33q-88 0 -131 52.5t-43 126.5q0 125 81.5 224t201.5 99q32 0 62 -8.5t39 -16.5l-16 -38q-46 22 -92 22q-67 0 -120.5 -42.5t-81 -104.5t-27.5 -128q0 -67 33.5 -106.5t101.5 -39.5q61 0 121 31zM351 678h73l-134 -138h-41z" />
    <glyph glyph-name="Ccircumflex" unicode="&#x108;" horiz-adv-x="538" 
d="M470 62l10 -38q-76 -35 -173 -35q-122 0 -190.5 74.5t-68.5 202.5q0 87 33 172t95 144q109 103 258 103q52 0 92 -11t53 -24l-19 -36q-48 31 -138 31q-125 0 -217 -90q-51 -50 -80.5 -125.5t-29.5 -155.5q0 -51 11 -93t35.5 -77t69 -55t105.5 -20q94 0 154 33zM407 823
h37l80 -113h-47l-55 78h-2l-80 -78h-51z" />
    <glyph glyph-name="ccircumflex" unicode="&#x109;" horiz-adv-x="416" 
d="M341 60l12 -38q-60 -33 -141 -33q-88 0 -131 52.5t-43 126.5q0 125 81.5 224t201.5 99q32 0 62 -8.5t39 -16.5l-16 -38q-46 22 -92 22q-67 0 -120.5 -42.5t-81 -104.5t-27.5 -128q0 -67 33.5 -106.5t101.5 -39.5q61 0 121 31zM296 678h35l65 -138h-43l-44 100h-2
l-77 -100h-47z" />
    <glyph glyph-name="Cdotaccent" unicode="&#x10a;" horiz-adv-x="538" 
d="M470 62l10 -38q-76 -35 -173 -35q-122 0 -190.5 74.5t-68.5 202.5q0 87 33 172t95 144q109 103 258 103q52 0 92 -11t53 -24l-19 -36q-48 31 -138 31q-125 0 -217 -90q-51 -50 -80.5 -125.5t-29.5 -155.5q0 -51 11 -93t35.5 -77t69 -55t105.5 -20q94 0 154 33zM426 726
h-1q-15 0 -25 12t-10 27t11.5 27.5t26.5 12.5q16 0 26.5 -12t10.5 -27t-11 -27.5t-28 -12.5z" />
    <glyph glyph-name="cdotaccent" unicode="&#x10b;" horiz-adv-x="416" 
d="M341 60l12 -38q-60 -33 -141 -33q-88 0 -131 52.5t-43 126.5q0 125 81.5 224t201.5 99q32 0 62 -8.5t39 -16.5l-16 -38q-46 22 -92 22q-67 0 -120.5 -42.5t-81 -104.5t-27.5 -128q0 -67 33.5 -106.5t101.5 -39.5q61 0 121 31zM320 580h-1q-15 0 -24.5 11t-9.5 27t11 28
t27 12t25.5 -11t9.5 -27q0 -17 -10 -28.5t-28 -11.5z" />
    <glyph glyph-name="Ccaron" unicode="&#x10c;" horiz-adv-x="538" 
d="M470 62l10 -38q-76 -35 -173 -35q-122 0 -190.5 74.5t-68.5 202.5q0 87 33 172t95 144q109 103 258 103q52 0 92 -11t53 -24l-19 -36q-48 31 -138 31q-125 0 -217 -90q-51 -50 -80.5 -125.5t-29.5 -155.5q0 -51 11 -93t35.5 -77t69 -55t105.5 -20q94 0 154 33zM429 715
h-37l-80 112h49l52 -77h4l79 77h51z" />
    <glyph glyph-name="ccaron" unicode="&#x10d;" horiz-adv-x="416" 
d="M341 60l12 -38q-60 -33 -141 -33q-88 0 -131 52.5t-43 126.5q0 125 81.5 224t201.5 99q32 0 62 -8.5t39 -16.5l-16 -38q-46 22 -92 22q-67 0 -120.5 -42.5t-81 -104.5t-27.5 -128q0 -67 33.5 -106.5t101.5 -39.5q61 0 121 31zM317 540h-36l-66 138h43l45 -100h3l79 100
h45z" />
    <glyph glyph-name="Dcaron" unicode="&#x10e;" horiz-adv-x="626" 
d="M40 1l125 665q78 13 156 13q177 0 250 -100q47 -62 47 -166q0 -91 -34.5 -177.5t-98.5 -143.5q-113 -97 -295 -97q-75 0 -150 6zM204 632l-112 -592q38 -5 101 -5q174 0 272 96q51 50 78.5 123.5t27.5 153.5q0 232 -256 232q-71 0 -111 -8zM386 710h-37l-80 113h49
l52 -78h3l80 78h51z" />
    <glyph glyph-name="dcaron" unicode="&#x10f;" horiz-adv-x="513" 
d="M471 710h45l-111 -579q-15 -83 -19 -131h-41l16 106h-2q-74 -117 -183 -117q-70 0 -105 49.5t-35 121.5q0 132 86.5 231.5t207.5 99.5q61 0 97 -19zM381 237l37 192q-35 23 -93 23q-99 0 -171 -87.5t-72 -200.5q0 -136 106 -136q60 0 118.5 61t74.5 148zM530 546l-8 26
q59 21 59 76q0 34 -26 54l41 11q11 -7 20 -24t9 -35q0 -46 -28.5 -73.5t-66.5 -34.5z" />
    <glyph glyph-name="Dcroat" unicode="&#x110;" horiz-adv-x="629" 
d="M16 336l10 39h87l55 291q88 13 164 13q81 0 144.5 -26.5t97.5 -73.5q47 -62 47 -164q0 -88 -36.5 -176t-102.5 -145q-115 -97 -289 -97q-92 0 -150 7l63 332h-90zM347 375l-8 -39h-188l-56 -294q46 -6 107 -6q159 0 261 97q53 50 82 125t29 154q0 228 -256 228
q-74 0 -110 -6l-49 -259h188z" />
    <glyph glyph-name="dcroat" unicode="&#x111;" horiz-adv-x="503" 
d="M381 237l37 192q-35 23 -93 23q-99 0 -171 -87.5t-72 -200.5q0 -136 106 -136q60 0 118.5 61t74.5 148zM249 595h201l21 115h45l-23 -115h83l-7 -36h-82l-82 -428q-15 -83 -19 -131h-41l16 106h-2q-74 -117 -183 -117q-70 0 -105 49.5t-35 121.5q0 132 86.5 231.5
t207.5 99.5q61 0 97 -19l16 87h-201z" />
    <glyph glyph-name="Emacron" unicode="&#x112;" horiz-adv-x="441" 
d="M404 375l-8 -39h-248l-56 -297h280l-8 -39h-325l128 674h310l-8 -39h-264l-50 -260h249zM225 772h217l-7 -39h-217z" />
    <glyph glyph-name="emacron" unicode="&#x113;" horiz-adv-x="423" 
d="M336 63l13 -35q-59 -39 -145 -39q-85 0 -126 54t-41 134q0 72 32 144t91.5 121t127.5 49q61 0 92.5 -32t31.5 -78q0 -158 -325 -152q-5 -18 -3.5 -56.5t10.5 -61.5q28 -82 116 -82q68 0 126 34zM366 378v1q0 35 -24 54t-62 19q-62 0 -113 -54.5t-73 -130.5
q272 -4 272 111zM192 636h202l-7 -39h-202z" />
    <glyph glyph-name="Ebreve" unicode="&#x114;" horiz-adv-x="441" 
d="M404 375l-8 -39h-248l-56 -297h280l-8 -39h-325l128 674h310l-8 -39h-264l-50 -260h249zM227 825h35q0 -57 66 -57t82 57h37q-7 -41 -38 -68t-82 -27q-56 0 -81 27t-19 68z" />
    <glyph glyph-name="ebreve" unicode="&#x115;" horiz-adv-x="423" 
d="M336 63l13 -35q-59 -39 -145 -39q-85 0 -126 54t-41 134q0 72 32 144t91.5 121t127.5 49q61 0 92.5 -32t31.5 -78q0 -158 -325 -152q-5 -18 -3.5 -56.5t10.5 -61.5q28 -82 116 -82q68 0 126 34zM366 378v1q0 35 -24 54t-62 19q-62 0 -113 -54.5t-73 -130.5
q272 -4 272 111zM187 678h36q-3 -31 14 -52.5t47 -21.5q36 0 57.5 21.5t30.5 52.5h38q-9 -51 -44.5 -82.5t-80.5 -31.5q-59 0 -82 34t-16 80z" />
    <glyph glyph-name="Edotaccent" unicode="&#x116;" horiz-adv-x="441" 
d="M404 375l-8 -39h-248l-56 -297h280l-8 -39h-325l128 674h310l-8 -39h-264l-50 -260h249zM331 726h-1q-15 0 -25.5 12t-10.5 27t11.5 27.5t27.5 12.5t26 -12t10 -27t-11 -27.5t-27 -12.5z" />
    <glyph glyph-name="edotaccent" unicode="&#x117;" horiz-adv-x="423" 
d="M336 63l13 -35q-59 -39 -145 -39q-85 0 -126 54t-41 134q0 72 32 144t91.5 121t127.5 49q61 0 92.5 -32t31.5 -78q0 -158 -325 -152q-5 -18 -3.5 -56.5t10.5 -61.5q28 -82 116 -82q68 0 126 34zM366 378v1q0 35 -24 54t-62 19q-62 0 -113 -54.5t-73 -130.5
q272 -4 272 111zM301 580h-1q-15 0 -25 11t-10 27t11 28t27 12t25.5 -11t9.5 -27q0 -17 -10 -28.5t-27 -11.5z" />
    <glyph glyph-name="Eogonek" unicode="&#x118;" horiz-adv-x="441" 
d="M39 0l128 674h310l-8 -39h-264l-50 -260h249l-8 -39h-248l-56 -297h280l-8 -39h-15q-38 -24 -66.5 -60t-28.5 -68q0 -34 34 -34q24 0 44 10l10 -30q-30 -18 -67 -18q-30 0 -48.5 18t-18.5 46q0 41 30.5 77t63.5 59h-263z" />
    <glyph glyph-name="eogonek" unicode="&#x119;" horiz-adv-x="423" 
d="M366 378v1q0 35 -24 54t-62 19q-62 0 -113 -54.5t-73 -130.5q272 -4 272 111zM292 -139l5 -31q-29 -14 -64 -14q-31 0 -48.5 18.5t-17.5 47.5q0 31 20.5 60t49.5 49v1q-16 -3 -33 -3q-85 0 -126 54t-41 134q0 72 32 144t91.5 121t127.5 49q61 0 92.5 -32t31.5 -78
q0 -158 -325 -152q-5 -18 -3.5 -56.5t10.5 -61.5q28 -82 116 -82q68 0 126 34l13 -35q-1 -1 -23 -13q-42 -21 -77.5 -53.5t-35.5 -69.5q0 -40 35 -40q25 0 44 9z" />
    <glyph glyph-name="Ecaron" unicode="&#x11a;" horiz-adv-x="441" 
d="M404 375l-8 -39h-248l-56 -297h280l-8 -39h-325l128 674h310l-8 -39h-264l-50 -260h249zM336 710h-37l-80 113h50l51 -78h4l80 78h51z" />
    <glyph glyph-name="ecaron" unicode="&#x11b;" horiz-adv-x="423" 
d="M336 63l13 -35q-59 -39 -145 -39q-85 0 -126 54t-41 134q0 72 32 144t91.5 121t127.5 49q61 0 92.5 -32t31.5 -78q0 -158 -325 -152q-5 -18 -3.5 -56.5t10.5 -61.5q28 -82 116 -82q68 0 126 34zM366 378v1q0 35 -24 54t-62 19q-62 0 -113 -54.5t-73 -130.5
q272 -4 272 111zM292 540h-36l-66 138h43l45 -100h3l79 100h46z" />
    <glyph glyph-name="Gcircumflex" unicode="&#x11c;" horiz-adv-x="592" 
d="M554 333l-57 -305q-72 -35 -172 -35q-148 0 -218 91q-58 72 -58 189q0 82 33 165t95 141q112 102 265 102q102 0 147 -32l-17 -38q-55 30 -141 30q-133 0 -232 -99q-48 -48 -75.5 -121t-27.5 -143q0 -113 57.5 -179t183.5 -66q69 0 120 23l45 238h-156l7 39h201zM420 823
h37l80 -113h-47l-55 78h-2l-81 -78h-51z" />
    <glyph glyph-name="gcircumflex" unicode="&#x11d;" horiz-adv-x="503" 
d="M8 -173l17 37q54 -35 128 -35q71 0 119.5 45.5t72.5 153.5l20 92h-2q-67 -122 -186 -122q-68 0 -104.5 48.5t-36.5 114.5q0 84 37 159t105.5 123t151.5 48q34 0 75 -10t64 -23l-74 -398q-30 -158 -94 -216q-58 -53 -157 -53q-89 0 -136 36zM384 251l35 180q-42 21 -98 21
q-102 0 -170 -86.5t-69 -194.5q0 -24 4.5 -45t15.5 -42.5t33.5 -34t55.5 -12.5q63 0 120.5 67t72.5 147zM319 678h35l65 -138h-43l-44 100h-2l-77 -100h-46z" />
    <glyph glyph-name="Gbreve" unicode="&#x11e;" horiz-adv-x="592" 
d="M554 333l-57 -305q-72 -35 -172 -35q-148 0 -218 91q-58 72 -58 189q0 82 33 165t95 141q112 102 265 102q102 0 147 -32l-17 -38q-55 30 -141 30q-133 0 -232 -99q-48 -48 -75.5 -121t-27.5 -143q0 -113 57.5 -179t183.5 -66q69 0 120 23l45 238h-156l7 39h201zM312 824
h35q0 -57 66 -57t82 57h37q-7 -41 -38 -68t-82 -27q-56 0 -81 27t-19 68z" />
    <glyph glyph-name="gbreve" unicode="&#x11f;" horiz-adv-x="503" 
d="M8 -173l17 37q54 -35 128 -35q71 0 119.5 45.5t72.5 153.5l20 92h-2q-67 -122 -186 -122q-68 0 -104.5 48.5t-36.5 114.5q0 84 37 159t105.5 123t151.5 48q34 0 75 -10t64 -23l-74 -398q-30 -158 -94 -216q-58 -53 -157 -53q-89 0 -136 36zM384 251l35 180q-42 21 -98 21
q-102 0 -170 -86.5t-69 -194.5q0 -24 4.5 -45t15.5 -42.5t33.5 -34t55.5 -12.5q63 0 120.5 67t72.5 147zM228 678h36q-3 -31 13.5 -52.5t46.5 -21.5q68 0 89 74h38q-9 -51 -44.5 -82.5t-80.5 -31.5q-60 0 -82.5 34t-15.5 80z" />
    <glyph glyph-name="Gdotaccent" unicode="&#x120;" horiz-adv-x="592" 
d="M554 333l-57 -305q-72 -35 -172 -35q-148 0 -218 91q-58 72 -58 189q0 82 33 165t95 141q112 102 265 102q102 0 147 -32l-17 -38q-55 30 -141 30q-133 0 -232 -99q-48 -48 -75.5 -121t-27.5 -143q0 -113 57.5 -179t183.5 -66q69 0 120 23l45 238h-156l7 39h201zM430 726
h-1q-15 0 -25 12t-10 27t11.5 27.5t26.5 12.5q16 0 26.5 -12t10.5 -27t-11 -27.5t-28 -12.5z" />
    <glyph glyph-name="gdotaccent" unicode="&#x121;" horiz-adv-x="503" 
d="M8 -173l17 37q54 -35 128 -35q71 0 119.5 45.5t72.5 153.5l20 92h-2q-67 -122 -186 -122q-68 0 -104.5 48.5t-36.5 114.5q0 84 37 159t105.5 123t151.5 48q34 0 75 -10t64 -23l-74 -398q-30 -158 -94 -216q-58 -53 -157 -53q-89 0 -136 36zM384 251l35 180q-42 21 -98 21
q-102 0 -170 -86.5t-69 -194.5q0 -24 4.5 -45t15.5 -42.5t33.5 -34t55.5 -12.5q63 0 120.5 67t72.5 147zM326 580h-1q-15 0 -24.5 11t-9.5 27t11 28t26 12q17 0 26.5 -11t9.5 -27q0 -17 -10.5 -28.5t-27.5 -11.5z" />
    <glyph glyph-name="Gcommaaccent" unicode="&#x122;" horiz-adv-x="592" 
d="M554 333l-57 -305q-72 -35 -172 -35q-148 0 -218 91q-58 72 -58 189q0 82 33 165t95 141q112 102 265 102q102 0 147 -32l-17 -38q-55 30 -141 30q-133 0 -232 -99q-48 -48 -75.5 -121t-27.5 -143q0 -113 57.5 -179t183.5 -66q69 0 120 23l45 238h-156l7 39h201z
M170 -209l-8 26q39 6 66.5 26t27.5 54q0 30 -26 50l41 11q29 -21 29 -57q0 -48 -38.5 -76t-91.5 -34z" />
    <glyph glyph-name="gcommaaccent" unicode="&#x123;" horiz-adv-x="503" 
d="M8 -173l17 37q54 -35 128 -35q71 0 119.5 45.5t72.5 153.5l20 92h-2q-67 -122 -186 -122q-68 0 -104.5 48.5t-36.5 114.5q0 84 37 159t105.5 123t151.5 48q34 0 75 -10t64 -23l-74 -398q-30 -158 -94 -216q-58 -53 -157 -53q-89 0 -136 36zM384 251l35 180q-42 21 -98 21
q-102 0 -170 -86.5t-69 -194.5q0 -24 4.5 -45t15.5 -42.5t33.5 -34t55.5 -12.5q63 0 120.5 67t72.5 147zM405 698l8 -26q-94 -17 -94 -80q0 -30 26 -50l-40 -11q-29 21 -29 56q0 48 38 76t91 35z" />
    <glyph glyph-name="Hcircumflex" unicode="&#x124;" horiz-adv-x="603" 
d="M167 674h46l-58 -297h351l57 297h45l-129 -674h-45l64 338h-350l-64 -338h-45zM395 823h37l80 -113h-47l-55 78h-2l-80 -78h-51z" />
    <glyph glyph-name="hcircumflex" unicode="&#x125;" horiz-adv-x="516" 
d="M83 0h-45l135 710h46l-65 -329h2q70 110 184 110q43 0 80.5 -29.5t37.5 -98.5q0 -46 -7 -78l-54 -285h-45l54 287q7 28 7 70t-22.5 68t-68.5 26q-58 0 -117.5 -57.5t-74.5 -139.5zM193 845h37l80 -112h-47l-55 78h-2l-80 -78h-51z" />
    <glyph glyph-name="Hbar" unicode="&#x126;" horiz-adv-x="603" 
d="M526 485h-350l-22 -114h350zM69 522h69l29 152h46l-30 -152h351l29 152h45l-29 -152h61l-7 -37h-61l-93 -485h-45l63 332h-351l-62 -332h-45l93 485h-70z" />
    <glyph glyph-name="hbar" unicode="&#x127;" horiz-adv-x="516" 
d="M67 596h85l21 114h46l-23 -114h198l-7 -36h-197l-36 -179h2q70 110 184 110q43 0 80.5 -29.5t37.5 -98.5q0 -46 -7 -78l-54 -285h-45l54 287q7 28 7 70t-22.5 68t-68.5 26q-58 0 -117.5 -57.5t-74.5 -139.5l-47 -254h-45l107 560h-85z" />
    <glyph glyph-name="Itilde" unicode="&#x128;" horiz-adv-x="208" 
d="M167 674h46l-129 -674h-45zM119 716h-32q6 35 25.5 60t46.5 25t58 -21q28 -17 46 -17q25 0 34 38h32q-14 -80 -72 -80q-25 0 -57 20q-34 19 -45 18q-24 -1 -36 -43z" />
    <glyph glyph-name="itilde" unicode="&#x129;" horiz-adv-x="206" 
d="M83 0h-45l92 480h45zM97 575h-34q4 35 20.5 59t44.5 24q7 0 13 -1t12.5 -3.5t10.5 -4.5t12.5 -7t12.5 -7q28 -16 41 -16t19 9t9 33h34q-10 -80 -64 -80q-26 0 -57 20q-29 18 -44 18q-23 0 -30 -44z" />
    <glyph glyph-name="Imacron" unicode="&#x12a;" horiz-adv-x="208" 
d="M167 674h46l-129 -674h-45zM101 772h217l-7 -39h-217z" />
    <glyph glyph-name="imacron" unicode="&#x12b;" horiz-adv-x="206" 
d="M83 0h-45l92 480h45zM84 636h202l-7 -39h-202z" />
    <glyph glyph-name="Ibreve" unicode="&#x12c;" horiz-adv-x="208" 
d="M167 674h46l-129 -674h-45zM109 826h35q0 -57 66 -57t82 57h37q-7 -41 -38 -68t-82 -27q-56 0 -81 27t-19 68z" />
    <glyph glyph-name="ibreve" unicode="&#x12d;" horiz-adv-x="206" 
d="M83 0h-45l92 480h45zM80 678h36q-3 -31 13.5 -52.5t46.5 -21.5q36 0 58 22t30 52h39q-10 -51 -45.5 -82.5t-80.5 -31.5q-59 0 -81.5 34t-15.5 80z" />
    <glyph glyph-name="Iogonek" unicode="&#x12e;" horiz-adv-x="208" 
d="M213 674l-129 -674h-8q-64 -69 -64 -120q0 -19 10.5 -30t27.5 -11q19 0 41 11l10 -28q-24 -20 -66 -20q-32 0 -50.5 19.5t-18.5 50.5q0 13 4.5 27.5t10.5 26t16 26t16 22l15.5 19t11.5 13.5l127 668h46z" />
    <glyph glyph-name="iogonek" unicode="&#x12f;" horiz-adv-x="206" 
d="M176 582h-1q-15 0 -24.5 12t-9.5 29q1 17 12 29.5t26 12.5q17 0 26.5 -12t9.5 -30q-1 -17 -11.5 -29t-27.5 -12zM175 480l-92 -480h-7q-65 -70 -65 -120q0 -19 10.5 -30t27.5 -11q19 0 41 11l10 -28q-23 -20 -66 -20q-32 0 -50.5 19.5t-18.5 50.5q0 13 4.5 27.5t10.5 26
t16 26t16 22l15.5 19t11.5 13.5l91 474h45z" />
    <glyph glyph-name="Idotaccent" unicode="&#x130;" horiz-adv-x="208" 
d="M167 674h46l-129 -674h-45zM207 726h-1q-15 0 -25.5 12t-10.5 27t11.5 27.5t27.5 12.5t26 -12t10 -27t-11 -27.5t-27 -12.5z" />
    <glyph glyph-name="dotlessi" unicode="&#x131;" horiz-adv-x="206" 
d="M83 0h-45l92 480h45z" />
    <glyph glyph-name="IJ" unicode="&#x132;" horiz-adv-x="550" 
d="M167 674h46l-129 -674h-45zM428 203l89 471h45l-90 -475q-21 -111 -68.5 -160.5t-130.5 -49.5q-61 0 -93 18l12 39q32 -16 87 -16q60 0 95.5 39t53.5 134z" />
    <glyph glyph-name="ij" unicode="&#x133;" horiz-adv-x="403" 
d="M83 0h-45l92 480h45zM176 578h-1q-15 0 -24 11.5t-9 28.5q1 17 11.5 28.5t25.5 11.5q17 0 26.5 -11.5t9.5 -28.5q-2 -17 -12 -28.5t-27 -11.5zM335 480h45l-93 -488q-23 -119 -58 -157q-39 -44 -97 -44q-31 0 -46 5l6 38q13 -5 42 -5q38 0 63.5 31t39.5 108zM377 578h-1
q-15 0 -24 11.5t-9 28.5q1 17 11.5 28.5t25.5 11.5q17 0 26.5 -11.5t9.5 -28.5q-2 -17 -12 -28.5t-27 -11.5z" />
    <glyph glyph-name="Jcircumflex" unicode="&#x134;" horiz-adv-x="342" 
d="M220 203l89 471h45l-90 -475q-21 -111 -68.5 -160.5t-130.5 -49.5q-62 0 -93 18l12 39q32 -16 87 -16q60 0 95.5 39t53.5 134zM339 823h37l80 -113h-47l-55 78h-2l-80 -78h-51z" />
    <glyph glyph-name="jcircumflex" unicode="&#x135;" horiz-adv-x="197" 
d="M129 480h45l-94 -488q-23 -121 -57 -157q-39 -44 -98 -44q-31 0 -46 5l6 38q13 -5 42 -5q38 0 63.5 31t40.5 108zM165 678h36l64 -138h-43l-44 100h-2l-77 -100h-46z" />
    <glyph glyph-name="Kcommaaccent" unicode="&#x136;" horiz-adv-x="469" 
d="M39 0l128 674h46l-66 -344l5 1q9 10 70 74l268 269h57l-290 -289l184 -385h-49l-169 354l-86 -79l-53 -275h-45zM93 -209l-8 26q39 6 66.5 26t27.5 54q0 30 -26 50l41 11q29 -21 29 -57q0 -48 -38.5 -76t-91.5 -34z" />
    <glyph glyph-name="kcommaaccent" unicode="&#x137;" horiz-adv-x="411" 
d="M83 0h-45l136 710h45l-88 -458h2q19 20 46 45l198 183h57l-213 -196l149 -284h-48l-135 257l-66 -56zM64 -209l-8 26q39 6 66.5 26t27.5 54q0 30 -26 50l41 11q29 -21 29 -57q0 -48 -38.5 -76t-91.5 -34z" />
    <glyph glyph-name="kgreenlandic" unicode="&#x138;" horiz-adv-x="411" 
d="M83 0h-45l92 480h45l-44 -228h2q19 20 46 45l198 183h57l-213 -196l149 -284h-48l-135 257l-66 -56z" />
    <glyph glyph-name="Lacute" unicode="&#x139;" horiz-adv-x="414" 
d="M39 0l128 674h46l-122 -635h280l-8 -39h-324zM288 823h77l-140 -113h-44z" />
    <glyph glyph-name="lacute" unicode="&#x13a;" horiz-adv-x="206" 
d="M83 0h-45l135 710h46zM270 852h77l-140 -112h-44z" />
    <glyph glyph-name="Lcommaaccent" unicode="&#x13b;" horiz-adv-x="414" 
d="M39 0l128 674h46l-122 -635h280l-8 -39h-324zM85 -209l-8 26q39 6 66 26t27 54q0 30 -26 50l41 11q29 -19 29 -57q0 -48 -38 -76t-91 -34z" />
    <glyph glyph-name="lcommaaccent" unicode="&#x13c;" horiz-adv-x="206" 
d="M83 0h-45l135 710h46zM-38 -209l-8 26q39 6 66.5 26t27.5 54q0 30 -26 50l41 11q29 -21 29 -57q0 -48 -38.5 -76t-91.5 -34z" />
    <glyph glyph-name="Lcaron" unicode="&#x13d;" horiz-adv-x="414" 
d="M39 0l128 674h46l-122 -635h280l-8 -39h-324zM261 510l-8 27q39 6 66.5 25.5t27.5 53.5q0 31 -27 50l42 12q29 -21 29 -57q0 -48 -38 -76t-92 -35z" />
    <glyph glyph-name="lcaron" unicode="&#x13e;" horiz-adv-x="214" 
d="M83 0h-45l135 710h46zM231 546l-8 26q59 21 59 76q0 34 -26 54l41 11q11 -7 20 -24t9 -35q0 -46 -28.5 -73.5t-66.5 -34.5z" />
    <glyph glyph-name="Ldot" unicode="&#x13f;" horiz-adv-x="414" 
d="M39 0l128 674h46l-122 -635h280l-8 -39h-324zM306 320h-1q-15 0 -25 12t-10 27q0 16 11.5 28.5t27.5 12.5t26 -12t10 -27q0 -16 -11 -28.5t-28 -12.5z" />
    <glyph glyph-name="ldot" unicode="&#x140;" horiz-adv-x="209" 
d="M83 0h-45l135 710h46zM233 330h-1q-15 0 -24.5 11t-9.5 27t11 28t26 12q17 0 26.5 -11t9.5 -27q0 -17 -10.5 -28.5t-27.5 -11.5z" />
    <glyph glyph-name="Lslash" unicode="&#x141;" horiz-adv-x="417" 
d="M366 0h-324l55 291l-102 -68l9 44l101 68l65 339h45l-58 -305l145 97l-9 -45l-144 -97l-54 -285h279z" />
    <glyph glyph-name="lslash" unicode="&#x142;" horiz-adv-x="212" 
d="M87 0h-45l60 318l-77 -55l8 42l77 56l67 349h45l-59 -312l78 57l-9 -43l-78 -57z" />
    <glyph glyph-name="Nacute" unicode="&#x143;" horiz-adv-x="611" 
d="M83 0h-44l128 674h43l195 -458q35 -79 57 -162l2 1q5 77 27 192l81 427h44l-128 -674h-41l-190 450q-43 98 -61 170l-3 -2q-9 -77 -30 -194zM460 823h77l-140 -113h-44z" />
    <glyph glyph-name="nacute" unicode="&#x144;" horiz-adv-x="516" 
d="M83 0h-45l66 351q11 56 21 129h42l-15 -103h2q32 53 80.5 83.5t104.5 30.5q19 0 37.5 -5.5t38 -19t32 -42t12.5 -67.5q0 -27 -9 -76l-53 -281h-45l54 285q7 47 7 66q0 100 -92 100q-56 0 -116.5 -58t-76.5 -147zM388 678h74l-135 -138h-40z" />
    <glyph glyph-name="Ncommaaccent" unicode="&#x145;" horiz-adv-x="611" 
d="M83 0h-44l128 674h43l195 -458q35 -79 57 -162l2 1q5 77 27 192l81 427h44l-128 -674h-41l-190 450q-43 98 -61 170l-3 -2q-9 -77 -30 -194zM176 -209l-8 26q39 6 66.5 26t27.5 54q0 29 -27 50l42 11q29 -21 29 -57q0 -48 -38.5 -76t-91.5 -34z" />
    <glyph glyph-name="ncommaaccent" unicode="&#x146;" horiz-adv-x="516" 
d="M83 0h-45l66 351q11 56 21 129h42l-15 -103h2q32 53 80.5 83.5t104.5 30.5q19 0 37.5 -5.5t38 -19t32 -42t12.5 -67.5q0 -27 -9 -76l-53 -281h-45l54 285q7 47 7 66q0 100 -92 100q-56 0 -116.5 -58t-76.5 -147zM117 -209l-8 26q39 6 66.5 26t27.5 54q0 30 -26 50l41 11
q29 -21 29 -57q0 -48 -38.5 -76t-91.5 -34z" />
    <glyph glyph-name="Ncaron" unicode="&#x147;" horiz-adv-x="611" 
d="M83 0h-44l128 674h43l195 -458q35 -79 57 -162l2 1q5 77 27 192l81 427h44l-128 -674h-41l-190 450q-43 98 -61 170l-3 -2q-9 -77 -30 -194zM416 710h-37l-80 113h49l52 -78h4l79 78h51z" />
    <glyph glyph-name="ncaron" unicode="&#x148;" horiz-adv-x="516" 
d="M83 0h-45l66 351q11 56 21 129h42l-15 -103h2q32 53 80.5 83.5t104.5 30.5q19 0 37.5 -5.5t38 -19t32 -42t12.5 -67.5q0 -27 -9 -76l-53 -281h-45l54 285q7 47 7 66q0 100 -92 100q-56 0 -116.5 -58t-76.5 -147zM322 540h-36l-66 138h43l45 -100h3l79 100h45z" />
    <glyph glyph-name="napostrophe" unicode="&#x149;" horiz-adv-x="516" 
d="M83 0h-45l66 351q11 56 21 129h42l-15 -103h2q32 53 80.5 83.5t104.5 30.5q19 0 37.5 -5.5t38 -19t32 -42t12.5 -67.5q0 -27 -9 -76l-53 -281h-45l54 285q7 47 7 66q0 100 -92 100q-56 0 -116.5 -58t-76.5 -147zM79 546l-8 26q59 22 59 76q0 33 -27 54l42 11
q11 -7 20 -24t9 -35q0 -46 -28.5 -73.5t-66.5 -34.5z" />
    <glyph glyph-name="Eng" unicode="&#x14a;" horiz-adv-x="611" 
d="M293 -186v37q63 5 99 38.5t54 113.5l-189 447q-43 98 -61 170l-3 -2q-9 -77 -30 -194l-80 -424h-44l128 674h43l195 -458q35 -79 57 -162l2 1q6 87 27 192l81 427h44l-125 -659q-11 -60 -30.5 -100t-46.5 -61t-55 -30t-66 -10z" />
    <glyph glyph-name="eng" unicode="&#x14b;" horiz-adv-x="516" 
d="M199 -168l-5 39q69 12 110 51t60 141l42 222q7 47 7 66q0 100 -92 100q-56 0 -116.5 -58t-76.5 -147l-45 -246h-45l66 351q14 77 21 129h42l-15 -103h2q32 53 80.5 83.5t104.5 30.5q19 0 37.5 -5.5t38 -19t32 -42t12.5 -67.5q0 -27 -9 -76l-44 -230q-20 -107 -72 -157.5
t-135 -61.5z" />
    <glyph glyph-name="Omacron" unicode="&#x14c;" horiz-adv-x="645" 
d="M294 -11h-1q-63 0 -111 23t-76.5 62t-42.5 86t-14 99q0 91 35 184.5t96 153.5q41 41 98 64.5t115 23.5q66 0 115 -23.5t76.5 -63.5t40 -86.5t12.5 -99.5q0 -90 -32.5 -180.5t-91.5 -149.5q-93 -93 -219 -93zM299 28h1q102 0 179 79q52 51 82 136t30 166q0 34 -4.5 64
t-18 63t-35.5 56.5t-59.5 38.5t-87.5 15q-101 0 -177 -78q-52 -52 -83 -137t-31 -164q0 -37 6.5 -70.5t21.5 -65t38 -54t58.5 -36t79.5 -13.5zM320 772h217l-7 -39h-217z" />
    <glyph glyph-name="omacron" unicode="&#x14d;" horiz-adv-x="500" 
d="M217 -11h-1q-85 0 -131.5 57.5t-46.5 138.5q0 120 73.5 213t180.5 93q90 0 134 -59t44 -142q0 -68 -29.5 -136t-89.5 -116.5t-134 -48.5zM221 28h1q80 0 140.5 81.5t60.5 181.5q0 26 -6.5 52.5t-21 52t-42 41.5t-64.5 16q-86 0 -145 -80.5t-59 -183.5q0 -70 37.5 -115.5
t98.5 -45.5zM231 636h202l-7 -39h-202z" />
    <glyph glyph-name="Obreve" unicode="&#x14e;" horiz-adv-x="645" 
d="M294 -11h-1q-63 0 -111 23t-76.5 62t-42.5 86t-14 99q0 91 35 184.5t96 153.5q41 41 98 64.5t115 23.5q66 0 115 -23.5t76.5 -63.5t40 -86.5t12.5 -99.5q0 -90 -32.5 -180.5t-91.5 -149.5q-93 -93 -219 -93zM299 28h1q102 0 179 79q52 51 82 136t30 166q0 34 -4.5 64
t-18 63t-35.5 56.5t-59.5 38.5t-87.5 15q-101 0 -177 -78q-52 -52 -83 -137t-31 -164q0 -37 6.5 -70.5t21.5 -65t38 -54t58.5 -36t79.5 -13.5zM328 828h35q-1 -24 14.5 -40t51.5 -16q65 0 81 56h38q-7 -40 -38.5 -67.5t-81.5 -27.5q-56 0 -81 27.5t-19 67.5z" />
    <glyph glyph-name="obreve" unicode="&#x14f;" horiz-adv-x="500" 
d="M217 -11h-1q-85 0 -131.5 57.5t-46.5 138.5q0 120 73.5 213t180.5 93q90 0 134 -59t44 -142q0 -68 -29.5 -136t-89.5 -116.5t-134 -48.5zM221 28h1q80 0 140.5 81.5t60.5 181.5q0 26 -6.5 52.5t-21 52t-42 41.5t-64.5 16q-86 0 -145 -80.5t-59 -183.5q0 -70 37.5 -115.5
t98.5 -45.5zM220 678h36q-3 -31 14 -52.5t47 -21.5q36 0 57.5 21.5t30.5 52.5h38q-9 -51 -44.5 -82.5t-80.5 -31.5q-59 0 -82 34t-16 80z" />
    <glyph glyph-name="Ohungarumlaut" unicode="&#x150;" horiz-adv-x="645" 
d="M294 -11h-1q-63 0 -111 23t-76.5 62t-42.5 86t-14 99q0 91 35 184.5t96 153.5q41 41 98 64.5t115 23.5q66 0 115 -23.5t76.5 -63.5t40 -86.5t12.5 -99.5q0 -90 -32.5 -180.5t-91.5 -149.5q-93 -93 -219 -93zM299 28h1q102 0 179 79q52 51 82 136t30 166q0 34 -4.5 64
t-18 63t-35.5 56.5t-59.5 38.5t-87.5 15q-101 0 -177 -78q-52 -52 -83 -137t-31 -164q0 -37 6.5 -70.5t21.5 -65t38 -54t58.5 -36t79.5 -13.5zM417 823h67l-131 -110h-39zM543 823h68l-131 -110h-39z" />
    <glyph glyph-name="ohungarumlaut" unicode="&#x151;" horiz-adv-x="500" 
d="M217 -11h-1q-85 0 -131.5 57.5t-46.5 138.5q0 120 73.5 213t180.5 93q90 0 134 -59t44 -142q0 -68 -29.5 -136t-89.5 -116.5t-134 -48.5zM221 28h1q80 0 140.5 81.5t60.5 181.5q0 26 -6.5 52.5t-21 52t-42 41.5t-64.5 16q-86 0 -145 -80.5t-59 -183.5q0 -70 37.5 -115.5
t98.5 -45.5zM303 678h66l-128 -138h-37zM430 678h66l-129 -138h-37z" />
    <glyph glyph-name="OE" unicode="&#x152;" horiz-adv-x="841" 
d="M770 39l-7 -39h-304q-12 0 -37 -1.5t-31 -1.5q-27 -3 -66 -3q-138 0 -207 81.5t-69 202.5q0 75 25 145t73 128.5t128 93.5t180 35q44 0 69 -2q37 -4 68 -4h283l-8 -39h-275l-49 -261h259l-8 -39h-259l-56 -296h291zM435 42l111 591q-35 8 -95 8q-86 0 -155 -30.5
t-112 -81t-65.5 -114t-22.5 -133.5q0 -110 57.5 -179t189.5 -69q49 0 92 8z" />
    <glyph glyph-name="oe" unicode="&#x153;" horiz-adv-x="784" 
d="M697 64l14 -35q-54 -40 -143 -40q-63 0 -105.5 34t-53.5 97h-2q-32 -63 -85 -97t-113 -34q-79 0 -125 57t-46 138q0 77 31 146.5t90.5 115t132.5 45.5q65 0 106.5 -37.5t50.5 -98.5h2q33 65 89.5 100.5t113.5 35.5q64 0 92 -32t28 -73q0 -32 -12 -57t-37 -40.5t-52 -26
t-68 -15.5t-74 -7t-80 -3q-16 -65 6 -128q28 -80 118 -80q68 0 122 35zM218 28h1q55 0 101 43.5t70 105t24 120.5q0 66 -29.5 111t-97.5 45q-87 0 -144.5 -81t-57.5 -183q0 -71 36.5 -116t96.5 -45zM728 383v1q0 31 -22.5 50t-60.5 19q-65 0 -115 -53.5t-72 -125.5
q48 1 79.5 3t71.5 8.5t63 17.5t39.5 31.5t16.5 48.5z" />
    <glyph glyph-name="Racute" unicode="&#x154;" horiz-adv-x="486" 
d="M39 0l126 666q63 13 127 13q105 0 151 -55q34 -40 34 -100q0 -69 -49 -124.5t-115 -72.5v-2q73 -22 80 -143q10 -152 18 -182h-47q-7 26 -14 165q-6 146 -115 146h-92l-59 -311h-45zM205 632l-55 -283h84q88 0 142 50.5t54 121.5q0 60 -39.5 90t-107.5 30q-53 0 -78 -9z
M381 823h77l-139 -113h-44z" />
    <glyph glyph-name="racute" unicode="&#x155;" horiz-adv-x="287" 
d="M83 0h-45l62 324q14 81 24 156h41q-15 -104 -16 -108h3q24 53 61 86t82 33q12 0 22 -2l-9 -46q-5 2 -22 2q-47 0 -95 -61.5t-64 -150.5zM288 678h74l-135 -138h-40z" />
    <glyph glyph-name="Rcommaaccent" unicode="&#x156;" horiz-adv-x="486" 
d="M39 0l126 666q63 13 127 13q105 0 151 -55q34 -40 34 -100q0 -69 -49 -124.5t-115 -72.5v-2q73 -22 80 -143q10 -152 18 -182h-47q-7 26 -14 165q-6 146 -115 146h-92l-59 -311h-45zM205 632l-55 -283h84q88 0 142 50.5t54 121.5q0 60 -39.5 90t-107.5 30q-53 0 -78 -9z
M102 -209l-8 26q39 6 66.5 26t27.5 54q0 30 -26 50l41 11q29 -21 29 -57q0 -48 -38.5 -76t-91.5 -34z" />
    <glyph glyph-name="rcommaaccent" unicode="&#x157;" horiz-adv-x="287" 
d="M83 0h-45l62 324q14 81 24 156h41q-15 -104 -16 -108h3q24 53 61 86t82 33q12 0 22 -2l-9 -46q-5 2 -22 2q-47 0 -95 -61.5t-64 -150.5zM2 -209l-8 26q39 6 66.5 26t27.5 54q0 30 -26 50l41 11q29 -21 29 -57q0 -48 -38.5 -76t-91.5 -34z" />
    <glyph glyph-name="Rcaron" unicode="&#x158;" horiz-adv-x="486" 
d="M39 0l126 666q63 13 127 13q105 0 151 -55q34 -40 34 -100q0 -69 -49 -124.5t-115 -72.5v-2q73 -22 80 -143q10 -152 18 -182h-47q-7 26 -14 165q-6 146 -115 146h-92l-59 -311h-45zM205 632l-55 -283h84q88 0 142 50.5t54 121.5q0 60 -39.5 90t-107.5 30q-53 0 -78 -9z
M323 710h-37l-80 113h49l52 -78h3l80 78h51z" />
    <glyph glyph-name="rcaron" unicode="&#x159;" horiz-adv-x="287" 
d="M83 0h-45l62 324q14 81 24 156h41q-15 -104 -16 -108h3q24 53 61 86t82 33q12 0 22 -2l-9 -46q-5 2 -22 2q-47 0 -95 -61.5t-64 -150.5zM236 540h-35l-67 138h43l45 -100h3l79 100h46z" />
    <glyph glyph-name="Sacute" unicode="&#x15a;" horiz-adv-x="438" 
d="M19 36l19 36q58 -43 133 -43q70 0 120 42.5t50 113.5q0 45 -24 79.5t-79 65.5q-131 72 -131 170q0 81 59.5 133t144.5 52q39 0 74 -11.5t51 -25.5l-19 -35q-53 33 -112 33q-67 0 -110 -41t-43 -94q0 -47 24.5 -78t84.5 -65q64 -35 94.5 -78t30.5 -104q0 -79 -58 -138
t-166 -59q-39 0 -81.5 14t-61.5 33zM374 823h77l-140 -112h-44z" />
    <glyph glyph-name="sacute" unicode="&#x15b;" horiz-adv-x="346" 
d="M16 20l17 37q40 -28 90 -28q48 0 79 29.5t31 70.5q0 35 -15.5 58.5t-55.5 47.5q-77 46 -77 119q0 57 43 97t108 40q54 0 85 -23l-17 -39q-32 23 -74 23q-43 0 -71.5 -26.5t-28.5 -64.5q0 -32 17 -53.5t53 -43.5q79 -47 79 -123q0 -69 -47 -110.5t-113 -41.5
q-63 0 -103 31zM295 678h74l-135 -138h-40z" />
    <glyph glyph-name="Scircumflex" unicode="&#x15c;" horiz-adv-x="438" 
d="M19 36l19 36q58 -43 133 -43q70 0 120 42.5t50 113.5q0 45 -24 79.5t-79 65.5q-131 72 -131 170q0 81 59.5 133t144.5 52q39 0 74 -11.5t51 -25.5l-19 -35q-53 33 -112 33q-67 0 -110 -41t-43 -94q0 -47 24.5 -78t84.5 -65q64 -35 94.5 -78t30.5 -104q0 -79 -58 -138
t-166 -59q-39 0 -81.5 14t-61.5 33zM313 823h37l80 -113h-47l-55 78h-2l-81 -78h-51z" />
    <glyph glyph-name="scircumflex" unicode="&#x15d;" horiz-adv-x="346" 
d="M16 20l17 37q40 -28 90 -28q48 0 79 29.5t31 70.5q0 35 -15.5 58.5t-55.5 47.5q-77 46 -77 119q0 57 43 97t108 40q54 0 85 -23l-17 -39q-32 23 -74 23q-43 0 -71.5 -26.5t-28.5 -64.5q0 -32 17 -53.5t53 -43.5q79 -47 79 -123q0 -69 -47 -110.5t-113 -41.5
q-63 0 -103 31zM237 678h36l65 -138h-43l-45 100h-2l-77 -100h-46z" />
    <glyph glyph-name="Scedilla" unicode="&#x15e;" horiz-adv-x="438" 
d="M436 648l-19 -35q-53 33 -112 33q-67 0 -110 -41t-43 -94q0 -47 24.5 -78t84.5 -65q64 -35 94.5 -78t30.5 -104q0 -66 -42.5 -120.5t-121.5 -70.5l-38 -50q50 -11 50 -63q0 -35 -27.5 -57.5t-70.5 -22.5q-38 0 -59 15l15 35q22 -14 51 -14q20 0 34 11.5t14 29.5
q0 33 -62 41l52 70q-3 0 -9.5 -0.5t-9.5 -0.5q-39 0 -81.5 14t-61.5 33l19 36q58 -43 133 -43q70 0 120 42.5t50 113.5q0 45 -24 79.5t-79 65.5q-131 72 -131 170q0 81 59.5 133t144.5 52q39 0 74 -11.5t51 -25.5z" />
    <glyph glyph-name="scedilla" unicode="&#x15f;" horiz-adv-x="346" 
d="M321 468l-17 -39q-32 23 -74 23q-43 0 -71.5 -26.5t-28.5 -64.5q0 -32 17 -53.5t53 -43.5q79 -47 79 -123q0 -56 -32 -94.5t-82 -51.5l-38 -50q50 -11 50 -63q0 -35 -27.5 -57.5t-70.5 -22.5q-37 0 -59 15l16 35q22 -14 50 -14q20 0 34.5 11.5t14.5 29.5q0 32 -63 41
l52 69h-5q-63 0 -103 31l17 37q40 -28 90 -28q48 0 79 29.5t31 70.5q0 35 -15.5 58.5t-55.5 47.5q-77 46 -77 119q0 57 43 97t108 40q54 0 85 -23z" />
    <glyph glyph-name="Scaron" unicode="&#x160;" horiz-adv-x="438" 
d="M19 36l19 36q58 -43 133 -43q70 0 120 42.5t50 113.5q0 45 -24 79.5t-79 65.5q-131 72 -131 170q0 81 59.5 133t144.5 52q39 0 74 -11.5t51 -25.5l-19 -35q-53 33 -112 33q-67 0 -110 -41t-43 -94q0 -47 24.5 -78t84.5 -65q64 -35 94.5 -78t30.5 -104q0 -79 -58 -138
t-166 -59q-39 0 -81.5 14t-61.5 33zM323 710h-37l-80 113h49l52 -78h3l80 78h51z" />
    <glyph glyph-name="scaron" unicode="&#x161;" horiz-adv-x="346" 
d="M16 20l17 37q40 -28 90 -28q48 0 79 29.5t31 70.5q0 35 -15.5 58.5t-55.5 47.5q-77 46 -77 119q0 57 43 97t108 40q54 0 85 -23l-17 -39q-32 23 -74 23q-43 0 -71.5 -26.5t-28.5 -64.5q0 -32 17 -53.5t53 -43.5q79 -47 79 -123q0 -69 -47 -110.5t-113 -41.5
q-63 0 -103 31zM250 540h-35l-67 138h43l45 -100h3l79 100h46z" />
    <glyph glyph-name="Tcommaaccent" unicode="&#x162;" horiz-adv-x="441" 
d="M152 0l121 635h-209l8 39h462l-7 -39h-209l-121 -635h-45zM78 -209l-8 26q39 6 66.5 26t27.5 54q0 29 -27 50l42 11q29 -21 29 -57q0 -48 -38.5 -76t-91.5 -34z" />
    <glyph glyph-name="tcommaaccent" unicode="&#x163;" horiz-adv-x="292" 
d="M164 568l49 18l-20 -106h122l-7 -37h-123l-52 -278q-10 -53 -10 -86q0 -51 48 -51q22 0 39 5l4 -36q-21 -8 -52 -8q-44 0 -65 25.5t-21 61.5q0 39 11 91l53 276h-73l7 37h74zM15 -209l-8 26q39 6 66 26t27 54q0 30 -26 50l41 11q29 -19 29 -57q0 -48 -38 -76t-91 -34z
" />
    <glyph glyph-name="Tcaron" unicode="&#x164;" horiz-adv-x="441" 
d="M152 0l121 635h-209l8 39h462l-7 -39h-209l-121 -635h-45zM328 710h-37l-80 113h49l52 -78h4l79 78h51z" />
    <glyph glyph-name="tcaron" unicode="&#x165;" horiz-adv-x="292" 
d="M164 568l49 18l-20 -106h122l-7 -37h-123l-52 -278q-10 -53 -10 -86q0 -51 48 -51q22 0 39 5l4 -36q-21 -8 -52 -8q-44 0 -65 25.5t-21 61.5q0 39 11 91l53 276h-73l7 37h74zM283 546l-8 26q58 21 58 76q0 34 -26 54l41 11q12 -7 20.5 -24t8.5 -35q0 -46 -28.5 -73.5
t-65.5 -34.5z" />
    <glyph glyph-name="Tbar" unicode="&#x166;" horiz-adv-x="441" 
d="M399 340h-137l-65 -340h-45l65 340h-131l8 38h130l49 257h-209l8 39h462l-7 -39h-209l-49 -257h138z" />
    <glyph glyph-name="tbar" unicode="&#x167;" horiz-adv-x="292" 
d="M47 299h65l28 144h-73l7 37h74l16 88l49 18l-20 -106h122l-7 -37h-123l-27 -144h93l-7 -37h-93l-18 -97q-10 -53 -10 -86q0 -51 48 -51q22 0 39 5l4 -36q-21 -8 -52 -8q-44 0 -65 25.5t-21 61.5q0 39 11 91l18 95h-65z" />
    <glyph glyph-name="Utilde" unicode="&#x168;" horiz-adv-x="600" 
d="M167 674h46l-78 -407q-8 -40 -8 -87q0 -76 38.5 -113.5t103.5 -37.5q167 0 212 237l78 408h45l-79 -415q-28 -142 -97.5 -206t-166.5 -64q-77 0 -128.5 47t-51.5 142q0 46 9 92zM315 716h-32q6 35 25.5 60t45.5 25q28 0 59 -21q28 -17 46 -17q23 0 34 38h32
q-16 -80 -72 -80q-24 0 -58 20q-32 19 -44 18q-24 -1 -36 -43z" />
    <glyph glyph-name="utilde" unicode="&#x169;" horiz-adv-x="506" 
d="M428 480h45l-67 -351q-14 -72 -18 -129h-43l15 99h-2q-30 -49 -76.5 -79.5t-95.5 -30.5q-23 0 -43 5.5t-40.5 19.5t-33 44t-12.5 73q0 29 9 76l52 273h45l-52 -274q-9 -45 -9 -75q0 -101 95 -101q54 0 110.5 55t71.5 134zM247 575h-34q3 35 20 59t45 24q7 0 13 -1
t12.5 -3.5t10.5 -4.5t12.5 -7t12.5 -7q28 -16 41 -16q12 0 18.5 9t9.5 33h33q-9 -80 -63 -80q-28 0 -57 20q-29 18 -44 18q-14 0 -20.5 -10.5t-9.5 -33.5z" />
    <glyph glyph-name="Umacron" unicode="&#x16a;" horiz-adv-x="600" 
d="M167 674h46l-78 -407q-8 -40 -8 -87q0 -76 38.5 -113.5t103.5 -37.5q167 0 212 237l78 408h45l-79 -415q-28 -142 -97.5 -206t-166.5 -64q-77 0 -128.5 47t-51.5 142q0 46 9 92zM295 772h217l-7 -39h-217z" />
    <glyph glyph-name="umacron" unicode="&#x16b;" horiz-adv-x="506" 
d="M428 480h45l-67 -351q-14 -72 -18 -129h-43l15 99h-2q-30 -49 -76.5 -79.5t-95.5 -30.5q-23 0 -43 5.5t-40.5 19.5t-33 44t-12.5 73q0 29 9 76l52 273h45l-52 -274q-9 -45 -9 -75q0 -101 95 -101q54 0 110.5 55t71.5 134zM222 636h202l-6 -39h-202z" />
    <glyph glyph-name="Ubreve" unicode="&#x16c;" horiz-adv-x="600" 
d="M167 674h46l-78 -407q-8 -40 -8 -87q0 -76 38.5 -113.5t103.5 -37.5q167 0 212 237l78 408h45l-79 -415q-28 -142 -97.5 -206t-166.5 -64q-77 0 -128.5 47t-51.5 142q0 46 9 92zM302 826h36q-1 -25 14.5 -41t50.5 -16q66 0 82 57h37q-6 -40 -37.5 -67.5t-81.5 -27.5
q-56 0 -81 27t-20 68z" />
    <glyph glyph-name="ubreve" unicode="&#x16d;" horiz-adv-x="506" 
d="M428 480h45l-67 -351q-14 -72 -18 -129h-43l15 99h-2q-30 -49 -76.5 -79.5t-95.5 -30.5q-23 0 -43 5.5t-40.5 19.5t-33 44t-12.5 73q0 29 9 76l52 273h45l-52 -274q-9 -45 -9 -75q0 -101 95 -101q54 0 110.5 55t71.5 134zM208 678h36q-3 -31 13.5 -52.5t46.5 -21.5
q68 0 89 74h38q-9 -51 -44.5 -82.5t-80.5 -31.5q-60 0 -82.5 34t-15.5 80z" />
    <glyph glyph-name="Uring" unicode="&#x16e;" horiz-adv-x="600" 
d="M167 674h46l-78 -407q-8 -40 -8 -87q0 -76 38.5 -113.5t103.5 -37.5q167 0 212 237l78 408h45l-79 -415q-28 -142 -97.5 -206t-166.5 -64q-77 0 -128.5 47t-51.5 142q0 46 9 92zM398 863h1q38 0 62 -24t24 -60q0 -37 -26.5 -61t-63.5 -24q-38 0 -62.5 23.5t-24.5 57.5
q0 37 25.5 62.5t64.5 25.5zM397 836h-1q-21 0 -34.5 -17t-13.5 -43q0 -22 13 -37.5t34 -15.5q22 0 36 16t14 41q0 24 -13.5 40t-34.5 16z" />
    <glyph glyph-name="uring" unicode="&#x16f;" horiz-adv-x="506" 
d="M428 480h45l-67 -351q-14 -72 -18 -129h-43l15 99h-2q-30 -49 -76.5 -79.5t-95.5 -30.5q-23 0 -43 5.5t-40.5 19.5t-33 44t-12.5 73q0 29 9 76l52 273h45l-52 -274q-9 -45 -9 -75q0 -101 95 -101q54 0 110.5 55t71.5 134zM331 712h1q38 0 63 -25.5t25 -64.5
q0 -38 -28 -64t-63 -26q-39 0 -64.5 25t-25.5 62q0 39 27 66t65 27zM330 682h-1q-22 0 -37 -18t-15 -44q0 -24 15 -41t36 -17q23 0 38 18t15 46q0 24 -14 40t-37 16z" />
    <glyph glyph-name="Uhungarumlaut" unicode="&#x170;" horiz-adv-x="600" 
d="M167 674h46l-78 -407q-8 -40 -8 -87q0 -76 38.5 -113.5t103.5 -37.5q167 0 212 237l78 408h45l-79 -415q-28 -142 -97.5 -206t-166.5 -64q-77 0 -128.5 47t-51.5 142q0 46 9 92zM397 823h68l-131 -110h-39zM524 823h67l-131 -110h-39z" />
    <glyph glyph-name="uhungarumlaut" unicode="&#x171;" horiz-adv-x="506" 
d="M428 480h45l-67 -351q-14 -72 -18 -129h-43l15 99h-2q-30 -49 -76.5 -79.5t-95.5 -30.5q-23 0 -43 5.5t-40.5 19.5t-33 44t-12.5 73q0 29 9 76l52 273h45l-52 -274q-9 -45 -9 -75q0 -101 95 -101q54 0 110.5 55t71.5 134zM308 678h66l-129 -138h-36zM434 678h66
l-128 -138h-37z" />
    <glyph glyph-name="Uogonek" unicode="&#x172;" horiz-adv-x="600" 
d="M355 -132l5 -31q-25 -14 -58 -14q-34 0 -53 17t-19 47q0 47 60 103q-4 0 -14 -0.5t-15 -0.5q-77 0 -128.5 47t-51.5 142q0 46 9 92l77 404h46l-78 -407q-8 -40 -8 -87q0 -76 38.5 -113.5t103.5 -37.5q167 0 212 237l78 408h45l-79 -415q-35 -178 -142 -239
q-48 -29 -67 -47q-40 -37 -40 -76q0 -37 37 -37q22 0 42 8z" />
    <glyph glyph-name="uogonek" unicode="&#x173;" horiz-adv-x="506" 
d="M473 480l-67 -351q-14 -72 -18 -129l-4 5q-65 -70 -65 -120q0 -19 10.5 -29.5t28.5 -10.5q20 0 41 11l9 -29q-23 -20 -66 -20q-32 0 -50 19.5t-18 50.5q0 9 2 18t5.5 18.5t7.5 17.5t10 17.5t10.5 16t11.5 15t10 12.5t9 11t7 8l13 88h-2q-30 -49 -76.5 -79.5t-95.5 -30.5
q-23 0 -43 5.5t-40.5 19.5t-33 44t-12.5 73q0 29 9 76l52 273h45l-52 -274q-9 -45 -9 -75q0 -101 95 -101q54 0 110.5 55t71.5 134l49 261h45z" />
    <glyph glyph-name="Wcircumflex" unicode="&#x174;" horiz-adv-x="807" 
d="M183 0h-45l-37 674h45l23 -468q2 -45 2 -149h3q21 56 63 143l227 474h46l24 -441q7 -135 6 -176h3q25 72 60 148l222 469h47l-322 -674h-45l-25 449q-7 87 -1 176h-3q-32 -91 -60 -146zM495 823h37l80 -113h-47l-55 78h-2l-80 -78h-51z" />
    <glyph glyph-name="wcircumflex" unicode="&#x175;" horiz-adv-x="691" 
d="M67 480h43l27 -311q6 -63 6 -115h3q26 61 49 104l173 322h44l42 -318q10 -76 12 -108h2q23 64 41 100l160 326h47l-240 -480h-41l-43 320q-10 70 -9 112h-2l-24 -50t-31 -62l-173 -320h-42zM408 678h36l64 -138h-43l-44 100h-2l-77 -100h-46z" />
    <glyph glyph-name="Ycircumflex" unicode="&#x176;" horiz-adv-x="484" 
d="M212 0h-45l54 283l-129 391h48l79 -247q25 -77 31 -107h2q32 53 74 111l172 243h52l-285 -392zM321 823h37l80 -113h-47l-55 78h-2l-80 -78h-51z" />
    <glyph glyph-name="ycircumflex" unicode="&#x177;" horiz-adv-x="406" 
d="M51 480h46l59 -289q18 -88 25 -134h3q22 51 56 121l146 302h48l-186 -377q-82 -168 -153 -240q-65 -67 -131 -83l-13 39q55 20 92 51q60 49 102 128q5 8 3 22zM259 678h36l64 -138h-43l-44 100h-2l-77 -100h-46z" />
    <glyph glyph-name="Ydieresis" unicode="&#x178;" horiz-adv-x="484" 
d="M212 0h-45l54 283l-129 391h48l79 -247q25 -77 31 -107h2q32 53 74 111l172 243h52l-285 -392zM250 726h-1q-15 0 -25.5 12t-10.5 27t11.5 27.5t27.5 12.5t26 -12t10 -27t-11 -27.5t-27 -12.5zM420 726h-1q-15 0 -25 12t-10 27t11.5 27.5t27.5 12.5t26 -12t10 -27
t-11 -27.5t-28 -12.5z" />
    <glyph glyph-name="Zacute" unicode="&#x179;" horiz-adv-x="504" 
d="M-16 0l6 32l498 600v3h-350l8 39h410l-6 -32l-498 -600l2 -3h386l-7 -39h-449zM425 823h77l-140 -113h-44z" />
    <glyph glyph-name="zacute" unicode="&#x17a;" horiz-adv-x="393" 
d="M-19 0l5 29l282 317q27 31 89 93v4h-272l8 37h326l-7 -32l-279 -314q-43 -48 -88 -93v-3h292l-8 -38h-348zM326 678h74l-135 -138h-40z" />
    <glyph glyph-name="Zdotaccent" unicode="&#x17b;" horiz-adv-x="504" 
d="M-16 0l6 32l498 600v3h-350l8 39h410l-6 -32l-498 -600l2 -3h386l-7 -39h-449zM354 726h-1q-15 0 -25 12t-10 27t11.5 27.5t26.5 12.5q16 0 26.5 -12t10.5 -27t-11 -27.5t-28 -12.5z" />
    <glyph glyph-name="zdotaccent" unicode="&#x17c;" horiz-adv-x="393" 
d="M-19 0l5 29l282 317q27 31 89 93v4h-272l8 37h326l-7 -32l-279 -314q-43 -48 -88 -93v-3h292l-8 -38h-348zM271 580h-1q-15 0 -24.5 11t-9.5 27t11 28t26 12q16 0 25.5 -11t9.5 -27q0 -17 -10 -28.5t-27 -11.5z" />
    <glyph glyph-name="Zcaron" unicode="&#x17d;" horiz-adv-x="504" 
d="M-16 0l6 32l498 600v3h-350l8 39h410l-6 -32l-498 -600l2 -3h386l-7 -39h-449zM375 710h-37l-80 113h49l52 -78h4l79 78h51z" />
    <glyph glyph-name="zcaron" unicode="&#x17e;" horiz-adv-x="393" 
d="M-19 0l5 29l282 317q27 31 89 93v4h-272l8 37h326l-7 -32l-279 -314q-43 -48 -88 -93v-3h292l-8 -38h-348zM284 540h-36l-66 138h43l45 -100h3l79 100h46z" />
    <glyph glyph-name="florin" unicode="&#x192;" horiz-adv-x="462" 
d="M131 358l7 37h96l15 56q28 105 69.5 157.5t117.5 52.5q40 -1 59 -15l-15 -36q-30 13 -57 13q-52 0 -83 -48.5t-52 -137.5l-10 -42h125l-7 -37h-126l-56 -219q-29 -111 -67.5 -165t-106.5 -54q-44 0 -67 17l12 34q22 -13 60 -13q44 0 72.5 44.5t49.5 128.5l59 227h-95z
" />
    <glyph glyph-name="Ohorn" unicode="&#x1a0;" horiz-adv-x="645" 
d="M646 739l43 8q9 -18 9 -53q0 -50 -32.5 -76t-82.5 -17q54 -72 54 -189q0 -90 -32.5 -180.5t-91.5 -149.5q-93 -93 -220 -93q-63 0 -111 23t-76.5 62t-42.5 86t-14 99q0 91 35 184.5t96 153.5q41 41 98 64.5t115 23.5q60 0 112 -22q9 -3 29 -12.5t33 -13t28 -3.5
q32 0 45.5 15t13.5 44q0 22 -8 46zM386 646q-101 0 -177 -78q-52 -52 -83 -137t-31 -164q0 -101 49.5 -170t155.5 -69q102 0 179 79q52 51 82 136t30 166q0 34 -4.5 64t-18 63t-35.5 56.5t-59.5 38.5t-87.5 15z" />
    <glyph glyph-name="ohorn" unicode="&#x1a1;" horiz-adv-x="500" 
d="M289 453q-86 0 -145 -80.5t-59 -183.5q0 -70 37.5 -115.5t99.5 -45.5q80 0 140.5 81.5t60.5 181.5q0 26 -6.5 52.5t-21 52t-42 41.5t-64.5 16zM486 547l41 8q7 -24 7 -48q0 -44 -27 -68.5t-73 -17.5q36 -55 36 -131q0 -68 -29.5 -136t-89.5 -116.5t-135 -48.5
q-85 0 -131.5 57.5t-46.5 138.5q0 120 73.5 213t180.5 93q45 0 80 -17l14.5 -7t17 -7.5t17.5 -5t21 -2.5q51 0 51 51q0 22 -7 44z" />
    <glyph glyph-name="Uhorn" unicode="&#x1af;" horiz-adv-x="600" 
d="M598 639l-73 -380q-28 -142 -97.5 -206t-166.5 -64q-77 0 -128.5 47t-51.5 142q0 46 9 92l77 404h46l-78 -407q-8 -40 -8 -87q0 -76 38.5 -113.5t103.5 -37.5q167 0 212 237l78 408h46q58 0 58 54q0 16 -6 37l40 8q6 -19 6 -43q0 -90 -105 -91z" />
    <glyph glyph-name="uhorn" unicode="&#x1b0;" horiz-adv-x="506" 
d="M524 571l39 7q7 -18 7 -41q0 -92 -103 -92l-61 -316q-15 -89 -18 -129h-43l15 99h-2q-30 -49 -76.5 -79.5t-95.5 -30.5q-23 0 -43 5.5t-40.5 19.5t-33 44t-12.5 73q0 29 9 76l52 273h45l-52 -274q-9 -45 -9 -75q0 -101 95 -101q54 0 110.5 55t71.5 134l49 261h45
q57 0 57 53q0 14 -6 38z" />
    <glyph glyph-name="uni01FA" unicode="&#x1fa;" horiz-adv-x="537" 
d="M367 691q-35 0 -55.5 19t-20.5 48q0 32 24.5 53.5t61.5 21.5q32 0 53 -18t21 -48q0 -35 -24.5 -55.5t-59.5 -20.5zM368 720q22 0 35 12t13 32q0 17 -11.5 29.5t-31.5 12.5t-33.5 -14t-13.5 -32t11.5 -29t30.5 -11zM456 925h75l-122 -73h-48zM402 237h-257l-124 -237h-47
l361 674h44l102 -674h-44zM168 276h227l-34 225q-11 93 -13 119h-3q-39 -85 -56 -117z" />
    <glyph glyph-name="uni01FB" unicode="&#x1fb;" horiz-adv-x="503" 
d="M402 0h-43q-1 37 13 142h-2q-76 -153 -201 -153q-61 0 -97 43.5t-36 109.5q0 135 93 242t231 107q60 0 111 -14l-48 -250q-25 -134 -21 -227zM389 277l31 166q-22 9 -69 9q-108 0 -188 -90t-81 -212q0 -122 97 -122q65 0 128 74.5t82 174.5zM448 835h78l-155 -111h-44z
M351 700h1q38 0 63 -25.5t25 -64.5q0 -38 -28 -64t-63 -26q-39 0 -64.5 25t-25.5 62q0 39 27 66t65 27zM350 670h-1q-22 0 -36.5 -18t-14.5 -44q0 -24 14.5 -41t35.5 -17q23 0 38.5 18t15.5 46q0 24 -14.5 40t-37.5 16z" />
    <glyph glyph-name="AEacute" unicode="&#x1fc;" horiz-adv-x="728" 
d="M-5 0h-48l469 674h317l-8 -39h-248l-31 -261h236l-8 -39h-233l-34 -296h260l-8 -39h-299l30 271h-207zM210 309h186l25 213q8 68 15 117h-4q-29 -48 -71 -111zM601 823h77l-139 -113h-44z" />
    <glyph glyph-name="aeacute" unicode="&#x1fd;" horiz-adv-x="691" 
d="M602 63l14 -34q-58 -40 -146 -40q-61 0 -102 31.5t-53 88.5h-2q-27 -57 -76.5 -88.5t-107.5 -31.5t-89.5 34t-32.5 83q0 90 84 140.5t232 43.5l4 23q9 53 -14.5 96t-86.5 43q-60 0 -119 -37l-14 33q67 43 139 43q60 0 94.5 -30t39.5 -86h2q31 57 83 86.5t107 29.5
q58 0 89.5 -30.5t31.5 -73.5q0 -38 -17.5 -65t-47.5 -41t-70.5 -22t-88 -8.5t-98.5 0.5q-18 -86 3 -144q28 -79 117 -79q65 0 125 35zM304 191l11 60q-43 3 -85 -2t-83.5 -19t-67 -45t-25.5 -75q0 -38 22 -60t60 -22q57 0 105.5 43t62.5 120zM633 385v1q0 27 -21.5 47
t-58.5 20q-68 0 -118 -51.5t-68 -111.5h81t73 5t59 15t39 29t14 46zM476 678h73l-135 -138h-40z" />
    <glyph glyph-name="Oslashacute" unicode="&#x1fe;" horiz-adv-x="645" 
d="M40 -28l-24 24l81 90q-48 72 -48 176q0 88 32 175.5t88 146.5q46 48 105.5 74.5t120.5 26.5q111 0 171 -66l78 83l27 -23l-82 -89q48 -71 48 -173q0 -89 -32 -179.5t-87 -149.5q-44 -47 -103 -73t-120 -26q-111 0 -177 68zM130 123l408 462q-53 61 -151 61
q-93 0 -167.5 -70t-105.5 -179q-44 -156 14 -274h2zM556 549l-407 -460q55 -61 157 -61q83 0 155.5 65.5t105.5 170.5q51 164 -9 285h-2zM481 827h77l-140 -112h-44z" />
    <glyph glyph-name="oslashacute" unicode="&#x1ff;" horiz-adv-x="501" 
d="M49 -27l-25 23l54 62q-40 50 -40 135q0 116 73 207t178 91q76 0 119 -40l49 56l27 -22l-53 -60q40 -55 40 -131q0 -119 -75 -212t-173 -93q-76 0 -124 43zM111 95l268 322q-31 36 -94 36q-86 0 -143 -81t-57 -177q0 -61 24 -101zM400 386l-271 -320q35 -38 97 -38
q74 0 136 79.5t62 180.5q0 54 -23 98h-1zM369 678h74l-135 -138h-40z" />
    <glyph glyph-name="Scommaaccent" unicode="&#x218;" horiz-adv-x="438" 
d="M19 36l19 36q58 -43 133 -43q70 0 120 42.5t50 113.5q0 45 -24 79.5t-79 65.5q-131 72 -131 170q0 81 59.5 133t144.5 52q39 0 74 -11.5t51 -25.5l-19 -35q-53 33 -112 33q-67 0 -110 -41t-43 -94q0 -47 24.5 -78t84.5 -65q64 -35 94.5 -78t30.5 -104q0 -79 -58 -138
t-166 -59q-39 0 -81.5 14t-61.5 33zM78 -209l-8 26q39 6 66.5 26t27.5 54q0 30 -26 50l41 11q29 -21 29 -57q0 -48 -38.5 -76t-91.5 -34z" />
    <glyph glyph-name="scommaaccent" unicode="&#x219;" horiz-adv-x="346" 
d="M16 20l17 37q40 -28 90 -28q48 0 79 29.5t31 70.5q0 35 -15.5 58.5t-55.5 47.5q-77 46 -77 119q0 57 43 97t108 40q54 0 85 -23l-17 -39q-32 23 -74 23q-43 0 -71.5 -26.5t-28.5 -64.5q0 -32 17 -53.5t53 -43.5q79 -47 79 -123q0 -69 -47 -110.5t-113 -41.5
q-63 0 -103 31zM32 -209l-8 26q39 6 66 26t27 54q0 30 -26 50l41 11q29 -19 29 -57q0 -48 -38 -76t-91 -34z" />
    <glyph glyph-name="uni021A" unicode="&#x21a;" horiz-adv-x="441" 
d="M152 0l121 635h-209l8 39h462l-7 -39h-209l-121 -635h-45zM78 -209l-8 26q39 6 66.5 26t27.5 54q0 29 -27 50l42 11q29 -21 29 -57q0 -48 -38.5 -76t-91.5 -34z" />
    <glyph glyph-name="uni021B" unicode="&#x21b;" horiz-adv-x="292" 
d="M164 568l49 18l-20 -106h122l-7 -37h-123l-52 -278q-10 -53 -10 -86q0 -51 48 -51q22 0 39 5l4 -36q-21 -8 -52 -8q-44 0 -65 25.5t-21 61.5q0 39 11 91l53 276h-73l7 37h74zM15 -209l-8 26q39 6 66 26t27 54q0 30 -26 50l41 11q29 -19 29 -57q0 -48 -38 -76t-91 -34z
" />
    <glyph glyph-name="uni021C" unicode="&#x21c;" horiz-adv-x="434" 
d="M-14 -107l-6 38q161 22 267 97t106 187q0 52 -38.5 87t-110.5 35q-32 0 -89 -16l-7 33q103 23 173.5 76t70.5 124q0 43 -30.5 67.5t-76.5 24.5q-57 0 -129 -39l-13 32q73 46 152 46q63 0 105 -35.5t42 -90.5q0 -63 -45.5 -112.5t-105.5 -73.5l-1 -3q62 -10 106.5 -48.5
t44.5 -107.5q0 -111 -108.5 -203t-306.5 -118z" />
    <glyph glyph-name="uni021D" unicode="&#x21d;" horiz-adv-x="365" 
d="M-60 -208l-5 36q21 3 44 7t58.5 13.5t67.5 21t65.5 31t57.5 42.5t39.5 55.5t15.5 69.5q0 48 -39 79t-102 30q-25 0 -81 -15l-7 34q227 60 227 175q0 35 -28.5 58t-76.5 23q-56 0 -122 -36l-10 31q74 44 147 44q58 0 96 -33t38 -82q0 -57 -38.5 -98.5t-95.5 -62.5l-1 -3
q56 -8 97 -46t41 -97q0 -109 -104 -185t-284 -92z" />
    <glyph glyph-name="uni0232" unicode="&#x232;" horiz-adv-x="484" 
d="M212 0h-45l54 283l-129 391h48l79 -247q25 -77 31 -107h2q32 53 74 111l172 243h52l-285 -392zM238 772h217l-7 -39h-217z" />
    <glyph glyph-name="uni0233" unicode="&#x233;" horiz-adv-x="406" 
d="M183 636h202l-7 -39h-202zM51 480h46l59 -289q18 -88 25 -134h3q22 51 56 121l146 302h48l-186 -377q-82 -168 -153 -240q-65 -67 -131 -83l-13 39q55 20 92 51q60 49 102 128q5 8 3 22z" />
    <glyph glyph-name="circumflex" unicode="&#x2c6;" 
d="M255 678h35l65 -138h-43l-44 100h-2l-77 -100h-47z" />
    <glyph glyph-name="caron" unicode="&#x2c7;" 
d="M268 540h-35l-67 138h43l45 -100h3l79 100h46z" />
    <glyph glyph-name="uni02C9" unicode="&#x2c9;" 
d="M168 636h202l-7 -39h-202z" />
    <glyph glyph-name="breve" unicode="&#x2d8;" 
d="M164 678h36q-3 -31 13.5 -52.5t46.5 -21.5q36 0 58 22t30 52h39q-10 -51 -45.5 -82.5t-80.5 -31.5q-59 0 -81.5 34t-15.5 80z" />
    <glyph glyph-name="dotaccent" unicode="&#x2d9;" 
d="M262 580h-1q-15 0 -24.5 11t-9.5 27t11 28t26 12q16 0 25.5 -11t9.5 -27q0 -17 -10 -28.5t-27 -11.5z" />
    <glyph glyph-name="ring" unicode="&#x2da;" horiz-adv-x="377" 
d="M266 712h1q38 0 63 -25.5t25 -64.5q0 -38 -28 -64t-63 -26q-39 0 -64.5 25t-25.5 62q0 39 27 66t65 27zM265 682h-1q-22 0 -36.5 -18t-14.5 -44q0 -24 14.5 -41t35.5 -17q23 0 38.5 18t15.5 46q0 24 -14.5 40t-37.5 16z" />
    <glyph glyph-name="ogonek" unicode="&#x2db;" 
d="M145 2h48q-35 -24 -63 -60t-28 -67q0 -36 35 -36q21 0 43 11l9 -30q-30 -18 -66 -18q-30 0 -48.5 18t-18.5 46q0 66 89 136z" />
    <glyph glyph-name="tilde" unicode="&#x2dc;" 
d="M181 575h-34q4 35 20.5 59t44.5 24q7 0 13 -1t12.5 -3.5t10.5 -4.5t12.5 -7t12.5 -7q28 -16 41 -16t19 9t9 33h34q-10 -80 -64 -80q-26 0 -57 20q-29 18 -44 18q-23 0 -30 -44z" />
    <glyph glyph-name="hungarumlaut" unicode="&#x2dd;" 
d="M276 678h66l-129 -138h-36zM402 678h66l-128 -138h-37z" />
    <glyph glyph-name="uni037E" unicode="&#x37e;" horiz-adv-x="181" 
d="M13 -121l-39 -5q17 34 43 101t38 111l63 2q-20 -47 -55 -116.5t-50 -92.5zM133 346h-1q-18 0 -29.5 13.5t-11.5 32.5q0 20 12.5 34t31.5 14t30.5 -13t11.5 -34q0 -19 -12.5 -33t-31.5 -14z" />
    <glyph glyph-name="tonos" unicode="&#x384;" 
d="M317 678h74l-135 -138h-40z" />
    <glyph glyph-name="dieresistonos" unicode="&#x385;" horiz-adv-x="290" 
d="M220 694h60l-96 -146h-30zM107 576h-1q-15 0 -24 10.5t-9 25.5t10.5 26.5t25.5 11.5q16 0 25 -10.5t9 -25.5q0 -16 -9.5 -27t-26.5 -11zM313 576h-1q-15 0 -24 10.5t-9 25.5t10.5 26.5t25.5 11.5q16 0 25 -10.5t9 -25.5q0 -16 -9.5 -27t-26.5 -11z" />
    <glyph glyph-name="Alphatonos" unicode="&#x386;" horiz-adv-x="537" 
d="M402 237h-257l-124 -237h-47l361 674h44l102 -674h-44zM168 276h227l-34 225q-11 93 -13 119h-3q-39 -85 -56 -117zM118 674h54l-40 -143h-30z" />
    <glyph glyph-name="anoteleia" unicode="&#x387;" horiz-adv-x="181" 
d="M109 277h-1q-17 0 -28 13t-11 31q0 20 12 33.5t30 13.5t29 -13t11 -32q0 -18 -12 -32t-30 -14z" />
    <glyph glyph-name="Epsilontonos" unicode="&#x388;" horiz-adv-x="441" 
d="M404 375l-8 -39h-248l-56 -297h280l-8 -39h-325l128 674h310l-8 -39h-264l-50 -260h249zM39 674h53l-40 -143h-29z" />
    <glyph glyph-name="Etatonos" unicode="&#x389;" horiz-adv-x="603" 
d="M167 674h46l-58 -297h351l57 297h45l-129 -674h-45l64 338h-350l-64 -338h-45zM37 674h54l-40 -143h-30z" />
    <glyph glyph-name="Iotatonos" unicode="&#x38a;" horiz-adv-x="208" 
d="M167 674h46l-129 -674h-45zM41 674h54l-40 -143h-30z" />
    <glyph glyph-name="Omicrontonos" unicode="&#x38c;" horiz-adv-x="645" 
d="M294 -11h-1q-63 0 -111 23t-76.5 62t-42.5 86t-14 99q0 87 32.5 176t88.5 151q42 45 102 72t121 27q66 0 115 -23.5t76.5 -63.5t40 -86.5t12.5 -99.5q0 -85 -30 -172.5t-84 -147.5q-93 -103 -229 -103zM299 28h1q117 0 204 119t87 262q0 34 -4.5 64t-18 63t-35.5 56.5
t-59.5 38.5t-87.5 15q-82 0 -150.5 -59.5t-104.5 -146t-36 -173.5q0 -37 6.5 -70.5t21.5 -65t38 -54t58.5 -36t79.5 -13.5zM34 674h54l-40 -143h-30z" />
    <glyph glyph-name="Upsilontonos" unicode="&#x38e;" horiz-adv-x="557" 
d="M101 643l10 37q27 -4 62.5 -30t59.5 -61q74 -111 67 -267h2q29 84 77.5 153.5t100.5 115.5q80 71 147 89l6 -36q-29 -14 -59 -34.5t-72.5 -57.5t-85 -95.5t-74.5 -129.5t-45 -138l-34 -189h-46l36 191q13 83 9 138q-4 74 -21.5 134t-42.5 95.5t-49 56t-48 28.5zM14 674
h54l-40 -143h-30z" />
    <glyph glyph-name="Omegatonos" unicode="&#x38f;" horiz-adv-x="658" 
d="M154 39v4q-41 41 -68 105.5t-27 135.5q0 169 97 285t241 116q112 0 180 -76t68 -191q0 -122 -58 -221t-140 -154v-4h145l-7 -39h-218l5 34q88 50 157.5 153t69.5 225q0 94 -53.5 164.5t-153.5 70.5q-67 0 -123 -33.5t-90.5 -86.5t-53.5 -112.5t-19 -116.5
q0 -92 31.5 -160t80.5 -104l-7 -34h-218l7 39h154zM40 674h54l-40 -143h-30z" />
    <glyph glyph-name="iotadieresistonos" unicode="&#x390;" horiz-adv-x="206" 
d="M174 480l-73 -384q-8 -38 -1 -53t34 -14l-11 -38q-8 -2 -20 -2q-52 0 -52 66q0 10 21 121l58 304h44zM190 682h59l-95 -146h-30zM76 564h-1q-15 0 -24 11t-9 26t10.5 26.5t25.5 11.5q16 0 25.5 -11t9.5 -26t-10 -26.5t-27 -11.5zM282 564h-1q-15 0 -24 11t-9 26
t10.5 26.5t25.5 11.5q16 0 25.5 -11t9.5 -26t-10.5 -26.5t-26.5 -11.5z" />
    <glyph glyph-name="Alpha" unicode="&#x391;" horiz-adv-x="537" 
d="M402 237h-257l-124 -237h-47l361 674h44l102 -674h-44zM168 276h227l-34 225q-11 93 -13 119h-3q-39 -85 -56 -117z" />
    <glyph glyph-name="Beta" unicode="&#x392;" horiz-adv-x="479" 
d="M40 4l125 662q69 13 125 13q103 0 148 -53q30 -35 30 -94q0 -61 -45 -109.5t-106 -63.5v-3q49 -13 81.5 -52t31.5 -99q0 -94 -73 -154q-70 -56 -196 -56q-76 0 -121 9zM204 634l-49 -257h71q83 0 138.5 43t55.5 114q0 107 -139 107q-57 0 -77 -7zM148 340l-57 -300
q30 -5 76 -5q92 -1 154 41.5t62 132.5q0 62 -44.5 96.5t-109.5 34.5h-81z" />
    <glyph glyph-name="Gamma" unicode="&#x393;" horiz-adv-x="411" 
d="M167 674h314l-7 -39h-269l-121 -635h-45z" />
    <glyph glyph-name="uni0394" unicode="&#x394;" horiz-adv-x="571" 
d="M-20 0l6 33l359 641h46l124 -641l-6 -33h-529zM39 39h432l-82 418q-16 78 -29 164h-2l-20 -38.5l-29 -53.5l-27 -49z" />
    <glyph glyph-name="Epsilon" unicode="&#x395;" horiz-adv-x="441" 
d="M404 375l-8 -39h-248l-56 -297h280l-8 -39h-325l128 674h310l-8 -39h-264l-50 -260h249z" />
    <glyph glyph-name="Zeta" unicode="&#x396;" horiz-adv-x="504" 
d="M-16 0l6 32l498 600v3h-350l8 39h410l-6 -32l-498 -600l2 -3h386l-7 -39h-449z" />
    <glyph glyph-name="Eta" unicode="&#x397;" horiz-adv-x="603" 
d="M167 674h46l-58 -297h351l57 297h45l-129 -674h-45l64 338h-350l-64 -338h-45z" />
    <glyph glyph-name="Theta" unicode="&#x398;" horiz-adv-x="645" 
d="M294 -11h-1q-63 0 -111 23t-76.5 62t-42.5 86t-14 99q0 87 32.5 176t88.5 151q42 45 102 72t121 27q66 0 115 -23.5t76.5 -63.5t40 -86.5t12.5 -99.5q0 -85 -30 -172.5t-84 -147.5q-93 -103 -229 -103zM299 28h1q117 0 204 119t87 262q0 34 -4.5 64t-18 63t-35.5 56.5
t-59.5 38.5t-87.5 15q-82 0 -150.5 -59.5t-104.5 -146t-36 -173.5q0 -37 6.5 -70.5t21.5 -65t38 -54t58.5 -36t79.5 -13.5zM192 370h309l-6 -39h-309z" />
    <glyph glyph-name="Iota" unicode="&#x399;" horiz-adv-x="208" 
d="M167 674h46l-129 -674h-45z" />
    <glyph glyph-name="Kappa" unicode="&#x39a;" horiz-adv-x="469" 
d="M39 0l128 674h46l-66 -344l5 1q9 10 70 74l268 269h57l-290 -289l184 -385h-49l-169 354l-86 -79l-53 -275h-45z" />
    <glyph glyph-name="Lambda" unicode="&#x39b;" horiz-adv-x="538" 
d="M483 0h-44l-78 501q-9 74 -13 120h-2q-24 -56 -57 -118l-267 -503h-47l360 674h45z" />
    <glyph glyph-name="Mu" unicode="&#x39c;" horiz-adv-x="754" 
d="M649 0h-45l53 417q15 125 31 206h-3q-60 -124 -99 -194l-239 -429h-33l-66 419q-12 72 -26 204h-2l-22 -95l-26 -111l-107 -417h-45l178 674h52l73 -467q16 -97 19 -141h3q25 55 70 137l261 471h55z" />
    <glyph glyph-name="Nu" unicode="&#x39d;" horiz-adv-x="611" 
d="M83 0h-44l128 674h43l195 -458q35 -79 57 -162l2 1q5 77 27 192l81 427h44l-128 -674h-41l-190 450q-43 98 -61 170l-3 -2q-9 -77 -30 -194z" />
    <glyph glyph-name="Xi" unicode="&#x39e;" horiz-adv-x="518" 
d="M135 674h418l-7 -39h-418zM114 371h348l-7 -39h-348zM10 39h435l-7 -39h-435z" />
    <glyph glyph-name="Omicron" unicode="&#x39f;" horiz-adv-x="645" 
d="M294 -11h-1q-63 0 -111 23t-76.5 62t-42.5 86t-14 99q0 87 32.5 176t88.5 151q42 45 102 72t121 27q66 0 115 -23.5t76.5 -63.5t40 -86.5t12.5 -99.5q0 -85 -30 -172.5t-84 -147.5q-93 -103 -229 -103zM299 28h1q117 0 204 119t87 262q0 34 -4.5 64t-18 63t-35.5 56.5
t-59.5 38.5t-87.5 15q-82 0 -150.5 -59.5t-104.5 -146t-36 -173.5q0 -37 6.5 -70.5t21.5 -65t38 -54t58.5 -36t79.5 -13.5z" />
    <glyph glyph-name="Pi" unicode="&#x3a0;" horiz-adv-x="601" 
d="M605 674l-127 -674h-45l119 635h-348l-120 -635h-45l128 674h438z" />
    <glyph glyph-name="Rho" unicode="&#x3a1;" horiz-adv-x="476" 
d="M39 0l127 666q65 13 128 13q109 0 157 -57q34 -43 34 -109q0 -49 -21.5 -93.5t-53.5 -72.5q-73 -66 -197 -66q-44 0 -75 6l-54 -287h-45zM204 632l-58 -304q32 -8 74 -8q98 0 158.5 53.5t60.5 138.5q0 65 -41.5 96.5t-112.5 31.5q-54 0 -81 -8z" />
    <glyph glyph-name="Sigma" unicode="&#x3a3;" horiz-adv-x="519" 
d="M57 43v-4h413l-7 -39h-477l5 32l311 308l-183 301l5 33h426l-7 -39h-368v-3l180 -296z" />
    <glyph glyph-name="Tau" unicode="&#x3a4;" horiz-adv-x="441" 
d="M152 0l121 635h-209l8 39h462l-7 -39h-209l-121 -635h-45z" />
    <glyph glyph-name="Upsilon" unicode="&#x3a5;" horiz-adv-x="537" 
d="M81 643l10 37q27 -4 62.5 -30t59.5 -61q74 -111 67 -267h2q29 84 77.5 153.5t100.5 115.5q80 71 147 89l6 -36q-29 -14 -59 -34.5t-72.5 -57.5t-85 -95.5t-74.5 -129.5t-45 -138l-34 -189h-46l36 191q13 83 9 138q-4 74 -21.5 134t-42.5 95.5t-49 56t-48 28.5z" />
    <glyph glyph-name="Phi" unicode="&#x3a6;" horiz-adv-x="645" 
d="M251 -25l11 52q-91 6 -152 72.5t-61 175.5q0 86 30.5 159t79 119t106.5 71.5t115 24.5l10 50h44l-9 -50q92 -6 152 -73.5t60 -178.5q0 -161 -100.5 -265t-230.5 -105l-10 -52h-45zM270 65l102 546q-46 0 -94.5 -23t-89.5 -64.5t-67 -105.5t-26 -138q0 -91 48.5 -149
t126.5 -66zM416 611l-102 -546q123 5 200 104t77 227q0 94 -49 152t-126 63z" />
    <glyph glyph-name="Chi" unicode="&#x3a7;" horiz-adv-x="492" 
d="M435 0h-48l-76 187q-26 60 -47 119h-2l-85 -114l-147 -192h-54l270 343l-131 331h48l78 -200q18 -43 36 -96h2l71 95l160 201h54l-268 -330z" />
    <glyph glyph-name="Psi" unicode="&#x3a8;" horiz-adv-x="620" 
d="M654 674l-38 -203q-44 -245 -286 -251l-40 -220h-46l41 220q-35 2 -67 12t-62.5 30.5t-49 59.5t-18.5 91q0 29 9 88l33 173h45l-34 -182q-8 -41 -8 -75q0 -147 160 -158l76 415h45l-76 -415q195 7 233 214l38 201h45z" />
    <glyph glyph-name="uni03A9" unicode="&#x3a9;" horiz-adv-x="655" 
d="M151 39l1 4q-41 41 -68 105t-27 136q0 169 96.5 285t241.5 116q112 0 180 -76t68 -191q0 -121 -58.5 -220t-140.5 -155v-4h145l-7 -39h-218l6 34q88 50 157 153t69 225q0 94 -53.5 164.5t-152.5 70.5q-67 0 -123.5 -33.5t-91 -86.5t-53.5 -112.5t-19 -116.5
q0 -92 31.5 -160t80.5 -104l-7 -34h-218l8 39h153z" />
    <glyph glyph-name="Iotadieresis" unicode="&#x3aa;" horiz-adv-x="208" 
d="M110 710h-1q-16 0 -25.5 11.5t-9.5 27.5t11.5 28t27.5 12t26 -11.5t10 -27.5t-10.5 -28t-28.5 -12zM280 710h-1q-16 0 -26 11.5t-10 27.5t11.5 28t27.5 12q17 0 27 -11.5t10 -27.5t-11 -28t-28 -12zM167 674h46l-129 -674h-45z" />
    <glyph glyph-name="Upsilondieresis" unicode="&#x3ab;" horiz-adv-x="537" 
d="M265 706h-1q-16 0 -25.5 11.5t-9.5 27.5t11 28t27 12q17 0 27 -11t10 -27q0 -17 -10.5 -29t-28.5 -12zM435 706h-1q-16 0 -26 11.5t-10 27.5t11.5 28t27.5 12q17 0 26.5 -11t9.5 -27q0 -17 -10.5 -29t-27.5 -12zM81 643l10 37q27 -4 62.5 -30t59.5 -61q74 -111 67 -267h2
q29 84 77.5 153.5t100.5 115.5q80 71 147 89l6 -36q-29 -14 -59 -34.5t-72.5 -57.5t-85 -95.5t-74.5 -129.5t-45 -138l-34 -189h-46l36 191q13 83 9 138q-4 74 -21.5 134t-42.5 95.5t-49 56t-48 28.5z" />
    <glyph glyph-name="alphatonos" unicode="&#x3ac;" horiz-adv-x="519" 
d="M355 678h74l-135 -138h-40zM373 98h-3q-27 -48 -73.5 -78.5t-105.5 -30.5q-71 0 -112.5 47.5t-41.5 124.5q0 134 75.5 232t178.5 98q59 0 92.5 -31.5t41.5 -77.5h4q11 46 27 98h37q-9 -33 -28 -117q-30 -136 -46 -225q-12 -56 -6.5 -83t34.5 -27l-11 -38q-6 -1 -15 -1
q-27 0 -41.5 26.5t-6.5 82.5zM83 171v-1q0 -63 31.5 -102.5t90.5 -39.5q53 0 100.5 45t72.5 106q11 26 20 77q6 31 6 64q0 53 -32 93t-88 40q-75 0 -138 -84t-63 -198z" />
    <glyph glyph-name="epsilontonos" unicode="&#x3ad;" horiz-adv-x="388" 
d="M301 678h73l-135 -138h-40zM305 239h-73q-69 0 -116.5 -31.5t-47.5 -88.5q0 -42 35.5 -66.5t92.5 -24.5q40 0 83 12t62 24l9 -35q-18 -14 -66 -27t-92 -13q-74 0 -121.5 31.5t-47.5 95.5q0 55 41 96t99 49l1 4q-41 9 -63 33.5t-22 59.5q0 52 51.5 92.5t135.5 40.5
q37 0 71 -9t48 -23l-15 -33q-40 27 -111 27q-60 0 -97 -27t-37 -68q0 -40 36 -60.5t94 -20.5h57z" />
    <glyph glyph-name="etatonos" unicode="&#x3ae;" horiz-adv-x="516" 
d="M377 678h73l-134 -138h-41zM152 377h2q32 53 80.5 83.5t104.5 30.5q19 0 37.5 -5.5t38 -19t32 -42t12.5 -67.5q0 -27 -9 -76l-55 -294q-26 -141 -23 -185h-42q-9 28 18 179l58 304q7 47 7 66q0 100 -92 100q-56 0 -116 -58t-76 -147l-45 -246h-46l66 351q17 95 12 129h42
q7 -31 -6 -103z" />
    <glyph glyph-name="iotatonos" unicode="&#x3af;" horiz-adv-x="206" 
d="M234 678h74l-135 -138h-40zM174 480l-73 -384q-8 -38 -1 -53t34 -14l-11 -38q-8 -2 -20 -2q-52 0 -52 65q0 15 20 121l59 305h44z" />
    <glyph glyph-name="upsilondieresistonos" unicode="&#x3b0;" horiz-adv-x="479" 
d="M390 480h44q11 -24 11 -85q0 -70 -14.5 -138.5t-43 -130t-79.5 -99.5t-116 -38q-57 0 -96.5 39.5t-39.5 107.5q0 17 5 45l25 136q25 130 21 163h41q11 -16 -2 -87l-39 -212q-4 -20 -4 -40q0 -56 30.5 -84.5t69.5 -28.5q86 0 141 106t55 262q0 57 -9 84zM298 682h59
l-95 -146h-30zM184 564h-1q-15 0 -24 11t-9 26t10.5 26.5t25.5 11.5q16 0 25.5 -11t9.5 -26t-10 -26.5t-27 -11.5zM390 564h-1q-15 0 -24 11t-9 26t10.5 26.5t25.5 11.5q16 0 25.5 -11t9.5 -26t-10.5 -26.5t-26.5 -11.5z" />
    <glyph glyph-name="alpha" unicode="&#x3b1;" horiz-adv-x="519" 
d="M373 98h-3q-27 -48 -73.5 -78.5t-105.5 -30.5q-70 0 -112 47.5t-42 124.5q0 134 75.5 232t178.5 98q59 0 92.5 -31.5t41.5 -77.5h4q11 46 27 98h37q-9 -33 -28 -117q-30 -136 -46 -225q-12 -56 -6.5 -83t34.5 -27l-11 -38q-6 -1 -15 -1q-27 0 -41.5 26.5t-6.5 82.5z
M83 171v-1q0 -63 31.5 -102.5t90.5 -39.5q53 0 100.5 45t72.5 106q11 26 20 77q6 31 6 64q0 53 -32 93t-88 40q-75 0 -138 -84t-63 -198z" />
    <glyph glyph-name="beta" unicode="&#x3b2;" horiz-adv-x="515" 
d="M59 -198h-44q-7 38 17 170l89 479q30 161 102 224q53 46 122 46q56 0 94 -38.5t38 -100.5q0 -66 -34.5 -118.5t-82.5 -73.5l-1 -4q51 -9 86 -54.5t35 -112.5q0 -58 -21.5 -104t-55 -72.5t-71 -40t-74.5 -13.5q-104 0 -161 77h-2l-15 -79q-25 -148 -21 -185zM248 363l7 38
q3 0 9.5 0.5t9.5 0.5q72 4 114.5 54t42.5 119q0 50 -25.5 79t-67.5 29q-129 0 -172 -234l-60 -323q15 -38 55.5 -68.5t98.5 -30.5q66 0 119.5 51.5t53.5 134.5q0 68 -43 108.5t-113 41.5h-29z" />
    <glyph glyph-name="gamma" unicode="&#x3b3;" horiz-adv-x="412" 
d="M142 -198h-47q40 191 36 269q-5 96 -37 219t-63 190h50q31 -65 59.5 -180.5t30.5 -223.5h4q161 210 191 375q4 18 4 29h45q1 -8 -3 -33q-33 -184 -224 -412q-9 -14 -11 -26q-7 -48 -35 -207z" />
    <glyph glyph-name="delta" unicode="&#x3b4;" horiz-adv-x="504" 
d="M473 646l-25 -29q-23 28 -59 47t-75 19q-35 0 -54.5 -16.5t-19.5 -39.5q0 -15 10.5 -31.5t18.5 -24l35 -32.5l73 -71q94 -89 94 -204q0 -105 -69 -190t-175 -85q-81 0 -135.5 55.5t-54.5 148.5q0 109 68 190.5t167 121.5v4l-20 20q-40 41 -49 64q-6 16 -6 33q0 37 32 66
t86 29q99 0 158 -75zM347 436l-47 44q-40 -17 -76 -41.5t-69 -59t-52.5 -81.5t-19.5 -100q0 -80 44 -125t106 -45q78 0 135 71t57 164q0 51 -17 91.5t-61 81.5z" />
    <glyph glyph-name="epsilon" unicode="&#x3b5;" horiz-adv-x="388" 
d="M305 239h-73q-69 0 -116.5 -31.5t-47.5 -88.5q0 -42 35.5 -66.5t92.5 -24.5q41 0 83.5 12t61.5 25l9 -37q-18 -14 -65 -26.5t-93 -12.5q-74 0 -121.5 31.5t-47.5 95.5q0 55 41 96t99 49l1 4q-41 9 -63 33.5t-22 59.5q0 52 51.5 92.5t135.5 40.5q37 0 71 -9t48 -23
l-15 -33q-40 27 -111 27q-60 0 -97 -27t-37 -68q0 -40 36 -60.5t94 -20.5h57z" />
    <glyph glyph-name="zeta" unicode="&#x3b6;" horiz-adv-x="371" 
d="M436 709l2 -38q-135 -78 -241 -210.5t-106 -255.5q0 -64 30 -101t96 -59q43 -15 112 -21q7 -1 7 -7q0 -24 -26.5 -76.5t-50.5 -78.5l-35 10q14 17 34 56t25 62q-63 9 -101 24q-138 50 -138 187q0 121 98.5 254.5t228.5 213.5v2h-85q-83 0 -115 9l10 35q30 -6 108 -6h147z
" />
    <glyph glyph-name="eta" unicode="&#x3b7;" horiz-adv-x="516" 
d="M152 377h2q32 53 80.5 83.5t104.5 30.5q19 0 37.5 -5.5t38 -19t32 -42t12.5 -67.5q0 -27 -9 -76l-55 -294q-26 -141 -23 -185h-42q-9 28 18 179l58 304q7 47 7 66q0 100 -92 100q-56 0 -116 -58t-76 -147l-45 -246h-46l66 351q17 95 12 129h42q7 -31 -6 -103z" />
    <glyph glyph-name="theta" unicode="&#x3b8;" horiz-adv-x="492" 
d="M212 -11h-1q-72 0 -117 61t-45 174q0 79 21 175q29 141 94.5 231.5t162.5 90.5q74 0 116.5 -61t41.5 -162q0 -76 -15 -148q-70 -361 -258 -361zM115 388h316q8 49 8 112q0 81 -30.5 132t-88.5 51q-75 0 -128.5 -84.5t-76.5 -210.5zM423 350h-315q-12 -67 -12 -128
q0 -91 33.5 -142.5t87.5 -51.5q146 0 206 322z" />
    <glyph glyph-name="iota" unicode="&#x3b9;" horiz-adv-x="206" 
d="M174 480l-73 -384q-8 -38 -1 -53t34 -14l-11 -38q-8 -2 -20 -2q-51 0 -52 65q1 19 22 129l57 297h44z" />
    <glyph glyph-name="kappa" unicode="&#x3ba;" horiz-adv-x="424" 
d="M187 258v-3q30 -8 56 -31t40.5 -45t39.5 -65l66 -114h-50l-61 106q-36 61 -67 90t-73 29h-14l-41 -225h-45l72 388q13 62 8 92h41q8 -23 -2 -81l-26 -140h5l265 221h54v-3z" />
    <glyph glyph-name="lambda" unicode="&#x3bb;" horiz-adv-x="414" 
d="M324 0l-59 311q-11 57 -17 99l-4 1l-48 -96l-170 -315h-49l245 448q10 19 10 28q0 12 -2 22q-18 93 -40.5 138.5t-68.5 45.5q-2 0 -5.5 -0.5t-5.5 -0.5l8 38q14 2 21 2q55 -1 81.5 -50.5t52.5 -169.5l97 -501h-46z" />
    <glyph glyph-name="uni03BC" unicode="&#x3bc;" horiz-adv-x="505" 
d="M165 480l-55 -293q-13 -71 10.5 -114t87.5 -43q42 0 82 35t65 82q19 36 27 74l49 259h45l-67 -353q-10 -55 -4 -76t31 -23l-12 -38q-9 -1 -14 -1q-62 0 -48 106h-3q-25 -44 -68 -74.5t-92 -30.5q-39 0 -70 19t-44 56l-14 -78q-25 -135 -20 -185h-41q-9 46 16 179l95 499
h44z" />
    <glyph glyph-name="nu" unicode="&#x3bd;" horiz-adv-x="414" 
d="M41 480h46l52 -291l23 -139h3q173 244 204 375q8 35 8 55h44q2 -20 -3 -41q-30 -166 -247 -439h-42z" />
    <glyph glyph-name="xi" unicode="&#x3be;" horiz-adv-x="397" 
d="M361 396h-25q-114 -1 -182.5 -57t-68.5 -141q0 -111 146 -152q75 -20 128 -23q7 0 7 -8q0 -24 -28 -77.5t-50 -75.5l-34 10q14 18 34.5 57.5t25.5 61.5q-67 6 -128 27q-148 52 -148 175q0 85 58 145t133 79v4q-42 14 -69 48.5t-27 78.5q0 68 57 120.5t149 52.5
q77 0 113 -30l-16 -33q-32 25 -101 25q-72 0 -114.5 -38.5t-42.5 -96.5q0 -53 41 -83t105 -31h43z" />
    <glyph glyph-name="omicron" unicode="&#x3bf;" horiz-adv-x="500" 
d="M217 -11h-1q-85 0 -131.5 57.5t-46.5 138.5q0 120 73.5 213t180.5 93q90 0 134 -59t44 -142q0 -68 -29.5 -136t-89.5 -116.5t-134 -48.5zM221 28h1q80 0 140.5 81.5t60.5 181.5q0 26 -6.5 52.5t-21 52t-42 41.5t-64.5 16q-86 0 -145 -80.5t-59 -183.5q0 -70 37.5 -115.5
t98.5 -45.5z" />
    <glyph glyph-name="pi" unicode="&#x3c0;" horiz-adv-x="500" 
d="M509 442h-71l-56 -301q-18 -102 -11 -141h-42q-11 31 7 135l57 307h-182q-1 -3 -10.5 -44t-15.5 -64q-65 -244 -129 -334h-45q70 105 129 331l27 111q-69 0 -107 -11l-2 29q28 20 113 20h348z" />
    <glyph glyph-name="rho" unicode="&#x3c1;" horiz-adv-x="520" 
d="M52 -198h-41q-4 41 20 179l41 221q29 149 89 216q63 73 163 73q76 0 121 -54t45 -134q0 -129 -73 -221.5t-175 -92.5q-48 0 -88 23.5t-57 65.5h-3l-16 -91q-26 -140 -26 -185zM121 220l-5 -27q-4 -20 -4 -37q0 -47 36 -87.5t96 -40.5q80 0 140 78.5t60 193.5
q0 64 -33.5 108.5t-95.5 44.5q-66 0 -119 -57t-75 -176z" />
    <glyph glyph-name="uni03C2" unicode="&#x3c2;" horiz-adv-x="390" 
d="M266 -138l-34 11q14 19 33 57.5t24 59.5q-51 6 -103 24q-63 23 -104.5 70t-41.5 122q0 113 78 199t190 86q64 0 97 -23l-16 -35q-40 20 -84 20q-90 0 -154 -69.5t-64 -175.5q0 -120 133 -161q44 -15 112 -25q8 -1 8 -9q0 -26 -27 -77t-47 -74z" />
    <glyph glyph-name="sigma" unicode="&#x3c3;" horiz-adv-x="509" 
d="M389 459v-5q43 -24 62 -71.5t19 -91.5q0 -68 -29.5 -136.5t-89.5 -117t-134 -48.5q-85 0 -132 57.5t-47 138.5q0 120 73.5 213t180.5 93h104h40h90l-6 -39q-50 0 -131 7zM220 28h1q81 0 141.5 82t60.5 181q0 26 -6.5 52.5t-21 52t-42 41.5t-64.5 16q-86 0 -145 -80.5
t-59 -183.5q0 -69 37.5 -115t97.5 -46z" />
    <glyph glyph-name="tau" unicode="&#x3c4;" horiz-adv-x="363" 
d="M234 30l-6 -36q-13 -5 -30 -5q-32 0 -53.5 21t-21.5 66q0 16 7 55l57 311h-52q-55 0 -105 -9v27q30 20 108 20h260l-10 -38h-155l-58 -316q-5 -25 -5 -45q0 -52 44 -52q4 0 10.5 0.5t9.5 0.5z" />
    <glyph glyph-name="upsilon" unicode="&#x3c5;" horiz-adv-x="479" 
d="M390 480h44q11 -24 11 -85q0 -70 -14 -138.5t-42 -130t-78.5 -99.5t-115.5 -38q-58 0 -98.5 39.5t-40.5 107.5q0 17 5 45l25 136q25 130 21 163h41q11 -16 -2 -87l-39 -212q-4 -20 -4 -40q0 -56 31 -84.5t70 -28.5q86 0 140.5 106t54.5 262q0 57 -9 84z" />
    <glyph glyph-name="phi" unicode="&#x3c6;" horiz-adv-x="569" 
d="M225 26l62 338q22 127 112 127q55 0 97.5 -51.5t42.5 -134.5q0 -138 -81 -225.5t-195 -90.5l-35 -187h-45l35 187q-77 11 -128 63.5t-51 142.5q0 63 21 118t53.5 90.5t62.5 57t56 31.5l17 -29q-24 -11 -49.5 -31t-53 -51.5t-44.5 -78t-17 -99.5q0 -67 34.5 -115.5
t105.5 -61.5zM332 369l-62 -342q92 5 157 81.5t65 190.5q0 62 -27.5 107.5t-70.5 45.5q-47 0 -62 -83z" />
    <glyph glyph-name="chi" unicode="&#x3c7;" horiz-adv-x="393" 
d="M52 480h49l55 -169q15 -43 36 -117h4q44 72 77 120l108 166h52l-224 -330l119 -341l-44 -15l-57 171l-49 149h-4q-11 -16 -34.5 -54l-29.5 -48l-140 -218l-40 18l231 348z" />
    <glyph glyph-name="psi" unicode="&#x3c8;" horiz-adv-x="583" 
d="M492 480h45q13 -30 13 -85q0 -175 -76.5 -288.5t-201.5 -117.5l-34 -187h-45l34 187q-74 5 -118.5 48.5t-45.5 125.5q0 30 8 73l26 145q14 73 10 99h42q8 -18 -4 -83l-29 -161q-7 -36 -7 -70q1 -68 36 -102t90 -37l107 580h45l-108 -580q84 1 154.5 97t70.5 266
q0 64 -12 90z" />
    <glyph glyph-name="omega" unicode="&#x3c9;" horiz-adv-x="651" 
d="M518 489h44q22 -23 38 -70t16 -98q0 -140 -61.5 -236t-143.5 -96q-95 0 -111 93h-3q-45 -93 -131 -93q-53 0 -91.5 46t-38.5 130q0 105 44.5 195.5t92.5 128.5h48v-2q-51 -41 -95 -128.5t-44 -190.5q0 -69 28 -104.5t66 -35.5q41 0 72.5 39.5t42.5 100.5l33 188h45
l-32 -174q-6 -28 -6 -53q0 -39 20 -70t64 -31q55 0 105 84t50 199q0 57 -14.5 104.5t-37.5 71.5v2z" />
    <glyph glyph-name="iotadieresis" unicode="&#x3ca;" horiz-adv-x="206" 
d="M79 564h-1q-16 0 -25.5 11.5t-9.5 27.5q0 15 11.5 27.5t27.5 12.5t26 -11.5t10 -27.5t-10.5 -28t-28.5 -12zM249 564h-1q-16 0 -26 11.5t-10 27.5q0 15 11.5 27.5t27.5 12.5q17 0 27 -11.5t10 -27.5t-11 -28t-28 -12zM174 480l-73 -384q-8 -38 -1 -53t34 -14l-11 -38
q-8 -2 -20 -2q-52 0 -52 65q0 3 20 121l59 305h44z" />
    <glyph glyph-name="upsilondieresis" unicode="&#x3cb;" horiz-adv-x="479" 
d="M200 564h-1q-16 0 -25.5 11.5t-9.5 27.5q0 15 11.5 27.5t26.5 12.5q17 0 27 -11.5t10 -27.5t-10.5 -28t-28.5 -12zM370 564h-1q-16 0 -26 11.5t-10 27.5q0 15 11.5 27.5t27.5 12.5t26 -11.5t10 -27.5t-10.5 -28t-27.5 -12zM390 480h44q11 -24 11 -85q0 -70 -14.5 -138.5
t-43 -130t-79.5 -99.5t-116 -38q-57 0 -96.5 39.5t-39.5 107.5q0 17 5 45l25 136q25 130 21 163h41q11 -16 -2 -87l-39 -212q-4 -20 -4 -40q0 -56 30.5 -84.5t69.5 -28.5q86 0 141 106t55 262q0 57 -9 84z" />
    <glyph glyph-name="omicrontonos" unicode="&#x3cc;" horiz-adv-x="500" 
d="M355 678h73l-134 -138h-41zM217 -11h-1q-85 0 -131.5 57.5t-46.5 138.5q0 120 73.5 213t180.5 93q90 0 134 -59t44 -142q0 -68 -29.5 -136t-89.5 -116.5t-134 -48.5zM221 28h1q80 0 140.5 81.5t60.5 181.5q0 26 -6.5 52.5t-21 52t-42 41.5t-64.5 16q-86 0 -145 -80.5
t-59 -183.5q0 -70 37.5 -115.5t98.5 -45.5z" />
    <glyph glyph-name="upsilontonos" unicode="&#x3cd;" horiz-adv-x="479" 
d="M331 678h74l-135 -138h-40zM390 480h44q11 -24 11 -85q0 -70 -14.5 -138.5t-43 -130t-79.5 -99.5t-116 -38q-57 0 -96.5 39.5t-39.5 107.5q0 17 5 45l25 136q25 130 21 163h41q11 -16 -2 -87l-39 -212q-4 -20 -4 -40q0 -56 30.5 -84.5t69.5 -28.5q86 0 141 106t55 262
q0 57 -9 84z" />
    <glyph glyph-name="omegatonos" unicode="&#x3ce;" horiz-adv-x="651" 
d="M441 678h73l-134 -138h-41zM518 489h44q22 -23 38 -70t16 -98q0 -140 -61.5 -236t-143.5 -96q-95 0 -111 93h-3q-45 -93 -131 -93q-53 0 -91.5 46t-38.5 130q0 105 44.5 195.5t92.5 128.5h48v-2q-51 -41 -95 -128.5t-44 -190.5q0 -69 28 -104.5t66 -35.5q41 0 72.5 39.5
t42.5 100.5l33 188h45l-32 -174q-6 -28 -6 -53q0 -39 20 -70t63 -31q55 0 105.5 84t50.5 199q0 57 -14.5 104.5t-37.5 71.5v2z" />
    <glyph glyph-name="afii10023" unicode="&#x401;" horiz-adv-x="441" 
d="M404 375l-8 -39h-248l-56 -297h280l-8 -39h-325l128 674h310l-8 -39h-264l-50 -260h249zM253 726h-1q-15 0 -25.5 12t-10.5 27t11.5 27.5t27.5 12.5t26 -12t10 -27t-11 -27.5t-27 -12.5zM423 726h-1q-15 0 -25 12t-10 27t11.5 27.5t27.5 12.5t26 -12t10 -27t-11 -27.5
t-28 -12.5z" />
    <glyph glyph-name="afii10051" unicode="&#x402;" horiz-adv-x="600" 
d="M72 674h471l-8 -39h-238l-44 -231h2q65 45 139 45q75 0 120 -55.5t45 -147.5q0 -82 -28.5 -160t-79.5 -130q-66 -68 -160 -88l-9 36q85 24 136 81q93 106 93 267q0 69 -33.5 113t-96.5 44q-65 0 -136 -48l-69 -361h-45l122 635h-189z" />
    <glyph glyph-name="afii10052" unicode="&#x403;" horiz-adv-x="354" 
d="M167 674h281l-8 -40h-235l-121 -634h-45zM373 823h77l-140 -113h-44z" />
    <glyph glyph-name="afii10053" unicode="&#x404;" horiz-adv-x="537" 
d="M578 651l-18 -37q-52 31 -133 31q-122 0 -210.5 -78.5t-109.5 -200.5h349l-7 -38h-349q-5 -20 -5 -51q0 -112 58.5 -180.5t168.5 -68.5q77 0 148 38l12 -36q-78 -41 -181 -41q-120 0 -186.5 79.5t-66.5 208.5q0 83 30 161t83 133q111 114 273 114q88 0 144 -34z" />
    <glyph glyph-name="afii10054" unicode="&#x405;" horiz-adv-x="438" 
d="M19 36l19 36q58 -43 133 -43q70 0 120 42.5t50 113.5q0 45 -24 79.5t-79 65.5q-131 72 -131 170q0 81 59.5 133t144.5 52q39 0 74 -11.5t51 -25.5l-19 -35q-53 33 -112 33q-67 0 -110 -41t-43 -94q0 -47 24.5 -78t84.5 -65q64 -35 94.5 -78t30.5 -104q0 -79 -58 -138
t-166 -59q-39 0 -81.5 14t-61.5 33z" />
    <glyph glyph-name="afii10055" unicode="&#x406;" horiz-adv-x="208" 
d="M167 674h46l-129 -674h-45z" />
    <glyph glyph-name="afii10056" unicode="&#x407;" horiz-adv-x="208" 
d="M167 674h46l-129 -674h-45zM121 726h-1q-15 0 -25 12t-10 27t11.5 27.5t26.5 12.5q16 0 26.5 -12t10.5 -27t-11 -27.5t-28 -12.5zM292 726h-1q-15 0 -25.5 12t-10.5 27t11.5 27.5t27.5 12.5t26.5 -12t10.5 -27t-11 -27.5t-28 -12.5z" />
    <glyph glyph-name="afii10057" unicode="&#x408;" horiz-adv-x="342" 
d="M220 203l89 471h45l-90 -475q-21 -111 -68.5 -160.5t-130.5 -49.5q-62 0 -93 18l12 39q32 -16 87 -16q60 0 95.5 39t53.5 134z" />
    <glyph glyph-name="afii10058" unicode="&#x409;" horiz-adv-x="831" 
d="M221 674h337l-50 -265q28 7 79 7q92 0 148.5 -46.5t56.5 -137.5q0 -100 -71 -163q-83 -74 -226 -74q-63 0 -111 6l120 634h-246l-43 -234q-51 -273 -146 -359q-51 -47 -107 -50l-4 39q44 5 81 42q83 79 129 324zM499 370l-62 -330q27 -6 74 -6q95 0 165 51.5t70 143.5
q0 148 -168 148q-40 0 -79 -7z" />
    <glyph glyph-name="afii10059" unicode="&#x40a;" horiz-adv-x="836" 
d="M167 674h46l-55 -283h306l54 283h46l-52 -274q28 7 76 7q91 0 150 -46.5t59 -137.5q0 -95 -69 -158q-77 -70 -225 -70q-65 0 -113 6l67 354h-307l-66 -355h-45zM504 361l-61 -322q23 -5 77 -5q99 0 165 50.5t66 138.5q0 70 -49 107.5t-124 37.5q-37 0 -74 -7z" />
    <glyph glyph-name="afii10060" unicode="&#x40b;" horiz-adv-x="622" 
d="M73 674h468l-7 -39h-239l-45 -231h2q23 18 67 33.5t93 15.5q71 0 109 -42.5t38 -104.5q0 -36 -11 -98l-40 -208h-45l40 207q12 62 12 91q0 51 -29 82.5t-93 31.5q-42 0 -84 -16t-68 -37l-68 -359h-44l121 635h-185z" />
    <glyph glyph-name="afii10061" unicode="&#x40c;" horiz-adv-x="485" 
d="M167 674h44l-59 -316h23l309 316h56l-319 -321q78 -7 118 -52.5t56 -131.5q2 -13 7 -49t10 -65.5t13 -54.5h-47q-6 20 -11 45.5t-10.5 64.5l-6.5 46q-17 92 -57 129.5t-129 37.5h-19l-61 -323h-45zM404 823h77l-140 -113h-44z" />
    <glyph glyph-name="afii10062" unicode="&#x40e;" horiz-adv-x="457" 
d="M94 674h48l98 -338l30 -110h1l68 141l150 307h48l-152 -308q-124 -253 -185 -318q-56 -59 -123 -59q-32 0 -51 11l12 39q20 -8 42 -8q81 0 151 135q8 15 2 35zM223 824h41q0 -25 16 -42.5t49 -17.5q66 0 81 60h43q-7 -39 -40.5 -67t-84.5 -28q-54 0 -80 27t-25 68z" />
    <glyph glyph-name="afii10145" unicode="&#x40f;" horiz-adv-x="585" 
d="M167 674h46l-121 -635h332l122 635h44l-128 -674h-183l-38 -165h-39l25 165h-188z" />
    <glyph glyph-name="afii10017" unicode="&#x410;" horiz-adv-x="537" 
d="M402 237h-257l-124 -237h-47l361 674h44l102 -674h-44zM168 276h227l-34 225q-11 93 -13 119h-3q-39 -85 -56 -117z" />
    <glyph glyph-name="afii10018" unicode="&#x411;" horiz-adv-x="486" 
d="M167 674h297l-6 -39h-252l-43 -225q29 6 78 6q92 0 148 -47t56 -137q0 -106 -73 -168q-80 -69 -222 -69q-63 0 -111 6zM155 371l-63 -332q30 -5 77 -5q92 0 161 51t69 139q0 77 -44 115t-123 38q-33 0 -77 -6z" />
    <glyph glyph-name="afii10019" unicode="&#x412;" horiz-adv-x="479" 
d="M40 4l125 662q69 13 125 13q103 0 148 -53q30 -35 30 -94q0 -61 -45 -109.5t-106 -63.5v-3q49 -13 81.5 -52t31.5 -99q0 -94 -73 -154q-70 -56 -196 -56q-76 0 -121 9zM204 634l-49 -257h71q83 0 138.5 43t55.5 114q0 107 -139 107q-57 0 -77 -7zM148 340l-57 -300
q30 -5 76 -5q92 -1 154 41.5t62 132.5q0 62 -44.5 96.5t-109.5 34.5h-81z" />
    <glyph glyph-name="afii10020" unicode="&#x413;" horiz-adv-x="354" 
d="M167 674h281l-8 -40h-235l-121 -634h-45z" />
    <glyph glyph-name="afii10021" unicode="&#x414;" horiz-adv-x="565" 
d="M226 674h320l-120 -635h53l-46 -197h-39l28 158h-424l-36 -158h-38l31 197h44q70 93 117 197q46 112 76 263zM262 635l-30 -159q-28 -140 -72 -248q-47 -113 -111 -189h331l113 596h-231z" />
    <glyph glyph-name="afii10022" unicode="&#x415;" horiz-adv-x="441" 
d="M404 375l-8 -39h-248l-56 -297h280l-8 -39h-325l128 674h310l-8 -39h-264l-50 -260h249z" />
    <glyph glyph-name="afii10024" unicode="&#x416;" horiz-adv-x="726" 
d="M119 674h48l175 -316h22l59 316h43l-59 -315h26l287 315h55l-301 -320q69 -6 104.5 -49.5t52.5 -123.5q4 -19 13 -83t19 -98h-46q-7 28 -15.5 87.5t-13.5 84.5q-16 81 -50.5 116t-111.5 35h-26l-61 -323h-43l60 323h-23q-79 0 -128 -38.5t-95 -131.5q-26 -56 -77 -153
h-51q14 22 29.5 50.5l36 69.5l29.5 58q49 90 96.5 130t128.5 46z" />
    <glyph glyph-name="afii10025" unicode="&#x417;" horiz-adv-x="414" 
d="M120 338l7 40h22q48 0 92.5 16.5t77 54t32.5 88.5q0 50 -30.5 80t-79.5 30q-64 0 -126 -39l-14 31q66 46 147 46q64 0 106.5 -38.5t42.5 -106.5t-45 -115t-111 -64v-2q57 -13 92 -55t35 -105q0 -94 -64 -152t-165 -58q-85 0 -153 44l19 36q22 -15 60.5 -28t76.5 -13
q78 0 129 46.5t51 126.5q0 66 -52.5 103t-121.5 35z" />
    <glyph glyph-name="afii10026" unicode="&#x418;" horiz-adv-x="611" 
d="M167 674h44l-68 -362q-34 -175 -53 -247l1 -1q61 91 157 211l324 399h44l-128 -674h-43l71 376q26 141 50 233l-3 2q-49 -76 -168 -224l-311 -387h-45z" />
    <glyph glyph-name="afii10027" unicode="&#x419;" horiz-adv-x="611" 
d="M167 674h44l-68 -362q-34 -175 -53 -247l1 -1q61 91 157 211l324 399h44l-128 -674h-43l71 376q26 141 50 233l-3 2q-49 -76 -168 -224l-311 -387h-45zM304 824h40q1 -25 17 -42.5t49 -17.5q65 0 80 60h44q-8 -40 -41.5 -67.5t-83.5 -27.5q-55 0 -80.5 27t-24.5 68z" />
    <glyph glyph-name="afii10028" unicode="&#x41a;" horiz-adv-x="485" 
d="M167 674h44l-59 -316h23l309 316h56l-319 -321q78 -7 118 -52.5t56 -131.5q2 -13 7 -49t10 -65.5t13 -54.5h-47q-6 20 -11 45.5t-10.5 64.5l-6.5 46q-17 92 -57 129.5t-129 37.5h-19l-61 -323h-45z" />
    <glyph glyph-name="afii10029" unicode="&#x41b;" horiz-adv-x="560" 
d="M221 674h343l-129 -674h-45l122 635h-254l-43 -234q-51 -273 -146 -359q-41 -46 -106 -50l-5 38q44 6 81 43q84 77 130 324z" />
    <glyph glyph-name="afii10030" unicode="&#x41c;" horiz-adv-x="754" 
d="M649 0h-45l53 417q15 125 31 206h-3q-60 -124 -99 -194l-239 -429h-33l-66 419q-12 72 -26 204h-2l-22 -95l-26 -111l-107 -417h-45l178 674h52l73 -467q16 -97 19 -141h3q25 55 70 137l261 471h55z" />
    <glyph glyph-name="afii10031" unicode="&#x41d;" horiz-adv-x="603" 
d="M167 674h46l-58 -297h351l57 297h45l-129 -674h-45l64 338h-350l-64 -338h-45z" />
    <glyph glyph-name="afii10032" unicode="&#x41e;" horiz-adv-x="645" 
d="M294 -11h-1q-63 0 -111 23t-76.5 62t-42.5 86t-14 99q0 87 32.5 176t88.5 151q42 45 102 72t121 27q66 0 115 -23.5t76.5 -63.5t40 -86.5t12.5 -99.5q0 -85 -30 -172.5t-84 -147.5q-93 -103 -229 -103zM299 28h1q117 0 204 119t87 262q0 34 -4.5 64t-18 63t-35.5 56.5
t-59.5 38.5t-87.5 15q-82 0 -150.5 -59.5t-104.5 -146t-36 -173.5q0 -37 6.5 -70.5t21.5 -65t38 -54t58.5 -36t79.5 -13.5z" />
    <glyph glyph-name="afii10033" unicode="&#x41f;" horiz-adv-x="586" 
d="M167 674h424l-129 -674h-45l122 635h-334l-121 -635h-45z" />
    <glyph glyph-name="afii10034" unicode="&#x420;" horiz-adv-x="476" 
d="M39 0l127 666q65 13 128 13q109 0 157 -57q34 -43 34 -109q0 -49 -21.5 -93.5t-53.5 -72.5q-73 -66 -197 -66q-44 0 -75 6l-54 -287h-45zM204 632l-58 -304q32 -8 74 -8q98 0 158.5 53.5t60.5 138.5q0 65 -41.5 96.5t-112.5 31.5q-54 0 -81 -8z" />
    <glyph glyph-name="afii10035" unicode="&#x421;" horiz-adv-x="538" 
d="M470 62l10 -38q-76 -35 -173 -35q-122 0 -190.5 74.5t-68.5 202.5q0 87 33 172t95 144q109 103 258 103q52 0 92 -11t53 -24l-19 -36q-48 31 -138 31q-125 0 -217 -90q-51 -50 -80.5 -125.5t-29.5 -155.5q0 -51 11 -93t35.5 -77t69 -55t105.5 -20q94 0 154 33z" />
    <glyph glyph-name="afii10036" unicode="&#x422;" horiz-adv-x="441" 
d="M152 0l121 635h-209l8 39h462l-7 -39h-209l-121 -635h-45z" />
    <glyph glyph-name="afii10037" unicode="&#x423;" horiz-adv-x="457" 
d="M94 674h48l98 -338l30 -110h1l68 141l150 307h48l-152 -308q-124 -253 -185 -318q-56 -59 -123 -59q-32 0 -51 11l12 39q20 -8 42 -8q81 0 151 135q8 15 2 35z" />
    <glyph glyph-name="afii10038" unicode="&#x424;" horiz-adv-x="658" 
d="M259 -25l11 55q-92 11 -152.5 79.5t-60.5 180.5q0 90 30.5 162t80 113.5t106 63t114.5 20.5l11 50h44l-10 -52q94 -10 153 -79t59 -189q0 -160 -93 -255.5t-238 -96.5l-10 -52h-45zM278 67l103 546q-48 0 -95.5 -20t-89 -57.5t-67.5 -99.5t-26 -139q0 -95 48.5 -155.5
t126.5 -74.5zM425 611l-103 -548q91 3 155.5 49t93 116t28.5 156q0 98 -48.5 158t-125.5 69z" />
    <glyph glyph-name="afii10039" unicode="&#x425;" horiz-adv-x="492" 
d="M435 0h-48l-76 187q-26 60 -47 119h-2l-85 -114l-147 -192h-54l270 343l-131 331h48l78 -200q18 -43 36 -96h2l71 95l160 201h55l-269 -330z" />
    <glyph glyph-name="afii10040" unicode="&#x426;" horiz-adv-x="590" 
d="M167 674h46l-121 -635h332l122 635h44l-121 -635h53l-46 -197h-39l28 158h-426z" />
    <glyph glyph-name="afii10041" unicode="&#x427;" horiz-adv-x="525" 
d="M140 674h45l-37 -195q-12 -63 -12 -90q0 -54 33 -82.5t92 -28.5q47 0 91.5 16.5t68.5 35.5l65 344h44l-128 -680h-45l55 290h-2q-72 -45 -161 -45q-75 0 -117 38.5t-42 105.5q0 36 14 102z" />
    <glyph glyph-name="afii10042" unicode="&#x428;" horiz-adv-x="770" 
d="M167 674h46l-121 -635h235l120 635h46l-121 -635h236l120 635h46l-129 -674h-606z" />
    <glyph glyph-name="afii10043" unicode="&#x429;" horiz-adv-x="774" 
d="M167 674h46l-121 -635h235l120 635h46l-121 -635h236l120 635h46l-121 -635h52l-46 -197h-39l29 158h-610z" />
    <glyph glyph-name="afii10044" unicode="&#x42a;" horiz-adv-x="577" 
d="M72 674h239l-50 -265q35 7 79 7q92 0 148 -46.5t56 -137.5q0 -103 -70 -166q-80 -71 -225 -71q-62 0 -112 6l121 634h-194zM253 368l-62 -329q28 -5 77 -5q93 0 161.5 50.5t68.5 142.5q0 76 -44.5 113t-122.5 37q-31 0 -78 -9z" />
    <glyph glyph-name="afii10045" unicode="&#x42b;" horiz-adv-x="662" 
d="M167 674h46l-50 -265q35 7 78 7q92 0 148 -46.5t56 -137.5q0 -99 -67 -163q-83 -74 -228 -74q-63 0 -111 6zM154 369l-62 -329q27 -6 77 -6q91 0 160.5 51.5t69.5 139.5q0 152 -168 152q-33 0 -77 -8zM620 674h47l-129 -674h-47z" />
    <glyph glyph-name="afii10046" unicode="&#x42c;" horiz-adv-x="484" 
d="M167 674h46l-50 -265q32 7 78 7q92 0 148 -46.5t56 -137.5q0 -102 -67 -164q-83 -73 -228 -73q-63 0 -111 6zM154 369l-62 -329q27 -6 77 -6q94 0 162 51t68 140q0 152 -168 152q-43 0 -77 -8z" />
    <glyph glyph-name="afii10047" unicode="&#x42d;" horiz-adv-x="520" 
d="M135 326l8 39h320q2 13 2 46q0 101 -56.5 167.5t-158.5 66.5q-81 0 -145 -31l-11 34q67 37 162 37q121 0 189 -75.5t68 -208.5q0 -86 -30 -170.5t-90 -146.5q-96 -95 -241 -95q-99 0 -165 42l18 37q66 -39 145 -39q128 0 209 83.5t100 213.5h-324z" />
    <glyph glyph-name="afii10048" unicode="&#x42e;" horiz-adv-x="814" 
d="M167 674h46l-58 -297h112q27 126 100 209q40 45 96.5 72t113.5 27q62 0 108 -23.5t72 -63.5t38 -86.5t12 -99.5q0 -84 -29 -172t-79 -148q-87 -103 -215 -103q-114 0 -172.5 79.5t-58.5 190.5q0 41 7 79h-112l-64 -338h-45zM488 28h1q73 0 136.5 56.5t99.5 144.5t36 180
q0 237 -190 237q-77 0 -141 -59.5t-98 -146t-34 -173.5q0 -47 10 -88t31.5 -76t59.5 -55t89 -20z" />
    <glyph glyph-name="afii10049" unicode="&#x42f;" horiz-adv-x="486" 
d="M491 665l-127 -665h-45l60 311h-69q-45 0 -78.5 -12t-58.5 -40.5t-40 -53t-37 -71.5q-58 -122 -65 -134h-50q12 18 25 44.5l29 61l22 47.5q23 47 39.5 75t48 58t69.5 41v2q-112 36 -112 144q0 106 93 169q74 37 167 37q66 0 129 -14zM385 348l54 285q-32 8 -81 8
q-88 0 -148.5 -42t-60.5 -124q0 -62 45.5 -94.5t114.5 -32.5h76z" />
    <glyph glyph-name="afii10065" unicode="&#x430;" horiz-adv-x="503" 
d="M402 0h-43q-1 37 13 142h-2q-76 -153 -201 -153q-61 0 -97 43.5t-36 109.5q0 135 93 242t231 107q60 0 111 -14l-48 -250q-25 -134 -21 -227zM389 277l31 166q-22 9 -69 9q-108 0 -188 -90t-81 -212q0 -122 97 -122q65 0 128 74.5t82 174.5z" />
    <glyph glyph-name="afii10066" unicode="&#x431;" horiz-adv-x="487" 
d="M517 721l-8 -45q-13 -6 -58 -17q-67 -11 -104.5 -21t-83 -37.5t-78.5 -72.5q-45 -65 -69 -156h3q31 49 78.5 78.5t105.5 29.5q73 0 113.5 -50.5t40.5 -130.5q0 -53 -16 -106.5t-45.5 -99.5t-78 -75t-107.5 -29q-82 0 -122 59t-40 159q0 95 29 186.5t78 155.5
q53 72 119 102.5t171 49.5q33 5 72 20zM217 27h1q59 0 104.5 43.5t66.5 103t21 119.5q0 65 -29 106.5t-87 41.5q-44 0 -86 -27t-71 -70q-42 -64 -42 -156q0 -67 31 -114t91 -47z" />
    <glyph glyph-name="afii10067" unicode="&#x432;" horiz-adv-x="441" 
d="M289 491h1q47 0 79.5 -27t32.5 -79q0 -46 -34 -77.5t-81 -47.5v-2q41 -6 70.5 -34.5t29.5 -77.5q0 -75 -58.5 -116t-135.5 -41q-65 0 -104.5 32t-39.5 103q0 78 34 180t91 147q52 40 115 40zM279 453h-1q-113 0 -164 -194q143 18 189 46q55 34 55 78q0 34 -22 52t-57 18z
M222 236h-1q-54 0 -114 -15q-11 -55 -11 -91q0 -102 103 -102q57 0 99.5 31t42.5 84q0 47 -33 70t-86 23z" />
    <glyph glyph-name="afii10068" unicode="&#x433;" horiz-adv-x="335" 
d="M117 425l-13 33q52 33 110 32q54 -1 82.5 -30.5t28.5 -76.5q0 -54 -35 -86t-103 -65q-40 -19 -62.5 -33t-41 -38t-18.5 -53q0 -34 21 -55.5t63 -22.5q54 -1 105 29l12 -33q-22 -15 -57.5 -26t-70.5 -10q-55 1 -87 33t-32 85q0 55 34.5 89t100.5 68q75 36 97 56
q30 27 30 61q0 30 -19 49t-55 20q-39 1 -90 -26z" />
    <glyph glyph-name="afii10069" unicode="&#x434;" horiz-adv-x="470" 
d="M142 679l-3 42q32 -6 77 -10q62 -6 102.5 -22.5t70.5 -51.5q32 -36 48.5 -94.5t16.5 -118.5q0 -63 -13.5 -132.5t-41 -140t-80.5 -116.5t-123 -46q-78 0 -119 50.5t-41 134.5q0 70 25 138.5t79.5 118t126.5 49.5q56 0 93 -30.5t50 -82.5h2q0 7 0.5 25t0.5 29
q0 51 -14.5 104.5t-43.5 85.5q-25 28 -56 41t-84 18q-53 6 -73 9zM203 27h1q51 0 95.5 46.5t66.5 106t22 110.5q0 62 -32.5 106.5t-89.5 44.5q-59 0 -102 -44.5t-61.5 -102.5t-18.5 -116q0 -64 29.5 -107.5t89.5 -43.5z" />
    <glyph glyph-name="afii10070" unicode="&#x435;" horiz-adv-x="423" 
d="M336 63l13 -35q-59 -39 -145 -39q-85 0 -126 54t-41 134q0 72 32 144t91.5 121t127.5 49q61 0 92.5 -32t31.5 -78q0 -158 -325 -152q-5 -18 -3.5 -56.5t10.5 -61.5q28 -82 116 -82q68 0 126 34zM366 378v1q0 35 -24 54t-62 19q-62 0 -113 -54.5t-73 -130.5
q272 -4 272 111z" />
    <glyph glyph-name="afii10072" unicode="&#x436;" horiz-adv-x="581" 
d="M72 480h51l136 -221h20l43 221h41l-43 -221h22l215 221h53l-226 -223q83 -8 109 -123q3 -10 13.5 -62.5t18.5 -71.5h-42q-7 17 -29 121q-13 62 -41 83.5t-86 21.5h-15l-44 -226h-42l46 227h-12q-63 0 -104 -24.5t-74 -83.5l-64 -119h-47q15 24 65 119q35 67 77.5 101
t105.5 36z" />
    <glyph glyph-name="afii10073" unicode="&#x437;" horiz-adv-x="363" 
d="M92 235l7 38h19q56 0 108.5 28t52.5 79q0 35 -24 54t-61 19q-56 0 -112 -36l-14 31q55 43 127 43q57 0 94 -27.5t37 -82.5q0 -49 -37.5 -81.5t-91.5 -43.5v-1q43 -5 78 -37t35 -77q0 -77 -56.5 -114.5t-136.5 -37.5t-135 37l17 36q54 -34 120 -34q54 0 99 27.5t45 79.5
t-43.5 76t-101.5 24h-26z" />
    <glyph glyph-name="afii10074" unicode="&#x438;" horiz-adv-x="506" 
d="M118 480h45l-52 -274q-9 -45 -9 -75q0 -101 95 -101q54 0 110.5 55t71.5 134l49 261h45l-67 -351q-14 -72 -18 -129h-43l15 99h-2q-30 -49 -76.5 -79.5t-95.5 -30.5q-23 0 -43 5.5t-40.5 19.5t-33 44t-12.5 73q0 29 9 76z" />
    <glyph glyph-name="afii10075" unicode="&#x439;" horiz-adv-x="506" 
d="M118 480h45l-52 -274q-9 -45 -9 -75q0 -101 95 -101q54 0 110.5 55t71.5 134l49 261h45l-67 -351q-14 -72 -18 -129h-43l15 99h-2q-30 -49 -76.5 -79.5t-95.5 -30.5q-23 0 -43 5.5t-40.5 19.5t-33 44t-12.5 73q0 29 9 76zM215 678h42q-3 -32 13.5 -55t46.5 -23
q59 0 83 78h44q-12 -53 -46 -83.5t-83 -30.5q-60 0 -83 34t-17 80z" />
    <glyph glyph-name="afii10076" unicode="&#x43a;" horiz-adv-x="424" 
d="M130 480h44l-42 -221h22l237 221h58l-250 -223q42 -8 70 -39t51 -92q11 -24 25.5 -67.5t23.5 -58.5h-44q-7 15 -22.5 56.5t-24.5 63.5q-26 63 -55.5 84.5t-81.5 21.5h-16l-43 -226h-44z" />
    <glyph glyph-name="afii10077" unicode="&#x43b;" horiz-adv-x="488" 
d="M167 480h291l-91 -480h-45l84 441h-201l-27 -142q-44 -231 -143 -284q-31 -17 -67 -18l-4 38q31 2 50 13q79 47 118 248z" />
    <glyph glyph-name="afii10078" unicode="&#x43c;" horiz-adv-x="639" 
d="M157 480h52l51 -278q3 -21 12 -73.5l12 -69.5h1q28 57 101 181l143 240h55l-60 -480h-44l33 253q17 122 25 171h-5q-6 -15 -84 -152l-160 -272h-36l-47 268q-24 141 -25 157h-3q-17 -86 -41 -174l-67 -251h-44z" />
    <glyph glyph-name="afii10079" unicode="&#x43d;" horiz-adv-x="511" 
d="M129 480h45l-38 -204h262l39 204h45l-91 -480h-45l45 238h-263l-45 -238h-45z" />
    <glyph glyph-name="afii10080" unicode="&#x43e;" horiz-adv-x="498" 
d="M217 -11h-1q-85 0 -131.5 57.5t-46.5 138.5q0 120 73.5 213t180.5 93q90 0 134 -59t44 -142q0 -68 -29.5 -136t-89.5 -116.5t-134 -48.5zM221 28h1q80 0 140.5 81.5t60.5 181.5q0 26 -6.5 52.5t-21 52t-42 41.5t-64.5 16q-86 0 -145 -80.5t-59 -183.5q0 -70 37.5 -115.5
t98.5 -45.5z" />
    <glyph glyph-name="afii10081" unicode="&#x43f;" horiz-adv-x="516" 
d="M83 0h-45l66 351q14 77 21 129h42l-15 -103h2q32 53 80.5 83.5t104.5 30.5q19 0 37.5 -5.5t38 -19t32 -42t12.5 -67.5q0 -27 -9 -76l-53 -281h-45l54 285q7 47 7 66q0 100 -92 100q-56 0 -116.5 -58t-76.5 -147z" />
    <glyph glyph-name="afii10082" unicode="&#x440;" horiz-adv-x="503" 
d="M37 -198h-46l99 518q18 93 26 160h43l-16 -103h2q35 53 83.5 83.5t100.5 30.5q73 0 108.5 -49.5t35.5 -118.5q0 -130 -84.5 -232t-198.5 -102q-71 0 -113 23h-2zM113 209l-28 -153q39 -28 109 -28q92 0 162 90.5t70 201.5q0 52 -26 92t-84 40q-60 0 -121 -65.5
t-82 -177.5z" />
    <glyph glyph-name="afii10083" unicode="&#x441;" horiz-adv-x="416" 
d="M341 60l12 -38q-60 -33 -141 -33q-88 0 -131 52.5t-43 126.5q0 125 81.5 224t201.5 99q32 0 62 -8.5t39 -16.5l-16 -38q-46 22 -92 22q-67 0 -120.5 -42.5t-81 -104.5t-27.5 -128q0 -67 33.5 -106.5t101.5 -39.5q61 0 121 31z" />
    <glyph glyph-name="afii10084" unicode="&#x442;" horiz-adv-x="794" 
d="M83 0h-45l66 351q14 77 21 129h42l-15 -97h2q71 108 173 108q52 0 80.5 -31t30.5 -86q67 116 183 117q42 1 79 -29t37 -95q0 -40 -7 -81l-55 -286h-45l54 286q7 31 7 65q0 100 -88 100q-54 0 -107 -52.5t-68 -134.5l-49 -264h-45l56 293q7 32 7 61q0 97 -89 97
q-52 0 -107 -58t-70 -136z" />
    <glyph glyph-name="afii10085" unicode="&#x443;" horiz-adv-x="403" 
d="M50 480h46l60 -289q23 -106 28 -136h2q4 9 24 50l35 73l137 302h49q-127 -276 -177 -377q-80 -160 -159 -240q-65 -67 -131 -83l-13 39q55 20 92 51q59 48 103 128q4 8 2 22z" />
    <glyph glyph-name="afii10086" unicode="&#x444;" horiz-adv-x="643" 
d="M216 -198l55 262h-1q-18 -23 -31.5 -36.5t-39.5 -26t-58 -12.5q-54 0 -82 43.5t-28 107.5q0 49 14 107.5t40 114t70.5 92.5t97.5 37q32 0 54 -20.5t30 -51.5h1l54 291h44l-60 -295h2q54 76 125 76q60 0 87 -46.5t27 -118.5q0 -48 -13.5 -104t-38 -109.5t-67 -88.5
t-94.5 -35q-34 0 -59 22t-34 52h-2l-48 -261h-45zM251 453h-1q-43 0 -78.5 -34.5t-55.5 -85.5t-30.5 -101t-10.5 -89q0 -53 20.5 -84.5t57.5 -31.5q52 0 88.5 47t48.5 107l24 121q6 31 6 63q-1 35 -22 61.5t-47 26.5zM502 453h-1q-65 0 -113 -73q-22 -34 -34 -96l-21 -108
q-5 -27 -5 -50q0 -34 22.5 -66.5t57.5 -32.5q52 0 91.5 55t56 120.5t16.5 121.5q0 129 -70 129z" />
    <glyph glyph-name="afii10087" unicode="&#x445;" horiz-adv-x="405" 
d="M72 480h48l58 -125l33 -74h3q29 41 53 70l111 129h53l-203 -234l115 -246h-49l-59 129q-18 37 -37 84h-3q-23 -35 -50 -69l-122 -144h-53l212 247z" />
    <glyph glyph-name="afii10088" unicode="&#x446;" horiz-adv-x="514" 
d="M118 480h45l-52 -274q-9 -45 -9 -75q0 -101 95 -101q54 0 110.5 55t71.5 134l49 261h45l-63 -334q-7 -37 -7 -56q0 -59 64 -62l-50 -158h-35l33 130q-30 5 -47 33q-14 26 -8 66h-2q-30 -49 -76.5 -79.5t-95.5 -30.5q-23 0 -43 5.5t-40.5 19.5t-33 44t-12.5 73q0 29 9 76z
" />
    <glyph glyph-name="afii10089" unicode="&#x447;" horiz-adv-x="474" 
d="M106 480h45l-20 -104q-13 -63 -13 -91q0 -40 20.5 -61.5t74.5 -21.5q34 0 77 17.5t67 40.5l42 220h44l-92 -482h-44l41 215h-2q-69 -49 -144 -49q-130 0 -130 112q0 36 13 95z" />
    <glyph glyph-name="afii10090" unicode="&#x448;" horiz-adv-x="766" 
d="M119 480h45l-54 -285q-7 -44 -7 -66q0 -100 82 -100q54 0 104.5 52.5t65.5 134.5l49 264h45l-56 -293q-7 -32 -7 -61q0 -97 83 -97q49 0 103.5 58.5t68.5 135.5l48 257h45l-65 -346q-6 -35 -11 -134h-43q1 57 5 98h-3q-64 -109 -163 -109q-49 0 -78 31.5t-31 85.5
q-68 -117 -183 -117q-37 0 -71 30t-34 94q0 42 8 81z" />
    <glyph glyph-name="afii10091" unicode="&#x449;" horiz-adv-x="775" 
d="M119 480h45l-54 -285q-7 -44 -7 -66q0 -100 82 -100q51 0 103 53t67 134l49 264h45l-56 -293q-7 -32 -7 -61q0 -97 83 -97q49 0 103.5 58.5t68.5 135.5l48 257h45l-63 -333q-8 -42 -8 -57q0 -59 64 -62l-49 -158h-36l34 130q-31 6 -45.5 34.5t-10.5 62.5h-3
q-69 -108 -167 -108q-48 0 -75.5 31t-29.5 86q-68 -117 -178 -117q-38 0 -74 30t-36 94q0 42 8 81z" />
    <glyph glyph-name="afii10092" unicode="&#x44a;" horiz-adv-x="474" 
d="M53 480h237l-34.5 -56.5t-38 -64t-29.5 -56.5t-30 -69h1q27 36 67.5 57.5t85.5 21.5q55 0 87 -32t32 -88q0 -83 -63 -141t-149 -58q-59 0 -92 30.5t-33 90.5q0 69 40.5 162t91.5 164h-180zM221 31h1q64 0 113.5 45t49.5 107q0 40 -22 66t-66 26q-47 0 -89.5 -34
t-59.5 -78q-10 -26 -10 -50q0 -36 21.5 -59t61.5 -23z" />
    <glyph glyph-name="afii10093" unicode="&#x44b;" horiz-adv-x="591" 
d="M127 480h45l-58 -243h1q25 33 64.5 54.5t78.5 21.5q57 0 92 -33.5t35 -93.5q0 -82 -64 -137t-153 -55q-119 0 -119 97q0 37 11 83zM173 31h1q65 0 115.5 43t50.5 108q0 41 -23 67t-69 26t-90 -37.5t-56 -85.5q-9 -36 -9 -58q0 -63 80 -63zM515 480h47l-92 -480h-47z" />
    <glyph glyph-name="afii10094" unicode="&#x44c;" horiz-adv-x="430" 
d="M127 480h46l-59 -244h2q25 34 65 55.5t81 21.5q56 0 90 -33t34 -91q0 -84 -63.5 -139.5t-151.5 -55.5q-121 0 -121 101q0 34 11 82zM172 31h1q67 0 117 43t50 108q0 93 -89 93q-46 0 -89 -36t-57 -79q-12 -34 -12 -62q0 -32 21.5 -49.5t57.5 -17.5z" />
    <glyph glyph-name="afii10095" unicode="&#x44d;" horiz-adv-x="421" 
d="M99 227l5 38h236q1 8 1 24q0 68 -41.5 115t-112.5 47q-60 0 -114 -25l-11 34q53 32 128 32q93 0 144.5 -59.5t51.5 -161.5q0 -119 -71 -200.5t-189 -81.5q-87 0 -137 36l18 36q54 -32 118 -32q86 0 141.5 53t69.5 145h-237z" />
    <glyph glyph-name="afii10096" unicode="&#x44e;" horiz-adv-x="658" 
d="M129 480h46l-39 -204h86q22 93 85.5 154t146.5 61q87 0 130.5 -60t43.5 -141q0 -68 -28.5 -136t-86.5 -116.5t-130 -48.5q-82 0 -127.5 57.5t-45.5 138.5q0 21 5 53h-87l-45 -238h-45zM387 27h1q78 0 135.5 81.5t57.5 182.5q0 36 -10.5 70.5t-41.5 63t-78 28.5
q-83 0 -139.5 -82t-56.5 -182q0 -67 36.5 -114.5t95.5 -47.5z" />
    <glyph glyph-name="afii10097" unicode="&#x44f;" horiz-adv-x="439" 
d="M410 475l-91 -475h-44l42 217h-62q-61 0 -97 -26t-64 -82q-46 -97 -53 -109h-47q11 19 21.5 39.5t22 46.5t19.5 42q49 92 128 107v1q-46 12 -74.5 39.5t-28.5 69.5q0 52 33.5 85t77.5 44t98 11q55 0 119 -10zM324 254l36 188q-37 7 -74 7q-156 0 -156 -106q0 -43 44 -66
t92 -23h58z" />
    <glyph glyph-name="afii10071" unicode="&#x451;" horiz-adv-x="423" 
d="M336 63l13 -35q-59 -39 -145 -39q-85 0 -126 54t-41 134q0 72 32 144t91.5 121t127.5 49q61 0 92.5 -32t31.5 -78q0 -158 -325 -152q-5 -18 -3.5 -56.5t10.5 -61.5q28 -82 116 -82q68 0 126 34zM366 378v1q0 35 -24 54t-62 19q-62 0 -113 -54.5t-73 -130.5
q272 -4 272 111zM221 580h-1q-16 0 -25.5 11t-9.5 27t11 28t26 12q16 0 26 -11t10 -27t-10 -28t-27 -12zM389 580h-1q-15 0 -24.5 11t-9.5 27t11 28t27 12t25.5 -11t9.5 -27t-10 -28t-28 -12z" />
    <glyph glyph-name="afii10099" unicode="&#x452;" horiz-adv-x="512" 
d="M173 710h44l-18 -97h268l-10 -37h-265l-34 -175h2q72 90 167 90q74 0 110.5 -54.5t36.5 -149.5q0 -117 -43.5 -229t-130.5 -172q-50 -36 -108 -48l-11 37q56 15 100 50q68 49 107.5 149.5t39.5 208.5q0 169 -112 169q-61 0 -114 -55t-64 -113l-54 -284h-46l110 576h-66
l9 37h64z" />
    <glyph glyph-name="afii10100" unicode="&#x453;" horiz-adv-x="335" 
d="M117 425l-13 33q52 33 110 32q54 -1 82.5 -30.5t28.5 -76.5q0 -54 -35 -86t-103 -65q-40 -19 -62.5 -33t-41 -38t-18.5 -53q0 -34 21 -55.5t63 -22.5q54 -1 105 29l12 -33q-22 -15 -57.5 -26t-70.5 -10q-55 1 -87 33t-32 85q0 55 34.5 89t100.5 68q75 36 97 56
q30 27 30 61q0 30 -19 49t-55 20q-39 1 -90 -26zM304 678h74l-135 -138h-40z" />
    <glyph glyph-name="afii10101" unicode="&#x454;" horiz-adv-x="409" 
d="M423 460l-19 -36q-47 28 -103 28q-81 0 -136 -54t-73 -134h253l-8 -37h-251q-2 -24 -2 -32q2 -73 43.5 -120t116.5 -47q56 0 102 23l13 -33q-48 -29 -132 -29q-89 0 -139 57.5t-50 148.5q0 123 78 212q77 84 189 84q68 0 118 -31z" />
    <glyph glyph-name="afii10102" unicode="&#x455;" horiz-adv-x="346" 
d="M16 20l17 37q40 -28 90 -28q48 0 79 29.5t31 70.5q0 35 -15.5 58.5t-55.5 47.5q-77 46 -77 119q0 57 43 97t108 40q54 0 85 -23l-17 -39q-32 23 -74 23q-43 0 -71.5 -26.5t-28.5 -64.5q0 -32 17 -53.5t53 -43.5q79 -47 79 -123q0 -69 -47 -110.5t-113 -41.5
q-63 0 -103 31z" />
    <glyph glyph-name="afii10103" unicode="&#x456;" horiz-adv-x="206" 
d="M83 0h-45l92 480h45zM177 585h-1q-15 0 -25 12t-9 29t12 29.5t26 12.5q16 0 26 -12t10 -30q-1 -17 -11.5 -29t-27.5 -12z" />
    <glyph glyph-name="afii10104" unicode="&#x457;" horiz-adv-x="206" 
d="M83 0h-45l92 480h45zM86 580h-1q-16 0 -25.5 11t-9.5 27t11 28t27 12t26 -11t10 -27t-10.5 -28t-27.5 -12zM255 580h-1q-16 0 -25 11t-9 27t11 28t26 12q16 0 25.5 -11t9.5 -27t-10 -28t-27 -12z" />
    <glyph glyph-name="afii10105" unicode="&#x458;" horiz-adv-x="197" 
d="M129 480h45l-94 -488q-23 -121 -57 -157q-39 -44 -98 -44q-31 0 -46 5l6 38q13 -5 42 -5q38 0 63.5 31t40.5 108zM172 585h-1q-15 0 -24.5 12t-9.5 28q0 17 10.5 30t27.5 13q15 0 25 -11.5t11 -28.5q-1 -18 -11.5 -30.5t-27.5 -12.5z" />
    <glyph glyph-name="afii10106" unicode="&#x459;" horiz-adv-x="705" 
d="M162 480h277l-48 -239h2q65 72 149 72q55 0 87.5 -32.5t32.5 -89.5q0 -86 -63 -141.5t-149 -55.5q-125 0 -125 100q0 27 9 77l53 270h-187l-27 -144q-22 -119 -53 -185.5t-85 -95.5q-33 -19 -68 -19l-4 38q28 0 50 13q77 44 114 246zM451 31h1q66 0 115 42t49 107
q0 43 -21 69t-63 26q-45 0 -87.5 -34t-62.5 -78q-13 -28 -13 -62t22 -52t60 -18z" />
    <glyph glyph-name="afii10107" unicode="&#x45a;" horiz-adv-x="719" 
d="M129 480h45l-35 -189h233l35 189h45l-48 -238h2q26 32 65 51.5t77 19.5q56 0 91.5 -33.5t35.5 -91.5q0 -87 -63 -140.5t-151 -53.5q-125 0 -125 97q0 21 12 81l17 82h-234l-48 -254h-45zM465 31h1q66 0 114.5 42t48.5 107q0 42 -23 68.5t-69 26.5q-45 0 -88 -36.5
t-58 -85.5q-10 -35 -10 -56q0 -32 23 -49t61 -17z" />
    <glyph glyph-name="afii10108" unicode="&#x45b;" horiz-adv-x="516" 
d="M174 710h45l-19 -97h265l-8 -37h-264l-38 -195h2q31 50 78 80t105 30q18 0 36.5 -5.5t38 -18.5t32 -40t12.5 -64q0 -41 -8 -78l-54 -285h-45l55 287q7 35 7 68q0 43 -22.5 69.5t-69.5 26.5q-57 0 -117 -57.5t-75 -139.5l-47 -254h-45l110 576h-66l8 37h65z" />
    <glyph glyph-name="afii10109" unicode="&#x45c;" horiz-adv-x="424" 
d="M130 480h44l-42 -221h22l237 221h58l-250 -223q42 -8 70 -39t51 -92q11 -24 25.5 -67.5t23.5 -58.5h-44q-7 15 -22.5 56.5t-24.5 63.5q-26 63 -55.5 84.5t-81.5 21.5h-16l-43 -226h-44zM350 678h74l-135 -138h-40z" />
    <glyph glyph-name="afii10110" unicode="&#x45e;" horiz-adv-x="403" 
d="M50 480h46l60 -289q23 -106 28 -136h2q4 9 24 50l35 73l137 302h49q-127 -276 -177 -377q-80 -160 -159 -240q-65 -67 -131 -83l-13 39q55 20 92 51q59 48 103 128q4 8 2 22zM159 678h42q-3 -32 13.5 -55t46.5 -23q59 0 83 78h44q-12 -53 -46 -83.5t-83 -30.5
q-60 0 -83 34t-17 80z" />
    <glyph glyph-name="afii10193" unicode="&#x45f;" horiz-adv-x="506" 
d="M118 480h45l-52 -274q-9 -45 -9 -75q0 -101 95 -101q54 0 110.5 55t71.5 134l49 261h45l-67 -351q-14 -72 -18 -129h-43l15 99h-2q-30 -49 -76.5 -79.5t-95.5 -30.5q-23 0 -43 5.5t-40.5 19.5t-33 44t-12.5 73q0 29 9 76zM190 -191l-40 -5l28 154l48 5z" />
    <glyph glyph-name="afii10050" unicode="&#x490;" horiz-adv-x="371" 
d="M165 674h255l38 123h39l-40 -163h-253l-119 -634h-46z" />
    <glyph glyph-name="afii10098" unicode="&#x491;" horiz-adv-x="352" 
d="M129 480h216l37 107h38l-42 -145h-213l-83 -442h-44z" />
    <glyph glyph-name="afii10846" unicode="&#x4d9;" horiz-adv-x="411" 
d="M85 417l-13 36q57 38 145 38q85 0 126 -54t41 -133q0 -73 -32 -145t-91.5 -121t-127.5 -49q-61 0 -92.5 32.5t-31.5 78.5q0 156 325 152q5 17 3.5 56t-10.5 62q-28 82 -116 82q-70 0 -126 -35zM141 29h1q61 0 112 54.5t73 130.5q-272 4 -272 -111q0 -36 24 -55t62 -19z
" />
    <glyph glyph-name="Wgrave" unicode="&#x1e80;" horiz-adv-x="807" 
d="M183 0h-45l-37 674h45l23 -468q2 -45 2 -149h3q21 56 63 143l227 474h46l24 -441q7 -135 6 -176h3q25 72 60 148l222 469h47l-322 -674h-45l-25 449q-7 87 -1 176h-3q-32 -91 -60 -146zM377 823h70l73 -113h-36z" />
    <glyph glyph-name="wgrave" unicode="&#x1e81;" horiz-adv-x="691" 
d="M67 480h43l27 -311q6 -63 6 -115h3q26 61 49 104l173 322h44l42 -318q10 -76 12 -108h2q23 64 41 100l160 326h47l-240 -480h-41l-43 320q-10 70 -9 112h-2l-24 -50t-31 -62l-173 -320h-42zM303 678h66l61 -138h-33z" />
    <glyph glyph-name="Wacute" unicode="&#x1e82;" horiz-adv-x="807" 
d="M183 0h-45l-37 674h45l23 -468q2 -45 2 -149h3q21 56 63 143l227 474h46l24 -441q7 -135 6 -176h3q25 72 60 148l222 469h47l-322 -674h-45l-25 449q-7 87 -1 176h-3q-32 -91 -60 -146zM559 823h77l-139 -113h-44z" />
    <glyph glyph-name="wacute" unicode="&#x1e83;" horiz-adv-x="691" 
d="M67 480h43l27 -311q6 -63 6 -115h3q26 61 49 104l173 322h44l42 -318q10 -76 12 -108h2q23 64 41 100l160 326h47l-240 -480h-41l-43 320q-10 70 -9 112h-2l-24 -50t-31 -62l-173 -320h-42zM468 678h73l-134 -138h-41z" />
    <glyph glyph-name="Wdieresis" unicode="&#x1e84;" horiz-adv-x="807" 
d="M183 0h-45l-37 674h45l23 -468q2 -45 2 -149h3q21 56 63 143l227 474h46l24 -441q7 -135 6 -176h3q25 72 60 148l222 469h47l-322 -674h-45l-25 449q-7 87 -1 176h-3q-32 -91 -60 -146zM418 726h-1q-15 0 -25 12t-10 27t11.5 27.5t26.5 12.5q16 0 26.5 -12t10.5 -27
t-11 -27.5t-28 -12.5zM589 726h-1q-15 0 -25.5 12t-10.5 27t11.5 27.5t27.5 12.5t26.5 -12t10.5 -27t-11 -27.5t-28 -12.5z" />
    <glyph glyph-name="wdieresis" unicode="&#x1e85;" horiz-adv-x="691" 
d="M67 480h43l27 -311q6 -63 6 -115h3q26 61 49 104l173 322h44l42 -318q10 -76 12 -108h2q23 64 41 100l160 326h47l-240 -480h-41l-43 320q-10 70 -9 112h-2l-24 -50t-31 -62l-173 -320h-42zM331 580h-1q-16 0 -25.5 11t-9.5 27t11 28t27 12t26 -11t10 -27t-10.5 -28
t-27.5 -12zM500 580h-1q-16 0 -25 11t-9 27t11 28t26 12q16 0 25.5 -11t9.5 -27t-10 -28t-27 -12z" />
    <glyph glyph-name="uni1EA0" unicode="&#x1ea0;" horiz-adv-x="537" 
d="M402 237h-257l-124 -237h-47l361 674h44l102 -674h-44zM168 276h227l-34 225q-11 93 -13 119h-3q-39 -85 -56 -117zM208 -158h-1q-15 0 -26 12t-11 27t11.5 27t26.5 12t26 -12t11 -27t-11 -27t-26 -12z" />
    <glyph glyph-name="uni1EA1" unicode="&#x1ea1;" horiz-adv-x="503" 
d="M402 0h-43q-1 37 13 142h-2q-76 -153 -201 -153q-61 0 -97 43.5t-36 109.5q0 135 93 242t231 107q60 0 111 -14l-48 -250q-25 -134 -21 -227zM389 277l31 166q-22 9 -69 9q-108 0 -188 -90t-81 -212q0 -122 97 -122q65 0 128 74.5t82 174.5zM193 -160h-1q-15 0 -26 12
t-11 28t11.5 28t27.5 12q15 0 26 -12t11 -28q0 -17 -10.5 -28.5t-27.5 -11.5z" />
    <glyph glyph-name="uni1EA2" unicode="&#x1ea2;" horiz-adv-x="537" 
d="M402 237h-257l-124 -237h-47l361 674h44l102 -674h-44zM168 276h227l-34 225q-11 93 -13 119h-3q-39 -85 -56 -117zM371 712l-30 9q9 17 35.5 43t26.5 45q0 13 -8 21.5t-22 8.5q-29 0 -56 -37l-24 15q38 58 91 58q28 0 46.5 -17t18.5 -42q0 -23 -11.5 -38.5t-33.5 -33
t-33 -32.5z" />
    <glyph glyph-name="uni1EA3" unicode="&#x1ea3;" horiz-adv-x="503" 
d="M402 0h-43q-1 37 13 142h-2q-76 -153 -201 -153q-61 0 -97 43.5t-36 109.5q0 135 93 242t231 107q60 0 111 -14l-48 -250q-25 -134 -21 -227zM389 277l31 166q-22 9 -69 9q-108 0 -188 -90t-81 -212q0 -122 97 -122q65 0 128 74.5t82 174.5zM324 531l-30 11q7 18 37 46
t30 50q0 14 -8.5 22.5t-22.5 8.5q-30 0 -57 -38l-24 15q35 59 94 59q28 0 46 -17t18 -42t-14 -43t-36.5 -37t-32.5 -35z" />
    <glyph glyph-name="uni1EA4" unicode="&#x1ea4;" horiz-adv-x="537" 
d="M402 237h-257l-124 -237h-47l361 674h44l102 -674h-44zM168 276h227l-34 225q-11 93 -13 119h-3q-39 -85 -56 -117zM365 819h36l67 -109h-49l-41 73h-2l-76 -73h-55zM536 887h62l-115 -96h-36z" />
    <glyph glyph-name="uni1EA5" unicode="&#x1ea5;" horiz-adv-x="503" 
d="M402 0h-43q-1 37 13 142h-2q-76 -153 -201 -153q-61 0 -97 43.5t-36 109.5q0 135 93 242t231 107q60 0 111 -14l-48 -250q-25 -134 -21 -227zM389 277l31 166q-22 9 -69 9q-108 0 -188 -90t-81 -212q0 -122 97 -122q65 0 128 74.5t82 174.5zM326 688h39l63 -138h-45
l-41 99h-2l-67 -99h-48zM507 758h62l-114 -120h-36z" />
    <glyph glyph-name="uni1EA6" unicode="&#x1ea6;" horiz-adv-x="537" 
d="M402 237h-257l-124 -237h-47l361 674h44l102 -674h-44zM168 276h227l-34 225q-11 93 -13 119h-3q-39 -85 -56 -117zM411 868h62l61 -99h-35zM365 819h36l67 -109h-49l-41 73h-2l-76 -73h-55z" />
    <glyph glyph-name="uni1EA7" unicode="&#x1ea7;" horiz-adv-x="503" 
d="M402 0h-43q-1 37 13 142h-2q-76 -153 -201 -153q-61 0 -97 43.5t-36 109.5q0 135 93 242t231 107q60 0 111 -14l-48 -250q-25 -134 -21 -227zM389 277l31 166q-22 9 -69 9q-108 0 -188 -90t-81 -212q0 -122 97 -122q65 0 128 74.5t82 174.5zM371 760h57l64 -120h-33z
M316 688h39l63 -138h-45l-41 99h-2l-67 -99h-48z" />
    <glyph glyph-name="uni1EA8" unicode="&#x1ea8;" horiz-adv-x="537" 
d="M402 237h-257l-124 -237h-47l361 674h44l102 -674h-44zM168 276h227l-34 225q-11 93 -13 119h-3q-39 -85 -56 -117zM499 753l-29 14q9 15 37 39.5t28 42.5q0 12 -9.5 21t-23.5 9q-26 0 -57 -33l-20 22q34 46 85 46q30 0 49.5 -17t19.5 -43q0 -22 -13.5 -38.5t-35.5 -33
t-31 -29.5zM368 819h36l67 -109h-49l-41 73h-2l-76 -73h-55z" />
    <glyph glyph-name="uni1EA9" unicode="&#x1ea9;" horiz-adv-x="503" 
d="M402 0h-43q-1 37 13 142h-2q-76 -153 -201 -153q-61 0 -97 43.5t-36 109.5q0 135 93 242t231 107q60 0 111 -14l-48 -250q-25 -134 -21 -227zM389 277l31 166q-22 9 -69 9q-108 0 -188 -90t-81 -212q0 -122 97 -122q65 0 128 74.5t82 174.5zM316 688h39l63 -138h-45
l-41 99h-2l-67 -99h-48zM451 636l-29 14q9 15 37 39t28 42q0 13 -9.5 21.5t-24.5 8.5q-26 0 -56 -32l-20 21q32 46 85 46q30 0 49.5 -17t19.5 -42q0 -22 -13.5 -38.5t-35.5 -33.5t-31 -29z" />
    <glyph glyph-name="uni1EAA" unicode="&#x1eaa;" horiz-adv-x="537" 
d="M402 237h-257l-124 -237h-47l361 674h44l102 -674h-44zM168 276h227l-34 225q-11 93 -13 119h-3q-39 -85 -56 -117zM311 830h-34q5 37 23 59.5t46 22.5q18 0 57 -23q28 -15 39 -15q25 0 33 41h32q-9 -80 -67 -80q-19 0 -54 20q-33 18 -43 18q-25 0 -32 -43zM367 819h36
l67 -109h-49l-41 73h-2l-76 -73h-55z" />
    <glyph glyph-name="uni1EAB" unicode="&#x1eab;" horiz-adv-x="503" 
d="M402 0h-43q-1 37 13 142h-2q-76 -153 -201 -153q-61 0 -97 43.5t-36 109.5q0 135 93 242t231 107q60 0 111 -14l-48 -250q-25 -134 -21 -227zM389 277l31 166q-22 9 -69 9q-108 0 -188 -90t-81 -212q0 -122 97 -122q65 0 128 74.5t82 174.5zM269 676h-34q5 37 23 59.5
t45 22.5q17 0 58 -23q26 -15 39 -15q24 0 32 41h33q-11 -80 -68 -80q-20 0 -53 20q-32 18 -44 18q-24 0 -31 -43zM322 664h36l58 -114h-42l-37 77h-2l-61 -77h-48z" />
    <glyph glyph-name="uni1EAC" unicode="&#x1eac;" horiz-adv-x="537" 
d="M402 237h-257l-124 -237h-47l361 674h44l102 -674h-44zM168 276h227l-34 225q-11 93 -13 119h-3q-39 -85 -56 -117zM363 823h37l80 -113h-47l-55 78h-2l-81 -78h-51zM207 -158h-1q-15 0 -26 12t-11 27t11.5 27t26.5 12t26 -12t11 -27t-11 -27t-26 -12z" />
    <glyph glyph-name="uni1EAD" unicode="&#x1ead;" horiz-adv-x="503" 
d="M402 0h-43q-1 37 13 142h-2q-76 -153 -201 -153q-61 0 -97 43.5t-36 109.5q0 135 93 242t231 107q60 0 111 -14l-48 -250q-25 -134 -21 -227zM389 277l31 166q-22 9 -69 9q-108 0 -188 -90t-81 -212q0 -122 97 -122q65 0 128 74.5t82 174.5zM334 678h35l65 -138h-43
l-44 100h-2l-77 -100h-47zM200 -160h-1q-15 0 -26 12t-11 28t11.5 28t27.5 12q15 0 26 -12t11 -28q0 -17 -10.5 -28.5t-27.5 -11.5z" />
    <glyph glyph-name="uni1EAE" unicode="&#x1eae;" horiz-adv-x="537" 
d="M402 237h-257l-124 -237h-47l361 674h44l102 -674h-44zM168 276h227l-34 225q-11 93 -13 119h-3q-39 -85 -56 -117zM423 877h66l-113 -99h-38zM262 791h35q-1 -23 14.5 -38.5t50.5 -15.5q65 0 81 54h37q-7 -39 -38 -65.5t-81 -26.5q-55 0 -80 26.5t-19 65.5z" />
    <glyph glyph-name="uni1EAF" unicode="&#x1eaf;" horiz-adv-x="503" 
d="M402 0h-43q-1 37 13 142h-2q-76 -153 -201 -153q-61 0 -97 43.5t-36 109.5q0 135 93 242t231 107q60 0 111 -14l-48 -250q-25 -134 -21 -227zM389 277l31 166q-22 9 -69 9q-108 0 -188 -90t-81 -212q0 -122 97 -122q65 0 128 74.5t82 174.5zM382 750h64l-103 -122h-37z
M230 648h36q-3 -31 13.5 -52.5t46.5 -21.5q36 0 58 22t30 52h39q-10 -51 -45.5 -82.5t-80.5 -31.5q-59 0 -81.5 34t-15.5 80z" />
    <glyph glyph-name="uni1EB0" unicode="&#x1eb0;" horiz-adv-x="537" 
d="M402 237h-257l-124 -237h-47l361 674h44l102 -674h-44zM168 276h227l-34 225q-11 93 -13 119h-3q-39 -85 -56 -117zM268 880h65l65 -99h-38zM260 791h35q-1 -23 14.5 -38.5t50.5 -15.5q65 0 81 54h37q-7 -39 -38 -65.5t-81 -26.5q-55 0 -80 26.5t-19 65.5z" />
    <glyph glyph-name="uni1EB1" unicode="&#x1eb1;" horiz-adv-x="503" 
d="M402 0h-43q-1 37 13 142h-2q-76 -153 -201 -153q-61 0 -97 43.5t-36 109.5q0 135 93 242t231 107q60 0 111 -14l-48 -250q-25 -134 -21 -227zM389 277l31 166q-22 9 -69 9q-108 0 -188 -90t-81 -212q0 -122 97 -122q65 0 128 74.5t82 174.5zM241 752h63l61 -123h-35z
M227 648h36q-3 -31 13.5 -52.5t46.5 -21.5q36 0 58 22t30 52h39q-10 -51 -45.5 -82.5t-80.5 -31.5q-59 0 -81.5 34t-15.5 80z" />
    <glyph glyph-name="uni1EB2" unicode="&#x1eb2;" horiz-adv-x="537" 
d="M402 237h-257l-124 -237h-47l361 674h44l102 -674h-44zM168 276h227l-34 225q-11 93 -13 119h-3q-39 -85 -56 -117zM372 772l-29 14q9 15 36.5 39t27.5 43q0 12 -9 20.5t-24 8.5q-28 0 -56 -32l-20 22q33 46 85 46q30 0 49.5 -17.5t19.5 -42.5q0 -22 -13.5 -38.5
t-35.5 -33.5t-31 -29zM264 791h35q-1 -23 14.5 -38.5t50.5 -15.5q65 0 81 54h37q-7 -39 -38 -65.5t-81 -26.5q-55 0 -80 26.5t-19 65.5z" />
    <glyph glyph-name="uni1EB3" unicode="&#x1eb3;" horiz-adv-x="503" 
d="M402 0h-43q-1 37 13 142h-2q-76 -153 -201 -153q-61 0 -97 43.5t-36 109.5q0 135 93 242t231 107q60 0 111 -14l-48 -250q-25 -134 -21 -227zM389 277l31 166q-22 9 -69 9q-108 0 -188 -90t-81 -212q0 -122 97 -122q65 0 128 74.5t82 174.5zM227 648h36
q-3 -31 13.5 -52.5t46.5 -21.5q36 0 58 22t30 52h39q-10 -51 -45.5 -82.5t-80.5 -31.5q-59 0 -81.5 34t-15.5 80zM333 625l-29 14q9 15 37 39t28 43q0 12 -9.5 20.5t-24.5 8.5q-26 0 -56 -32l-20 22q33 46 85 46q30 0 49.5 -17.5t19.5 -42.5q0 -22 -13.5 -38.5t-35.5 -33.5
t-31 -29z" />
    <glyph glyph-name="uni1EB4" unicode="&#x1eb4;" horiz-adv-x="537" 
d="M402 237h-257l-124 -237h-47l361 674h44l102 -674h-44zM168 276h227l-34 225q-11 93 -13 119h-3q-39 -85 -56 -117zM259 791h35q-1 -23 14.5 -38.5t50.5 -15.5q65 0 81 54h37q-7 -39 -38 -65.5t-81 -26.5q-55 0 -80 26.5t-19 65.5zM291 823h-32q6 31 25 55t45 24
q28 0 59 -21q26 -17 45 -17q24 0 35 38h32q-16 -80 -72 -80q-24 0 -58 20q-32 19 -45 18q-21 -1 -34 -37z" />
    <glyph glyph-name="uni1EB5" unicode="&#x1eb5;" horiz-adv-x="503" 
d="M402 0h-43q-1 37 13 142h-2q-76 -153 -201 -153q-61 0 -97 43.5t-36 109.5q0 135 93 242t231 107q60 0 111 -14l-48 -250q-25 -134 -21 -227zM389 277l31 166q-22 9 -69 9q-108 0 -188 -90t-81 -212q0 -122 97 -122q65 0 128 74.5t82 174.5zM227 648h36
q-3 -31 13.5 -52.5t46.5 -21.5q36 0 58 22t30 52h39q-10 -51 -45.5 -82.5t-80.5 -31.5q-59 0 -81.5 34t-15.5 80zM262 682h-32q6 31 25 55t45 24q27 0 59 -20q25 -18 45 -18q24 0 35 39h32q-16 -81 -72 -81q-24 0 -58 20q-32 19 -45 18q-22 0 -34 -37z" />
    <glyph glyph-name="uni1EB6" unicode="&#x1eb6;" horiz-adv-x="537" 
d="M402 237h-257l-124 -237h-47l361 674h44l102 -674h-44zM168 276h227l-34 225q-11 93 -13 119h-3q-39 -85 -56 -117zM273 828h35q0 -56 66 -56t82 56h37q-7 -40 -38 -67.5t-82 -27.5q-56 0 -81 27.5t-19 67.5zM203 -158h-1q-15 0 -26 12t-11 27t11.5 27t26.5 12t26 -12
t11 -27t-11 -27t-26 -12z" />
    <glyph glyph-name="uni1EB7" unicode="&#x1eb7;" horiz-adv-x="503" 
d="M402 0h-43q-1 37 13 142h-2q-76 -153 -201 -153q-61 0 -97 43.5t-36 109.5q0 135 93 242t231 107q60 0 111 -14l-48 -250q-25 -134 -21 -227zM389 277l31 166q-22 9 -69 9q-108 0 -188 -90t-81 -212q0 -122 97 -122q65 0 128 74.5t82 174.5zM233 678h36
q-3 -31 13.5 -52.5t46.5 -21.5q36 0 58 22t30 52h39q-10 -51 -45.5 -82.5t-80.5 -31.5q-59 0 -81.5 34t-15.5 80zM200 -160h-1q-15 0 -26 12t-11 28t11.5 28t27.5 12q15 0 26 -12t11 -28q0 -17 -10.5 -28.5t-27.5 -11.5z" />
    <glyph glyph-name="uni1EB8" unicode="&#x1eb8;" horiz-adv-x="441" 
d="M404 375l-8 -39h-248l-56 -297h280l-8 -39h-325l128 674h310l-8 -39h-264l-50 -260h249zM180 -158h-1q-15 0 -26 12t-11 27t11.5 27t26.5 12t26 -12t11 -27t-11 -27t-26 -12z" />
    <glyph glyph-name="uni1EB9" unicode="&#x1eb9;" horiz-adv-x="423" 
d="M336 63l13 -35q-59 -39 -145 -39q-85 0 -126 54t-41 134q0 72 32 144t91.5 121t127.5 49q61 0 92.5 -32t31.5 -78q0 -158 -325 -152q-5 -18 -3.5 -56.5t10.5 -61.5q28 -82 116 -82q68 0 126 34zM366 378v1q0 35 -24 54t-62 19q-62 0 -113 -54.5t-73 -130.5
q272 -4 272 111zM173 -160h-1q-15 0 -26 12t-11 28t11.5 28t27.5 12q15 0 26 -12t11 -28q0 -17 -10.5 -28.5t-27.5 -11.5z" />
    <glyph glyph-name="uni1EBA" unicode="&#x1eba;" horiz-adv-x="441" 
d="M404 375l-8 -39h-248l-56 -297h280l-8 -39h-325l128 674h310l-8 -39h-264l-50 -260h249zM329 712l-30 9q9 17 35.5 43t26.5 45q0 13 -8 21.5t-22 8.5q-29 0 -56 -37l-24 15q38 58 91 58q28 0 46.5 -17t18.5 -42q0 -23 -11.5 -38.5t-33.5 -33t-33 -32.5z" />
    <glyph glyph-name="uni1EBB" unicode="&#x1ebb;" horiz-adv-x="423" 
d="M336 63l13 -35q-59 -39 -145 -39q-85 0 -126 54t-41 134q0 72 32 144t91.5 121t127.5 49q61 0 92.5 -32t31.5 -78q0 -158 -325 -152q-5 -18 -3.5 -56.5t10.5 -61.5q28 -82 116 -82q68 0 126 34zM366 378v1q0 35 -24 54t-62 19q-62 0 -113 -54.5t-73 -130.5
q272 -4 272 111zM284 531l-30 11q7 18 37 46t30 50q0 14 -8.5 22.5t-22.5 8.5q-30 0 -57 -38l-24 15q35 59 94 59q28 0 46 -17t18 -42t-14 -43t-36.5 -37t-32.5 -35z" />
    <glyph glyph-name="uni1EBC" unicode="&#x1ebc;" horiz-adv-x="441" 
d="M404 375l-8 -39h-248l-56 -297h280l-8 -39h-325l128 674h310l-8 -39h-264l-50 -260h249zM246 716h-32q6 35 25.5 60t46.5 25t58 -21q28 -17 46 -17q24 0 34 38h32q-14 -80 -72 -80q-25 0 -57 20q-34 19 -45 18q-24 -1 -36 -43z" />
    <glyph glyph-name="uni1EBD" unicode="&#x1ebd;" horiz-adv-x="423" 
d="M212 575h-34q4 35 20.5 59t44.5 24q7 0 13 -1t12.5 -3.5t10.5 -4.5t12.5 -7t12.5 -7q28 -16 41 -16t19 9t9 33h34q-10 -80 -64 -80q-26 0 -57 20q-29 18 -44 18q-23 0 -30 -44zM336 63l13 -35q-59 -39 -145 -39q-85 0 -126 54t-41 134q0 72 32 144t91.5 121t127.5 49
q61 0 92.5 -32t31.5 -78q0 -158 -325 -152q-5 -18 -3.5 -56.5t10.5 -61.5q28 -82 116 -82q68 0 126 34zM366 378v1q0 35 -24 54t-62 19q-62 0 -113 -54.5t-73 -130.5q272 -4 272 111z" />
    <glyph glyph-name="uni1EBE" unicode="&#x1ebe;" horiz-adv-x="441" 
d="M404 375l-8 -39h-248l-56 -297h280l-8 -39h-325l128 674h310l-8 -39h-264l-50 -260h249zM337 819h36l67 -109h-49l-41 73h-2l-76 -73h-55zM508 887h62l-115 -96h-36z" />
    <glyph glyph-name="uni1EBF" unicode="&#x1ebf;" horiz-adv-x="423" 
d="M336 63l13 -35q-59 -39 -145 -39q-85 0 -126 54t-41 134q0 72 32 144t91.5 121t127.5 49q61 0 92.5 -32t31.5 -78q0 -158 -325 -152q-5 -18 -3.5 -56.5t10.5 -61.5q28 -82 116 -82q68 0 126 34zM366 378v1q0 35 -24 54t-62 19q-62 0 -113 -54.5t-73 -130.5
q272 -4 272 111zM276 688h39l63 -138h-45l-41 99h-2l-67 -99h-48zM457 758h62l-114 -120h-36z" />
    <glyph glyph-name="uni1EC0" unicode="&#x1ec0;" horiz-adv-x="441" 
d="M404 375l-8 -39h-248l-56 -297h280l-8 -39h-325l128 674h310l-8 -39h-264l-50 -260h249zM380 868h62l61 -99h-35zM334 819h36l67 -109h-49l-41 73h-2l-76 -73h-55z" />
    <glyph glyph-name="uni1EC1" unicode="&#x1ec1;" horiz-adv-x="423" 
d="M336 63l13 -35q-59 -39 -145 -39q-85 0 -126 54t-41 134q0 72 32 144t91.5 121t127.5 49q61 0 92.5 -32t31.5 -78q0 -158 -325 -152q-5 -18 -3.5 -56.5t10.5 -61.5q28 -82 116 -82q68 0 126 34zM366 378v1q0 35 -24 54t-62 19q-62 0 -113 -54.5t-73 -130.5
q272 -4 272 111zM331 760h57l64 -120h-33zM276 688h39l63 -138h-45l-41 99h-2l-67 -99h-48z" />
    <glyph glyph-name="uni1EC2" unicode="&#x1ec2;" horiz-adv-x="441" 
d="M404 375l-8 -39h-248l-56 -297h280l-8 -39h-325l128 674h310l-8 -39h-264l-50 -260h249zM465 753l-29 14q9 15 37 39.5t28 42.5q0 12 -9.5 21t-23.5 9q-26 0 -57 -33l-20 22q34 46 85 46q30 0 49.5 -17t19.5 -43q0 -22 -13.5 -38.5t-35.5 -33t-31 -29.5zM334 819h36
l67 -109h-49l-41 73h-2l-76 -73h-55z" />
    <glyph glyph-name="uni1EC3" unicode="&#x1ec3;" horiz-adv-x="423" 
d="M336 63l13 -35q-59 -39 -145 -39q-85 0 -126 54t-41 134q0 72 32 144t91.5 121t127.5 49q61 0 92.5 -32t31.5 -78q0 -158 -325 -152q-5 -18 -3.5 -56.5t10.5 -61.5q28 -82 116 -82q68 0 126 34zM366 378v1q0 35 -24 54t-62 19q-62 0 -113 -54.5t-73 -130.5
q272 -4 272 111zM276 688h39l63 -138h-45l-41 99h-2l-67 -99h-48zM411 636l-29 14q9 15 37 39t28 42q0 13 -9.5 21.5t-24.5 8.5q-26 0 -56 -32l-20 21q32 46 85 46q30 0 49.5 -17t19.5 -42q0 -22 -13.5 -38.5t-35.5 -33.5t-31 -29z" />
    <glyph glyph-name="uni1EC4" unicode="&#x1ec4;" horiz-adv-x="441" 
d="M404 375l-8 -39h-248l-56 -297h280l-8 -39h-325l128 674h310l-8 -39h-264l-50 -260h249zM276 830h-34q5 37 23 59.5t46 22.5q18 0 57 -23q28 -15 39 -15q25 0 33 41h32q-9 -80 -67 -80q-19 0 -54 20q-33 18 -43 18q-25 0 -32 -43zM332 819h36l67 -109h-49l-41 73h-2
l-76 -73h-55z" />
    <glyph glyph-name="uni1EC5" unicode="&#x1ec5;" horiz-adv-x="423" 
d="M336 63l13 -35q-59 -39 -145 -39q-85 0 -126 54t-41 134q0 72 32 144t91.5 121t127.5 49q61 0 92.5 -32t31.5 -78q0 -158 -325 -152q-5 -18 -3.5 -56.5t10.5 -61.5q28 -82 116 -82q68 0 126 34zM366 378v1q0 35 -24 54t-62 19q-62 0 -113 -54.5t-73 -130.5
q272 -4 272 111zM229 676h-34q5 37 23 59.5t45 22.5q17 0 58 -23q26 -15 39 -15q24 0 32 41h33q-11 -80 -68 -80q-20 0 -53 20q-32 18 -44 18q-24 0 -31 -43zM282 664h36l58 -114h-42l-37 77h-2l-61 -77h-48z" />
    <glyph glyph-name="uni1EC6" unicode="&#x1ec6;" horiz-adv-x="441" 
d="M404 375l-8 -39h-248l-56 -297h280l-8 -39h-325l128 674h310l-8 -39h-264l-50 -260h249zM326 823h37l80 -113h-47l-55 78h-2l-81 -78h-51zM183 -158h-1q-15 0 -26 12t-11 27t11.5 27t26.5 12t26 -12t11 -27t-11 -27t-26 -12z" />
    <glyph glyph-name="uni1EC7" unicode="&#x1ec7;" horiz-adv-x="423" 
d="M336 63l13 -35q-59 -39 -145 -39q-85 0 -126 54t-41 134q0 72 32 144t91.5 121t127.5 49q61 0 92.5 -32t31.5 -78q0 -158 -325 -152q-5 -18 -3.5 -56.5t10.5 -61.5q28 -82 116 -82q68 0 126 34zM366 378v1q0 35 -24 54t-62 19q-62 0 -113 -54.5t-73 -130.5
q272 -4 272 111zM286 678h35l65 -138h-43l-44 100h-2l-77 -100h-47zM173 -160h-1q-15 0 -26 12t-11 28t11.5 28t27.5 12q15 0 26 -12t11 -28q0 -17 -10.5 -28.5t-27.5 -11.5z" />
    <glyph glyph-name="uni1EC8" unicode="&#x1ec8;" horiz-adv-x="208" 
d="M167 674h46l-129 -674h-45zM206 712l-30 9q9 17 35.5 43t26.5 45q0 13 -8 21.5t-22 8.5q-29 0 -56 -37l-24 15q38 58 91 58q28 0 46.5 -17t18.5 -42q0 -23 -11.5 -38.5t-33.5 -33t-33 -32.5z" />
    <glyph glyph-name="uni1EC9" unicode="&#x1ec9;" horiz-adv-x="206" 
d="M83 0h-45l92 480h45zM174 531l-30 11q7 18 37 46t30 50q0 14 -8.5 22.5t-22.5 8.5q-30 0 -57 -38l-24 15q35 59 94 59q28 0 46 -17t18 -42t-14 -43t-36.5 -37t-32.5 -35z" />
    <glyph glyph-name="uni1ECA" unicode="&#x1eca;" horiz-adv-x="208" 
d="M167 674h46l-129 -674h-45zM37 -158h-1q-15 0 -26 12t-11 27t11.5 27t26.5 12t26 -12t11 -27t-11 -27t-26 -12z" />
    <glyph glyph-name="uni1ECB" unicode="&#x1ecb;" horiz-adv-x="206" 
d="M83 0h-45l92 480h45zM176 578h-1q-15 0 -24 11.5t-9 28.5q1 17 11.5 28.5t25.5 11.5q17 0 26.5 -11.5t9.5 -28.5q-2 -17 -12 -28.5t-27 -11.5zM48 -160h-1q-15 0 -26 12t-11 28t11.5 28t27.5 12q15 0 26 -12t11 -28q0 -17 -10.5 -28.5t-27.5 -11.5z" />
    <glyph glyph-name="uni1ECC" unicode="&#x1ecc;" horiz-adv-x="645" 
d="M393 685q66 0 115 -23.5t76.5 -63.5t40 -86.5t12.5 -99.5q0 -90 -32.5 -180.5t-91.5 -149.5q-93 -93 -220 -93q-63 0 -111 23t-76.5 62t-42.5 86t-14 99q0 91 35 184.5t96 153.5q41 41 98 64.5t115 23.5zM386 646q-101 0 -177 -78q-52 -52 -83 -137t-31 -164
q0 -101 49.5 -170t155.5 -69q102 0 179 79q52 51 82 136t30 166q0 34 -4.5 64t-18 63t-35.5 56.5t-59.5 38.5t-87.5 15zM245 -158h-1q-15 0 -26 12t-11 27t11.5 27t26.5 12t26 -12t11 -27t-11 -27t-26 -12z" />
    <glyph glyph-name="uni1ECD" unicode="&#x1ecd;" horiz-adv-x="500" 
d="M292 491q90 0 134 -59t44 -142q0 -68 -29.5 -136t-89.5 -116.5t-135 -48.5q-85 0 -131.5 57.5t-46.5 138.5q0 120 73.5 213t180.5 93zM289 453q-86 0 -145 -80.5t-59 -183.5q0 -70 37.5 -115.5t99.5 -45.5q80 0 140.5 81.5t60.5 181.5q0 26 -6.5 52.5t-21 52t-42 41.5
t-64.5 16zM198 -160h-1q-15 0 -26 12t-11 28t11.5 28t27.5 12q15 0 26 -12t11 -28q0 -17 -10.5 -28.5t-27.5 -11.5z" />
    <glyph glyph-name="uni1ECE" unicode="&#x1ece;" horiz-adv-x="645" 
d="M393 685q66 0 115 -23.5t76.5 -63.5t40 -86.5t12.5 -99.5q0 -90 -32.5 -180.5t-91.5 -149.5q-93 -93 -220 -93q-63 0 -111 23t-76.5 62t-42.5 86t-14 99q0 91 35 184.5t96 153.5q41 41 98 64.5t115 23.5zM386 646q-101 0 -177 -78q-52 -52 -83 -137t-31 -164
q0 -101 49.5 -170t155.5 -69q102 0 179 79q52 51 82 136t30 166q0 34 -4.5 64t-18 63t-35.5 56.5t-59.5 38.5t-87.5 15zM422 712l-30 9q9 17 35.5 43t26.5 45q0 13 -8 21.5t-22 8.5q-29 0 -56 -37l-24 15q38 58 91 58q28 0 46.5 -17t18.5 -42q0 -23 -11.5 -38.5t-33.5 -33
t-33 -32.5z" />
    <glyph glyph-name="uni1ECF" unicode="&#x1ecf;" horiz-adv-x="500" 
d="M292 491q90 0 134 -59t44 -142q0 -68 -29.5 -136t-89.5 -116.5t-135 -48.5q-85 0 -131.5 57.5t-46.5 138.5q0 120 73.5 213t180.5 93zM289 453q-86 0 -145 -80.5t-59 -183.5q0 -70 37.5 -115.5t99.5 -45.5q80 0 140.5 81.5t60.5 181.5q0 26 -6.5 52.5t-21 52t-42 41.5
t-64.5 16zM320 531l-30 11q7 18 37 46t30 50q0 14 -8.5 22.5t-22.5 8.5q-30 0 -57 -38l-24 15q35 59 94 59q28 0 46 -17t18 -42t-14 -43t-36.5 -37t-32.5 -35z" />
    <glyph glyph-name="uni1ED0" unicode="&#x1ed0;" horiz-adv-x="645" 
d="M393 685q66 0 115 -23.5t76.5 -63.5t40 -86.5t12.5 -99.5q0 -90 -32.5 -180.5t-91.5 -149.5q-93 -93 -220 -93q-63 0 -111 23t-76.5 62t-42.5 86t-14 99q0 91 35 184.5t96 153.5q41 41 98 64.5t115 23.5zM386 646q-101 0 -177 -78q-52 -52 -83 -137t-31 -164
q0 -101 49.5 -170t155.5 -69q102 0 179 79q52 51 82 136t30 166q0 34 -4.5 64t-18 63t-35.5 56.5t-59.5 38.5t-87.5 15zM420 819h36l67 -109h-49l-41 73h-2l-76 -73h-55zM591 887h62l-115 -96h-36z" />
    <glyph glyph-name="uni1ED1" unicode="&#x1ed1;" horiz-adv-x="500" 
d="M292 491q90 0 134 -59t44 -142q0 -68 -29.5 -136t-89.5 -116.5t-135 -48.5q-85 0 -131.5 57.5t-46.5 138.5q0 120 73.5 213t180.5 93zM289 453q-86 0 -145 -80.5t-59 -183.5q0 -70 37.5 -115.5t99.5 -45.5q80 0 140.5 81.5t60.5 181.5q0 26 -6.5 52.5t-21 52t-42 41.5
t-64.5 16zM299 688h39l63 -138h-45l-41 99h-2l-67 -99h-48zM480 758h62l-114 -120h-36z" />
    <glyph glyph-name="uni1ED2" unicode="&#x1ed2;" horiz-adv-x="645" 
d="M393 685q66 0 115 -23.5t76.5 -63.5t40 -86.5t12.5 -99.5q0 -90 -32.5 -180.5t-91.5 -149.5q-93 -93 -220 -93q-63 0 -111 23t-76.5 62t-42.5 86t-14 99q0 91 35 184.5t96 153.5q41 41 98 64.5t115 23.5zM386 646q-101 0 -177 -78q-52 -52 -83 -137t-31 -164
q0 -101 49.5 -170t155.5 -69q102 0 179 79q52 51 82 136t30 166q0 34 -4.5 64t-18 63t-35.5 56.5t-59.5 38.5t-87.5 15zM466 868h62l61 -99h-35zM420 819h36l67 -109h-49l-41 73h-2l-76 -73h-55z" />
    <glyph glyph-name="uni1ED3" unicode="&#x1ed3;" horiz-adv-x="500" 
d="M292 491q90 0 134 -59t44 -142q0 -68 -29.5 -136t-89.5 -116.5t-135 -48.5q-85 0 -131.5 57.5t-46.5 138.5q0 120 73.5 213t180.5 93zM289 453q-86 0 -145 -80.5t-59 -183.5q0 -70 37.5 -115.5t99.5 -45.5q80 0 140.5 81.5t60.5 181.5q0 26 -6.5 52.5t-21 52t-42 41.5
t-64.5 16zM354 760h57l64 -120h-33zM299 688h39l63 -138h-45l-41 99h-2l-67 -99h-48z" />
    <glyph glyph-name="uni1ED4" unicode="&#x1ed4;" horiz-adv-x="645" 
d="M393 685q66 0 115 -23.5t76.5 -63.5t40 -86.5t12.5 -99.5q0 -90 -32.5 -180.5t-91.5 -149.5q-93 -93 -220 -93q-63 0 -111 23t-76.5 62t-42.5 86t-14 99q0 91 35 184.5t96 153.5q41 41 98 64.5t115 23.5zM386 646q-101 0 -177 -78q-52 -52 -83 -137t-31 -164
q0 -101 49.5 -170t155.5 -69q102 0 179 79q52 51 82 136t30 166q0 34 -4.5 64t-18 63t-35.5 56.5t-59.5 38.5t-87.5 15zM546 753l-29 14q9 15 37 39.5t28 42.5q0 12 -9.5 21t-23.5 9q-26 0 -57 -33l-20 22q34 46 85 46q30 0 49.5 -17t19.5 -43q0 -22 -13.5 -38.5t-35.5 -33
t-31 -29.5zM415 819h36l67 -109h-49l-41 73h-2l-76 -73h-55z" />
    <glyph glyph-name="uni1ED5" unicode="&#x1ed5;" horiz-adv-x="500" 
d="M292 491q90 0 134 -59t44 -142q0 -68 -29.5 -136t-89.5 -116.5t-135 -48.5q-85 0 -131.5 57.5t-46.5 138.5q0 120 73.5 213t180.5 93zM289 453q-86 0 -145 -80.5t-59 -183.5q0 -70 37.5 -115.5t99.5 -45.5q80 0 140.5 81.5t60.5 181.5q0 26 -6.5 52.5t-21 52t-42 41.5
t-64.5 16zM292 688h39l63 -138h-45l-41 99h-2l-67 -99h-48zM427 636l-29 14q9 15 37 39t28 42q0 13 -9.5 21.5t-24.5 8.5q-26 0 -56 -32l-20 21q32 46 85 46q30 0 49.5 -17t19.5 -42q0 -22 -13.5 -38.5t-35.5 -33.5t-31 -29z" />
    <glyph glyph-name="uni1ED6" unicode="&#x1ed6;" horiz-adv-x="645" 
d="M393 685q66 0 115 -23.5t76.5 -63.5t40 -86.5t12.5 -99.5q0 -90 -32.5 -180.5t-91.5 -149.5q-93 -93 -220 -93q-63 0 -111 23t-76.5 62t-42.5 86t-14 99q0 91 35 184.5t96 153.5q41 41 98 64.5t115 23.5zM386 646q-101 0 -177 -78q-52 -52 -83 -137t-31 -164
q0 -101 49.5 -170t155.5 -69q102 0 179 79q52 51 82 136t30 166q0 34 -4.5 64t-18 63t-35.5 56.5t-59.5 38.5t-87.5 15zM360 830h-34q5 37 23 59.5t46 22.5q18 0 57 -23q28 -15 39 -15q25 0 33 41h32q-9 -80 -67 -80q-19 0 -54 20q-33 18 -43 18q-25 0 -32 -43zM416 819h36
l67 -109h-49l-41 73h-2l-76 -73h-55z" />
    <glyph glyph-name="uni1ED7" unicode="&#x1ed7;" horiz-adv-x="500" 
d="M292 491q90 0 134 -59t44 -142q0 -68 -29.5 -136t-89.5 -116.5t-135 -48.5q-85 0 -131.5 57.5t-46.5 138.5q0 120 73.5 213t180.5 93zM289 453q-86 0 -145 -80.5t-59 -183.5q0 -70 37.5 -115.5t99.5 -45.5q80 0 140.5 81.5t60.5 181.5q0 26 -6.5 52.5t-21 52t-42 41.5
t-64.5 16zM253 676h-34q5 37 23 59.5t45 22.5q17 0 58 -23q26 -15 39 -15q24 0 32 41h33q-11 -80 -68 -80q-20 0 -53 20q-31 18 -44 18q-24 0 -31 -43zM306 664h36l58 -114h-42l-37 77h-2l-61 -77h-48z" />
    <glyph glyph-name="uni1ED8" unicode="&#x1ed8;" horiz-adv-x="645" 
d="M393 685q66 0 115 -23.5t76.5 -63.5t40 -86.5t12.5 -99.5q0 -90 -32.5 -180.5t-91.5 -149.5q-93 -93 -220 -93q-63 0 -111 23t-76.5 62t-42.5 86t-14 99q0 91 35 184.5t96 153.5q41 41 98 64.5t115 23.5zM386 646q-101 0 -177 -78q-52 -52 -83 -137t-31 -164
q0 -101 49.5 -170t155.5 -69q102 0 179 79q52 51 82 136t30 166q0 34 -4.5 64t-18 63t-35.5 56.5t-59.5 38.5t-87.5 15zM408 823h37l80 -113h-47l-55 78h-2l-81 -78h-51zM248 -158h-1q-15 0 -26 12t-11 27t11.5 27t26.5 12t26 -12t11 -27t-11 -27t-26 -12z" />
    <glyph glyph-name="uni1ED9" unicode="&#x1ed9;" horiz-adv-x="500" 
d="M292 491q90 0 134 -59t44 -142q0 -68 -29.5 -136t-89.5 -116.5t-135 -48.5q-85 0 -131.5 57.5t-46.5 138.5q0 120 73.5 213t180.5 93zM289 453q-86 0 -145 -80.5t-59 -183.5q0 -70 37.5 -115.5t99.5 -45.5q80 0 140.5 81.5t60.5 181.5q0 26 -6.5 52.5t-21 52t-42 41.5
t-64.5 16zM317 678h35l65 -138h-43l-44 100h-2l-77 -100h-47zM191 -160h-1q-15 0 -26 12t-11 28t11.5 28t27.5 12q15 0 26 -12t11 -28q0 -17 -10.5 -28.5t-27.5 -11.5z" />
    <glyph glyph-name="uni1EDA" unicode="&#x1eda;" horiz-adv-x="645" 
d="M646 739l43 8q9 -18 9 -53q0 -50 -32.5 -76t-82.5 -17q54 -72 54 -189q0 -90 -32.5 -180.5t-91.5 -149.5q-93 -93 -220 -93q-63 0 -111 23t-76.5 62t-42.5 86t-14 99q0 91 35 184.5t96 153.5q41 41 98 64.5t115 23.5q60 0 112 -22q9 -3 29 -12.5t33 -13t28 -3.5
q32 0 45.5 15t13.5 44q0 22 -8 46zM386 646q-101 0 -177 -78q-52 -52 -83 -137t-31 -164q0 -101 49.5 -170t155.5 -69q102 0 179 79q52 51 82 136t30 166q0 34 -4.5 64t-18 63t-35.5 56.5t-59.5 38.5t-87.5 15zM467 823h77l-139 -113h-44z" />
    <glyph glyph-name="uni1EDB" unicode="&#x1edb;" horiz-adv-x="500" 
d="M289 453q-86 0 -145 -80.5t-59 -183.5q0 -70 37.5 -115.5t99.5 -45.5q80 0 140.5 81.5t60.5 181.5q0 26 -6.5 52.5t-21 52t-42 41.5t-64.5 16zM486 547l41 8q7 -24 7 -48q0 -44 -27 -68.5t-73 -17.5q36 -55 36 -131q0 -68 -29.5 -136t-89.5 -116.5t-135 -48.5
q-85 0 -131.5 57.5t-46.5 138.5q0 120 73.5 213t180.5 93q45 0 80 -17l14.5 -7t17 -7.5t17.5 -5t21 -2.5q51 0 51 51q0 22 -7 44zM357 678h74l-135 -138h-40z" />
    <glyph glyph-name="uni1EDC" unicode="&#x1edc;" horiz-adv-x="645" 
d="M646 739l43 8q9 -18 9 -53q0 -50 -32.5 -76t-82.5 -17q54 -72 54 -189q0 -90 -32.5 -180.5t-91.5 -149.5q-93 -93 -220 -93q-63 0 -111 23t-76.5 62t-42.5 86t-14 99q0 91 35 184.5t96 153.5q41 41 98 64.5t115 23.5q60 0 112 -22q9 -3 29 -12.5t33 -13t28 -3.5
q32 0 45.5 15t13.5 44q0 22 -8 46zM386 646q-101 0 -177 -78q-52 -52 -83 -137t-31 -164q0 -101 49.5 -170t155.5 -69q102 0 179 79q52 51 82 136t30 166q0 34 -4.5 64t-18 63t-35.5 56.5t-59.5 38.5t-87.5 15zM306 823h69l74 -113h-37z" />
    <glyph glyph-name="uni1EDD" unicode="&#x1edd;" horiz-adv-x="500" 
d="M289 453q-86 0 -145 -80.5t-59 -183.5q0 -70 37.5 -115.5t99.5 -45.5q80 0 140.5 81.5t60.5 181.5q0 26 -6.5 52.5t-21 52t-42 41.5t-64.5 16zM486 547l41 8q7 -24 7 -48q0 -44 -27 -68.5t-73 -17.5q36 -55 36 -131q0 -68 -29.5 -136t-89.5 -116.5t-135 -48.5
q-85 0 -131.5 57.5t-46.5 138.5q0 120 73.5 213t180.5 93q45 0 80 -17l14.5 -7t17 -7.5t17.5 -5t21 -2.5q51 0 51 51q0 22 -7 44zM215 678h66l61 -138h-33z" />
    <glyph glyph-name="uni1EDE" unicode="&#x1ede;" horiz-adv-x="645" 
d="M646 739l43 8q9 -18 9 -53q0 -50 -32.5 -76t-82.5 -17q54 -72 54 -189q0 -90 -32.5 -180.5t-91.5 -149.5q-93 -93 -220 -93q-63 0 -111 23t-76.5 62t-42.5 86t-14 99q0 91 35 184.5t96 153.5q41 41 98 64.5t115 23.5q60 0 112 -22q9 -3 29 -12.5t33 -13t28 -3.5
q32 0 45.5 15t13.5 44q0 22 -8 46zM386 646q-101 0 -177 -78q-52 -52 -83 -137t-31 -164q0 -101 49.5 -170t155.5 -69q102 0 179 79q52 51 82 136t30 166q0 34 -4.5 64t-18 63t-35.5 56.5t-59.5 38.5t-87.5 15zM421 712l-30 9q9 17 35.5 43t26.5 45q0 13 -8 21.5t-22 8.5
q-29 0 -56 -37l-24 15q38 58 91 58q28 0 46.5 -17t18.5 -42q0 -23 -11.5 -38.5t-33.5 -33t-33 -32.5z" />
    <glyph glyph-name="uni1EDF" unicode="&#x1edf;" horiz-adv-x="500" 
d="M289 453q-86 0 -145 -80.5t-59 -183.5q0 -70 37.5 -115.5t99.5 -45.5q80 0 140.5 81.5t60.5 181.5q0 26 -6.5 52.5t-21 52t-42 41.5t-64.5 16zM486 547l41 8q7 -24 7 -48q0 -44 -27 -68.5t-73 -17.5q36 -55 36 -131q0 -68 -29.5 -136t-89.5 -116.5t-135 -48.5
q-85 0 -131.5 57.5t-46.5 138.5q0 120 73.5 213t180.5 93q45 0 80 -17l14.5 -7t17 -7.5t17.5 -5t21 -2.5q51 0 51 51q0 22 -7 44zM313 531l-30 11q7 18 37 46t30 50q0 14 -9 22.5t-22 8.5q-30 0 -57 -38l-24 15q35 59 94 59q28 0 46 -17t18 -42t-14 -43t-36.5 -37t-32.5 -35
z" />
    <glyph glyph-name="uni1EE0" unicode="&#x1ee0;" horiz-adv-x="645" 
d="M646 739l43 8q9 -18 9 -53q0 -50 -32.5 -76t-82.5 -17q54 -72 54 -189q0 -90 -32.5 -180.5t-91.5 -149.5q-93 -93 -220 -93q-63 0 -111 23t-76.5 62t-42.5 86t-14 99q0 91 35 184.5t96 153.5q41 41 98 64.5t115 23.5q60 0 112 -22q9 -3 29 -12.5t33 -13t28 -3.5
q32 0 45.5 15t13.5 44q0 22 -8 46zM386 646q-101 0 -177 -78q-52 -52 -83 -137t-31 -164q0 -101 49.5 -170t155.5 -69q102 0 179 79q52 51 82 136t30 166q0 34 -4.5 64t-18 63t-35.5 56.5t-59.5 38.5t-87.5 15zM327 716h-32q6 35 25.5 60t46.5 25t58 -21q28 -17 46 -17
q25 0 34 38h32q-14 -80 -72 -80q-25 0 -57 20q-34 19 -45 18q-24 -1 -36 -43z" />
    <glyph glyph-name="uni1EE1" unicode="&#x1ee1;" horiz-adv-x="500" 
d="M289 453q-86 0 -145 -80.5t-59 -183.5q0 -70 37.5 -115.5t99.5 -45.5q80 0 140.5 81.5t60.5 181.5q0 26 -6.5 52.5t-21 52t-42 41.5t-64.5 16zM486 547l41 8q7 -24 7 -48q0 -44 -27 -68.5t-73 -17.5q36 -55 36 -131q0 -68 -29.5 -136t-89.5 -116.5t-135 -48.5
q-85 0 -131.5 57.5t-46.5 138.5q0 120 73.5 213t180.5 93q45 0 80 -17l14.5 -7t17 -7.5t17.5 -5t21 -2.5q51 0 51 51q0 22 -7 44zM229 575h-34q4 35 20.5 59t44.5 24q7 0 13 -1t12.5 -3.5t10.5 -4.5t12.5 -7t12.5 -7q28 -16 41 -16t19 9t9 33h34q-10 -80 -64 -80
q-26 0 -57 20q-29 18 -44 18q-23 0 -30 -44z" />
    <glyph glyph-name="uni1EE2" unicode="&#x1ee2;" horiz-adv-x="645" 
d="M646 739l43 8q9 -18 9 -53q0 -50 -32.5 -76t-82.5 -17q54 -72 54 -189q0 -90 -32.5 -180.5t-91.5 -149.5q-93 -93 -220 -93q-63 0 -111 23t-76.5 62t-42.5 86t-14 99q0 91 35 184.5t96 153.5q41 41 98 64.5t115 23.5q60 0 112 -22q9 -3 29 -12.5t33 -13t28 -3.5
q32 0 45.5 15t13.5 44q0 22 -8 46zM386 646q-101 0 -177 -78q-52 -52 -83 -137t-31 -164q0 -101 49.5 -170t155.5 -69q102 0 179 79q52 51 82 136t30 166q0 34 -4.5 64t-18 63t-35.5 56.5t-59.5 38.5t-87.5 15zM244 -158h-1q-15 0 -26 12t-11 27t11.5 27t26.5 12t26 -12
t11 -27t-11 -27t-26 -12z" />
    <glyph glyph-name="uni1EE3" unicode="&#x1ee3;" horiz-adv-x="500" 
d="M289 453q-86 0 -145 -80.5t-59 -183.5q0 -70 37.5 -115.5t99.5 -45.5q80 0 140.5 81.5t60.5 181.5q0 26 -6.5 52.5t-21 52t-42 41.5t-64.5 16zM486 547l41 8q7 -24 7 -48q0 -44 -27 -68.5t-73 -17.5q36 -55 36 -131q0 -68 -29.5 -136t-89.5 -116.5t-135 -48.5
q-85 0 -131.5 57.5t-46.5 138.5q0 120 73.5 213t180.5 93q45 0 80 -17l14.5 -7t17 -7.5t17.5 -5t21 -2.5q51 0 51 51q0 22 -7 44zM191 -160h-1q-15 0 -26 12t-11 28t11.5 28t27.5 12q15 0 26 -12t11 -28q0 -17 -10.5 -28.5t-27.5 -11.5z" />
    <glyph glyph-name="uni1EE4" unicode="&#x1ee4;" horiz-adv-x="600" 
d="M167 674h46l-78 -407q-8 -40 -8 -87q0 -76 38.5 -113.5t103.5 -37.5q167 0 212 237l78 408h45l-79 -415q-28 -142 -97.5 -206t-166.5 -64q-77 0 -128.5 47t-51.5 142q0 46 9 92zM229 -158h-1q-15 0 -26 12t-11 27t11.5 27t26.5 12t26 -12t11 -27t-11 -27t-26 -12z" />
    <glyph glyph-name="uni1EE5" unicode="&#x1ee5;" horiz-adv-x="506" 
d="M428 480h45l-67 -351q-14 -72 -18 -129h-43l15 99h-2q-30 -49 -76.5 -79.5t-95.5 -30.5q-23 0 -43 5.5t-40.5 19.5t-33 44t-12.5 73q0 29 9 76l52 273h45l-52 -274q-9 -45 -9 -75q0 -101 95 -101q54 0 110.5 55t71.5 134zM194 -160h-1q-15 0 -26 12t-11 28t11.5 28
t27.5 12q15 0 26 -12t11 -28q0 -17 -10.5 -28.5t-27.5 -11.5z" />
    <glyph glyph-name="uni1EE6" unicode="&#x1ee6;" horiz-adv-x="600" 
d="M167 674h46l-78 -407q-8 -40 -8 -87q0 -76 38.5 -113.5t103.5 -37.5q167 0 212 237l78 408h45l-79 -415q-28 -142 -97.5 -206t-166.5 -64q-77 0 -128.5 47t-51.5 142q0 46 9 92zM398 712l-30 9q9 17 35.5 43t26.5 45q0 13 -8 21.5t-22 8.5q-29 0 -56 -37l-24 15
q38 58 91 58q28 0 46.5 -17t18.5 -42q0 -23 -11.5 -38.5t-33.5 -33t-33 -32.5z" />
    <glyph glyph-name="uni1EE7" unicode="&#x1ee7;" horiz-adv-x="506" 
d="M428 480h45l-67 -351q-14 -72 -18 -129h-43l15 99h-2q-30 -49 -76.5 -79.5t-95.5 -30.5q-23 0 -43 5.5t-40.5 19.5t-33 44t-12.5 73q0 29 9 76l52 273h45l-52 -274q-9 -45 -9 -75q0 -101 95 -101q54 0 110.5 55t71.5 134zM323 531l-30 11q7 18 37 46t30 50q0 14 -9 22.5
t-22 8.5q-30 0 -57 -38l-24 15q35 59 94 59q28 0 46 -17t18 -42t-14 -43t-36.5 -37t-32.5 -35z" />
    <glyph glyph-name="uni1EE8" unicode="&#x1ee8;" horiz-adv-x="600" 
d="M598 639l-73 -380q-28 -142 -97.5 -206t-166.5 -64q-77 0 -128.5 47t-51.5 142q0 46 9 92l77 404h46l-78 -407q-8 -40 -8 -87q0 -76 38.5 -113.5t103.5 -37.5q167 0 212 237l78 408h46q58 0 58 54q0 16 -6 37l40 8q6 -19 6 -43q0 -90 -105 -91zM456 823h77l-139 -113h-44
z" />
    <glyph glyph-name="uni1EE9" unicode="&#x1ee9;" horiz-adv-x="506" 
d="M524 571l39 7q7 -18 7 -41q0 -92 -103 -92l-61 -316q-15 -89 -18 -129h-43l15 99h-2q-30 -49 -76.5 -79.5t-95.5 -30.5q-23 0 -43 5.5t-40.5 19.5t-33 44t-12.5 73q0 29 9 76l52 273h45l-52 -274q-9 -45 -9 -75q0 -101 95 -101q54 0 110.5 55t71.5 134l49 261h45
q57 0 57 53q0 14 -6 38zM367 678h74l-135 -138h-40z" />
    <glyph glyph-name="uni1EEA" unicode="&#x1eea;" horiz-adv-x="600" 
d="M598 639l-73 -380q-28 -142 -97.5 -206t-166.5 -64q-77 0 -128.5 47t-51.5 142q0 46 9 92l77 404h46l-78 -407q-8 -40 -8 -87q0 -76 38.5 -113.5t103.5 -37.5q167 0 212 237l78 408h46q58 0 58 54q0 16 -6 37l40 8q6 -19 6 -43q0 -90 -105 -91zM289 823h69l74 -113h-37z
" />
    <glyph glyph-name="uni1EEB" unicode="&#x1eeb;" horiz-adv-x="506" 
d="M524 571l39 7q7 -18 7 -41q0 -92 -103 -92l-61 -316q-15 -89 -18 -129h-43l15 99h-2q-30 -49 -76.5 -79.5t-95.5 -30.5q-23 0 -43 5.5t-40.5 19.5t-33 44t-12.5 73q0 29 9 76l52 273h45l-52 -274q-9 -45 -9 -75q0 -101 95 -101q54 0 110.5 55t71.5 134l49 261h45
q57 0 57 53q0 14 -6 38zM221 678h66l61 -138h-33z" />
    <glyph glyph-name="uni1EEC" unicode="&#x1eec;" horiz-adv-x="600" 
d="M598 639l-73 -380q-28 -142 -97.5 -206t-166.5 -64q-77 0 -128.5 47t-51.5 142q0 46 9 92l77 404h46l-78 -407q-8 -40 -8 -87q0 -76 38.5 -113.5t103.5 -37.5q167 0 212 237l78 408h46q58 0 58 54q0 16 -6 37l40 8q6 -19 6 -43q0 -90 -105 -91zM400 712l-30 9
q9 17 35.5 43t26.5 45q0 13 -8 21.5t-22 8.5q-29 0 -56 -37l-24 15q38 58 91 58q28 0 46.5 -17t18.5 -42q0 -23 -11.5 -38.5t-33.5 -33t-33 -32.5z" />
    <glyph glyph-name="uni1EED" unicode="&#x1eed;" horiz-adv-x="506" 
d="M524 571l39 7q7 -18 7 -41q0 -92 -103 -92l-61 -316q-15 -89 -18 -129h-43l15 99h-2q-30 -49 -76.5 -79.5t-95.5 -30.5q-23 0 -43 5.5t-40.5 19.5t-33 44t-12.5 73q0 29 9 76l52 273h45l-52 -274q-9 -45 -9 -75q0 -101 95 -101q54 0 110.5 55t71.5 134l49 261h45
q57 0 57 53q0 14 -6 38zM315 531l-30 11q7 18 37 46t30 50q0 14 -9 22.5t-22 8.5q-30 0 -57 -38l-24 15q35 59 94 59q28 0 46 -17t18 -42t-14 -43t-36.5 -37t-32.5 -35z" />
    <glyph glyph-name="uni1EEE" unicode="&#x1eee;" horiz-adv-x="600" 
d="M598 639l-73 -380q-28 -142 -97.5 -206t-166.5 -64q-77 0 -128.5 47t-51.5 142q0 46 9 92l77 404h46l-78 -407q-8 -40 -8 -87q0 -76 38.5 -113.5t103.5 -37.5q167 0 212 237l78 408h46q58 0 58 54q0 16 -6 37l40 8q6 -19 6 -43q0 -90 -105 -91zM314 716h-32q6 35 25.5 60
t46.5 25t58 -21q28 -17 46 -17q24 0 34 38h32q-14 -80 -72 -80q-25 0 -57 20q-34 19 -45 18q-24 -1 -36 -43z" />
    <glyph glyph-name="uni1EEF" unicode="&#x1eef;" horiz-adv-x="506" 
d="M524 571l39 7q7 -18 7 -41q0 -92 -103 -92l-61 -316q-15 -89 -18 -129h-43l15 99h-2q-30 -49 -76.5 -79.5t-95.5 -30.5q-23 0 -43 5.5t-40.5 19.5t-33 44t-12.5 73q0 29 9 76l52 273h45l-52 -274q-9 -45 -9 -75q0 -101 95 -101q54 0 110.5 55t71.5 134l49 261h45
q57 0 57 53q0 14 -6 38zM238 575h-34q4 35 20.5 59t44.5 24q7 0 13 -1t12.5 -3.5t10.5 -4.5t12.5 -7t12.5 -7q28 -16 41 -16t19 9t9 33h34q-10 -80 -64 -80q-26 0 -57 20q-29 18 -44 18q-23 0 -30 -44z" />
    <glyph glyph-name="uni1EF0" unicode="&#x1ef0;" horiz-adv-x="600" 
d="M598 639l-73 -380q-28 -142 -97.5 -206t-166.5 -64q-77 0 -128.5 47t-51.5 142q0 46 9 92l77 404h46l-78 -407q-8 -40 -8 -87q0 -76 38.5 -113.5t103.5 -37.5q167 0 212 237l78 408h46q58 0 58 54q0 16 -6 37l40 8q6 -19 6 -43q0 -90 -105 -91zM229 -158h-1q-15 0 -26 12
t-11 27t11.5 27t26.5 12t26 -12t11 -27t-11 -27t-26 -12z" />
    <glyph glyph-name="uni1EF1" unicode="&#x1ef1;" horiz-adv-x="506" 
d="M524 571l39 7q7 -18 7 -41q0 -92 -103 -92l-61 -316q-15 -89 -18 -129h-43l15 99h-2q-30 -49 -76.5 -79.5t-95.5 -30.5q-23 0 -43 5.5t-40.5 19.5t-33 44t-12.5 73q0 29 9 76l52 273h45l-52 -274q-9 -45 -9 -75q0 -101 95 -101q54 0 110.5 55t71.5 134l49 261h45
q57 0 57 53q0 14 -6 38zM194 -160h-1q-15 0 -26 12t-11 28t11.5 28t27.5 12q15 0 26 -12t11 -28q0 -17 -10.5 -28.5t-27.5 -11.5z" />
    <glyph glyph-name="Ygrave" unicode="&#x1ef2;" horiz-adv-x="484" 
d="M212 0h-45l54 283l-129 391h48l79 -247q25 -77 31 -107h2q32 53 74 111l172 243h52l-285 -392zM213 823h70l73 -113h-36z" />
    <glyph glyph-name="ygrave" unicode="&#x1ef3;" horiz-adv-x="406" 
d="M51 480h46l59 -289q18 -88 25 -134h3q22 51 56 121l146 302h48l-186 -377q-82 -168 -153 -240q-65 -67 -131 -83l-13 39q55 20 92 51q60 49 102 128q5 8 3 22zM141 678h66l61 -138h-33z" />
    <glyph glyph-name="uni1EF4" unicode="&#x1ef4;" horiz-adv-x="484" 
d="M212 0h-45l54 283l-129 391h48l79 -247q25 -77 31 -107h2q32 53 74 111l172 243h52l-285 -392zM172 -158h-1q-15 0 -26 12t-11 27t11.5 27t26.5 12t26 -12t11 -27t-11 -27t-26 -12z" />
    <glyph glyph-name="uni1EF5" unicode="&#x1ef5;" horiz-adv-x="406" 
d="M51 480h46l59 -289q18 -88 25 -134h3q22 51 56 121l146 302h48l-186 -377q-82 -168 -153 -240q-65 -67 -131 -83l-13 39q55 20 92 51q60 49 102 128q5 8 3 22zM260 -160h-1q-15 0 -26 12t-11 28t11.5 28t27.5 12q15 0 26 -12t11 -28q0 -17 -10.5 -28.5t-27.5 -11.5z" />
    <glyph glyph-name="uni1EF6" unicode="&#x1ef6;" horiz-adv-x="484" 
d="M212 0h-45l54 283l-129 391h48l79 -247q25 -77 31 -107h2q32 53 74 111l172 243h52l-285 -392zM340 712l-30 9q9 17 35.5 43t26.5 45q0 13 -8 21.5t-22 8.5q-29 0 -56 -37l-24 15q38 58 91 58q28 0 46.5 -17t18.5 -42q0 -23 -11.5 -38.5t-33.5 -33t-33 -32.5z" />
    <glyph glyph-name="uni1EF7" unicode="&#x1ef7;" horiz-adv-x="406" 
d="M51 480h46l59 -289q18 -88 25 -134h3q22 51 56 121l146 302h48l-186 -377q-82 -168 -153 -240q-65 -67 -131 -83l-13 39q55 20 92 51q60 49 102 128q5 8 3 22zM271 531l-30 11q7 18 37 46t30 50q0 14 -9 22.5t-22 8.5q-30 0 -57 -38l-24 15q35 59 94 59q28 0 46 -17
t18 -42t-14 -43t-36.5 -37t-32.5 -35z" />
    <glyph glyph-name="uni1EF8" unicode="&#x1ef8;" horiz-adv-x="484" 
d="M212 0h-45l54 283l-129 391h48l79 -247q25 -77 31 -107h2q32 53 74 111l172 243h52l-285 -392zM256 716h-32q6 35 25.5 60t46.5 25t58 -21q28 -17 46 -17q24 0 34 38h32q-14 -80 -72 -80q-25 0 -57 20q-34 19 -45 18q-24 -1 -36 -43z" />
    <glyph glyph-name="uni1EF9" unicode="&#x1ef9;" horiz-adv-x="406" 
d="M184 575h-34q4 35 20.5 59t44.5 24q7 0 13 -1t12.5 -3.5t10.5 -4.5t12.5 -7t12.5 -7q28 -16 41 -16t19 9t9 33h34q-10 -80 -64 -80q-26 0 -57 20q-29 18 -44 18q-23 0 -30 -44zM51 480h46l59 -289q18 -88 25 -134h3q22 51 56 121l146 302h48l-186 -377
q-82 -168 -153 -240q-65 -67 -131 -83l-13 39q55 20 92 51q60 49 102 128q5 8 3 22z" />
    <glyph glyph-name="endash" unicode="&#x2013;" horiz-adv-x="500" 
d="M40 273h441l-8 -38h-440z" />
    <glyph glyph-name="emdash" unicode="&#x2014;" horiz-adv-x="1000" 
d="M40 273h941l-8 -38h-940z" />
    <glyph glyph-name="quoteleft" unicode="&#x2018;" horiz-adv-x="156" 
d="M138 480l-60 -10q23 53 61 123.5t55 93.5l35 5q-19 -33 -48 -100.5t-43 -111.5z" />
    <glyph glyph-name="quoteright" unicode="&#x2019;" horiz-adv-x="156" 
d="M157 682l58 10q-22 -53 -60 -123.5t-55 -93.5l-35 -5q18 32 47 99t45 113z" />
    <glyph glyph-name="quotesinglbase" unicode="&#x201a;" horiz-adv-x="156" 
d="M-17 -121l-35 -5q19 33 48 100.5t43 111.5l59 10q-22 -53 -60 -123.5t-55 -93.5z" />
    <glyph glyph-name="quotedblleft" unicode="&#x201c;" horiz-adv-x="277" 
d="M137 480l-59 -10q23 53 61 123.5t55 93.5l35 5q-18 -32 -47 -99t-45 -113zM257 480l-58 -10q22 53 60 123.5t55 93.5l35 5q-18 -32 -47 -99t-45 -113z" />
    <glyph glyph-name="quotedblright" unicode="&#x201d;" horiz-adv-x="277" 
d="M157 682l58 10q-22 -53 -60 -123.5t-55 -93.5l-35 -5q19 33 48.5 100t43.5 112zM277 682l59 10q-23 -53 -61 -123.5t-55 -93.5l-35 -5q19 33 48.5 100t43.5 112z" />
    <glyph glyph-name="quotedblbase" unicode="&#x201e;" horiz-adv-x="277" 
d="M-17 -121l-35 -5q19 33 48 100.5t43 111.5l59 10q-22 -53 -60 -123.5t-55 -93.5zM104 -121l-35 -5q19 35 48 101.5t42 110.5l60 10q-21 -52 -59.5 -122.5t-55.5 -94.5z" />
    <glyph glyph-name="dagger" unicode="&#x2020;" horiz-adv-x="460" 
d="M293 674h46l-47 -217l166 4l-9 -44l-163 5l-86 -472h-46l95 472l-164 -5l8 44l163 -4z" />
    <glyph glyph-name="daggerdbl" unicode="&#x2021;" horiz-adv-x="460" 
d="M293 674h46l-45 -210l165 5l-9 -44l-162 4l-44 -231l164 5l-9 -44l-162 4l-37 -213h-46l45 213l-164 -4l9 44l162 -5l44 231l-164 -4l8 44l163 -5z" />
    <glyph glyph-name="bullet" unicode="&#x2022;" horiz-adv-x="240" 
d="M129 178h-1q-36 0 -62 26t-26 63q-1 37 25.5 63t63.5 26t63.5 -26t26.5 -63t-26.5 -63t-63.5 -26z" />
    <glyph glyph-name="ellipsis" unicode="&#x2026;" horiz-adv-x="1000" 
d="M128 -11h-1q-16 0 -27 13t-11 31q0 20 12 33t30 13t28.5 -12.5t10.5 -31.5t-11.5 -32.5t-30.5 -13.5zM462 -11h-1q-17 0 -28 13t-11 31q0 20 12 33t30 13t28.5 -12.5t10.5 -31.5t-11.5 -32.5t-29.5 -13.5zM795 -11h-1q-17 0 -28 13t-11 31q0 20 12 33t30 13t29 -12.5
t11 -31.5t-12 -32.5t-30 -13.5z" />
    <glyph glyph-name="perthousand" unicode="&#x2030;" horiz-adv-x="1040" 
d="M246 661h1q53 0 78 -38t25 -89q0 -111 -46.5 -191t-121.5 -80q-51 0 -78.5 38.5t-27.5 100.5q0 61 19.5 119.5t59.5 99t91 40.5zM240 627h-1q-52 0 -87 -71t-35 -155q0 -104 72 -104q51 0 85.5 72t34.5 156q0 41 -15.5 71.5t-53.5 30.5zM149 -13h-44l496 676h44zM573 393
h1q53 0 78.5 -38t25.5 -90q0 -110 -47 -190t-121 -80q-52 0 -79.5 38t-27.5 101q0 97 47.5 178t122.5 81zM567 359h-1q-52 0 -87 -71.5t-35 -155.5q0 -103 72 -103q51 0 85.5 72t34.5 156q0 41 -15.5 71.5t-53.5 30.5zM903 393h1q52 0 77.5 -38t25.5 -90q0 -110 -47 -190
t-121 -80q-52 0 -79.5 38t-27.5 101q0 61 20 119.5t60 99t91 40.5zM896 359h-1q-51 0 -86 -71t-35 -156q0 -103 72 -103q51 0 85 72t34 156q0 102 -69 102z" />
    <glyph glyph-name="guilsinglleft" unicode="&#x2039;" horiz-adv-x="231" 
d="M245 432l-157 -181l105 -179h-46l-108 180l156 180h50z" />
    <glyph glyph-name="guilsinglright" unicode="&#x203a;" horiz-adv-x="231" 
d="M166 254l-106 178h46l108 -180l-156 -180h-49z" />
    <glyph glyph-name="fraction" unicode="&#x2044;" horiz-adv-x="141" 
d="M-130 -11h-45l486 672h45z" />
    <glyph glyph-name="zero.superior" unicode="&#x2070;" horiz-adv-x="297" 
d="M189 400h-1q-97 0 -97 134q0 106 49.5 187.5t121.5 81.5q51 0 73.5 -34.5t22.5 -86.5q0 -109 -47.5 -195.5t-121.5 -86.5zM194 432h1q36 0 65.5 43.5t43.5 98.5t14 102q0 94 -60 94q-51 0 -88.5 -75.5t-37.5 -162.5q0 -100 62 -100z" />
    <glyph glyph-name="four.superior" unicode="&#x2074;" horiz-adv-x="289" 
d="M262 406h-38l21 112h-176l6 26l222 253h40l-47 -246h57l-6 -33h-58zM252 551l27 145q5 25 13 55l-2 1q-7 -9 -20 -28t-21 -29l-126 -142v-2h129z" />
    <glyph glyph-name="five.superior" unicode="&#x2075;" horiz-adv-x="269" 
d="M344 796l-7 -35h-138l-34 -109q14 2 21 2q36 0 65 -16q51 -26 51 -87q0 -69 -46.5 -110t-110.5 -41q-55 0 -84 22l13 31q32 -19 76 -19t77 32t33 75q0 79 -97 79q-9 0 -24.5 -1.5t-20.5 -1.5l54 179h172z" />
    <glyph glyph-name="six.superior" unicode="&#x2076;" horiz-adv-x="297" 
d="M351 803l-6 -36q-22 0 -42 -5q-57 -13 -98.5 -53.5t-61.5 -101.5l1 -1q18 25 46.5 41t57.5 16q47 0 72.5 -30t25.5 -77q0 -59 -42.5 -107.5t-102.5 -48.5q-54 0 -82 34.5t-28 92.5q0 65 30 124t71 92q47 39 104 52q28 7 55 8zM204 432h1q40 0 69.5 37t29.5 85
q0 37 -18 56.5t-51 19.5q-57 0 -94 -60q-7 -10 -8 -20q-2 -14 -2 -30q0 -40 19 -64t54 -24z" />
    <glyph glyph-name="seven.superior" unicode="&#x2077;" horiz-adv-x="261" 
d="M126 796h232l-5 -30l-235 -360h-45l234 354v2h-187z" />
    <glyph glyph-name="eight.superior" unicode="&#x2078;" horiz-adv-x="298" 
d="M260 803h1q42 0 69.5 -24t27.5 -64q0 -67 -79 -103v-1q60 -31 60 -94q0 -54 -40.5 -85.5t-94.5 -31.5t-86 27t-32 70q0 42 26.5 72t67.5 46v2q-44 30 -44 77q0 46 36 77.5t88 31.5zM205 431h1q39 0 65 23t26 59q0 61 -78 85q-38 -8 -65 -33t-27 -64q0 -28 20.5 -49
t57.5 -21zM253 772h-1q-32 0 -54.5 -22.5t-22.5 -52.5q0 -50 64 -70q34 10 56 31.5t22 51.5q0 25 -14.5 43.5t-49.5 18.5z" />
    <glyph glyph-name="nine.superior" unicode="&#x2079;" horiz-adv-x="290" 
d="M91 400l5 35q18 0 40 3q45 8 89 43q48 43 74 112l-2 1q-41 -50 -98 -50q-47 0 -71.5 30.5t-24.5 71.5q0 61 42.5 109t101.5 48q52 0 78 -34.5t26 -87.5q0 -70 -33 -132.5t-72 -95.5q-48 -40 -109 -50q-26 -5 -46 -3zM243 770h-1q-39 0 -68.5 -36t-29.5 -84
q0 -31 17 -51.5t49 -20.5q53 0 88 52q7 8 8 16q5 25 5 40q0 38 -17 61t-51 23z" />
    </font>
</defs>
</svg>
